<?xml version="1.0" encoding="UTF-8"?>
<svg version="1.1" xmlns="http://www.w3.org/2000/svg" width="500" height="500">
<path d="M0 0 C2.62666168 2.10226576 4.9881721 4.29535719 7 7 C7 7.66 7 8.32 7 9 C7.66 9 8.32 9 9 9 C10.32 11.64 11.64 14.28 13 17 C16.68238558 16.44206279 19.74384682 15.25297554 23.140625 13.7578125 C26.34943247 12.45002122 29.61646192 11.67895209 33 11 C34.30517578 10.71962891 34.30517578 10.71962891 35.63671875 10.43359375 C44.11944788 8.91159844 52.52418896 8.78715983 61.125 8.75 C62.30416992 8.74081543 63.48333984 8.73163086 64.69824219 8.72216797 C76.09164538 8.7619383 86.22064275 10.21986074 96.75 14.625 C97.9565625 15.11226562 97.9565625 15.11226562 99.1875 15.609375 C101.12942946 16.39539407 103.06541557 17.19607269 105 18 C105.433125 16.37384766 105.433125 16.37384766 105.875 14.71484375 C107.04816951 10.84094028 108.51782465 8.18028717 111 5 C111.66 5 112.32 5 113 5 C113 4.34 113 3.68 113 3 C120.56247623 -1.70138732 127.2771753 -5.2885414 136.34375 -3.55078125 C144.74092469 -1.06326204 152.20952179 3.55311954 157 11 C160.98000667 19.33548568 160.79640424 26.9501855 157.9921875 35.58984375 C156.47987893 39.26344371 154.56945656 41.96935893 152 45 C151.34 45 150.68 45 150 45 C150 45.66 150 46.32 150 47 C147.03 48.65 144.06 50.3 141 52 C141.391875 53.4025 141.78375 54.805 142.1875 56.25 C146.58316513 72.48252658 150.20128976 88.67649344 153.0625 105.25 C156.92139976 129.67585095 156.92139976 129.67585095 165.25 152.8125 C165.96835742 154.31672005 166.68212649 155.82314252 167.390625 157.33203125 C167.70032227 157.96858643 168.01001953 158.6051416 168.32910156 159.26098633 C169 161 169 161 169 164 C169.66 164 170.32 164 171 164 C171 165.32 171 166.64 171 168 C171.66 168 172.32 168 173 168 C174.42029008 171.12336519 175.83553689 174.24899218 177.25 177.375 C177.84361328 178.68017578 177.84361328 178.68017578 178.44921875 180.01171875 C188.95926245 203.27165153 199.47021663 231.67935811 192.04296875 257.30859375 C189.38204258 264.1751785 185.67587724 269.59104141 179 273 C174.28259935 274.31336756 169.53690643 274.1452292 164.68049622 274.14044189 C163.73841818 274.14341302 162.79634014 274.14638414 161.82571429 274.1494453 C158.66741056 274.15812059 155.50914478 274.15963952 152.35083008 274.16113281 C150.08735574 274.16576158 147.82388219 274.17078632 145.56040955 274.17617798 C139.41200739 274.1892928 133.26361615 274.19574441 127.11520219 274.20018864 C123.27734305 274.20311904 119.43948689 274.20722364 115.60162926 274.21169281 C104.97713375 274.22379599 94.35264085 274.23418157 83.72813892 274.2375679 C83.04876706 274.23778747 82.3693952 274.23800703 81.66943632 274.23823325 C80.9884497 274.23845153 80.30746308 274.23866981 79.6058405 274.2388947 C78.22591515 274.23933817 76.8459898 274.23978473 75.46606445 274.24023438 C74.43933055 274.24056652 74.43933055 274.24056652 73.39185455 274.24090537 C62.28400088 274.24485915 51.17621259 274.26233398 40.06838421 274.2855939 C28.66638615 274.30927756 17.26443204 274.32150997 5.862405 274.32293582 C-0.54053636 274.32398672 -6.94338535 274.32995555 -13.34630394 274.34775543 C-19.36189193 274.3641544 -25.37731726 274.36643166 -31.39291954 274.35761642 C-33.60612929 274.35684181 -35.8193475 274.361244 -38.03253555 274.37107468 C-41.04237039 274.38366516 -44.05161765 274.37798838 -47.06144714 274.36749268 C-48.38996988 274.37957728 -48.38996988 274.37957728 -49.74533147 274.39190602 C-52.17587566 274.3719368 -52.17587566 274.3719368 -56 274 C-65.8320082 259.2519877 -57.89437432 225.50964031 -54.96557617 209.15063477 C-53.76362178 202.60214422 -53.76362178 202.60214422 -54 196 C-55.84254335 193.67000934 -58.05408609 192.0019964 -60.4375 190.25 C-66.89727723 185.30816832 -66.89727723 185.30816832 -68 182 C-68.66 182 -69.32 182 -70 182 C-70 181.34 -70 180.68 -70 180 C-70.66 180 -71.32 180 -72 180 C-72 179.34 -72 178.68 -72 178 C-72.66 178 -73.32 178 -74 178 C-78 172.58823529 -78 172.58823529 -78 170 C-78.66 170 -79.32 170 -80 170 C-92.37888353 148.26818224 -102.01626559 123.73534362 -96.046875 98.53125 C-94.83562744 95.60256186 -93.73597392 94.54756826 -91 93 C-87.99611368 93.26504879 -87.16695725 93.83304275 -85 96 C-84.86722656 95.28972656 -84.73445313 94.57945312 -84.59765625 93.84765625 C-84.42105469 92.92855469 -84.24445313 92.00945312 -84.0625 91.0625 C-83.88847656 90.14597656 -83.71445313 89.22945313 -83.53515625 88.28515625 C-83 86 -83 86 -82 85 C-79.66702567 84.95907063 -77.33294775 84.95758277 -75 85 C-75 85.66 -75 86.32 -75 87 C-74.34 87 -73.68 87 -73 87 C-70.525 91.455 -70.525 91.455 -68 96 C-68.01160156 95.07316406 -68.02320312 94.14632812 -68.03515625 93.19140625 C-68.04417969 91.99386719 -68.05320312 90.79632813 -68.0625 89.5625 C-68.07410156 88.36753906 -68.08570312 87.17257813 -68.09765625 85.94140625 C-68 83 -68 83 -67 82 C-64.04235201 81.50705867 -61.90555828 81.51438193 -59.22265625 82.953125 C-50.36739603 89.69629908 -48.25463937 100.8864988 -45.87451172 111.1862793 C-44.62181463 116.41161499 -42.87603972 120.45184416 -40 125 C-38.33936101 119.65459551 -37.35915824 114.40908941 -36.5625 108.875 C-35.55941816 102.21934728 -34.34462997 95.69818009 -32.7421875 89.15625 C-31.9301834 85.70309574 -31.27693802 82.23676963 -30.625 78.75 C-29.34521514 72.18682523 -27.59402828 65.84631886 -25.62548828 59.45800781 C-24.42551838 55.79748378 -24.42551838 55.79748378 -24 52 C-25.485 51.505 -25.485 51.505 -27 51 C-27 50.34 -27 49.68 -27 49 C-27.61875 48.855625 -28.2375 48.71125 -28.875 48.5625 C-31 48 -31 48 -33 47 C-33 46.34 -33 45.68 -33 45 C-33.66 45 -34.32 45 -35 45 C-36.47265625 42.91796875 -36.47265625 42.91796875 -38.0625 40.1875 C-38.58972656 39.29417969 -39.11695313 38.40085938 -39.66015625 37.48046875 C-43.33254716 30.68172757 -43.11188148 20.90580138 -41.421875 13.44921875 C-38.08162803 5.87293131 -30.96255277 0.46821526 -23.4375 -2.5 C-14.84404759 -5.17351853 -7.92635752 -4.43207998 0 0 Z M-84 97 C-84 98.65 -84 100.3 -84 102 C-83.67 102 -83.34 102 -83 102 C-83 100.35 -83 98.7 -83 97 C-83.33 97 -83.66 97 -84 97 Z " fill="#101920" transform="translate(178,54)"/>
<path d="M0 0 C5.37933521 4.20941582 8.48468344 8.91395568 9.54296875 15.703125 C9.79789257 18.38671494 9.98300735 21.05264366 10.08203125 23.74609375 C10.71109375 23.6996875 11.34015625 23.65328125 11.98828125 23.60546875 C19.25788632 23.29891914 24.39244052 24.35986937 29.83984375 29.359375 C35.09767678 35.08711099 36.51701303 40.53044491 36.33203125 48.21875 C35.55775733 56.04617537 32.17313191 60.33851704 26.2048645 65.30963135 C19.62543937 69.76174591 10.1552926 69.04236564 2.52734375 69.01171875 C1.46337372 69.0136322 0.39940369 69.01554565 -0.69680786 69.01751709 C-2.92710611 69.01886905 -5.1574125 69.01524234 -7.38769531 69.00683594 C-10.80421433 68.99605827 -14.22021518 69.00679772 -17.63671875 69.01953125 C-19.81119908 69.01821073 -21.98567908 69.01565056 -24.16015625 69.01171875 C-25.17995575 69.01576721 -26.19975525 69.01981567 -27.25045776 69.02398682 C-28.67311447 69.01453033 -28.67311447 69.01453033 -30.12451172 69.00488281 C-30.95594696 69.00329163 -31.7873822 69.00170044 -32.64401245 69.00006104 C-35.12879721 68.72254733 -36.76725174 67.9904595 -38.91796875 66.74609375 C-39.01968795 59.20226606 -39.0895685 51.65861635 -39.13769531 44.11425781 C-39.15776603 41.54973745 -39.18502876 38.9852626 -39.21972656 36.42089844 C-39.2684423 32.72709904 -39.29098388 29.03390666 -39.30859375 25.33984375 C-39.32923889 24.19994995 -39.34988403 23.06005615 -39.37115479 21.88562012 C-39.37307516 15.01759437 -38.5315403 10.62283642 -34.91796875 4.74609375 C-34.25796875 4.74609375 -33.59796875 4.74609375 -32.91796875 4.74609375 C-32.69109375 4.14796875 -32.46421875 3.54984375 -32.23046875 2.93359375 C-29.81891013 -1.08567062 -26.46344751 -2.08400303 -22.10546875 -3.44140625 C-13.99618984 -5.23670627 -7.05945587 -4.61524508 0 0 Z " fill="#3C85B9" transform="translate(388.91796875,112.25390625)"/>
<path d="M0 0 C4.73006014 0.62678763 9.00083191 1.92560645 13.4375 3.625 C14.13053223 3.88788818 14.82356445 4.15077637 15.53759766 4.42163086 C22.86611245 7.25351784 29.93916035 10.56345261 37 14 C37.85722656 14.40863281 38.71445313 14.81726563 39.59765625 15.23828125 C44.87825318 17.80364637 50.00450694 20.63212581 55.125 23.5 C56.16756958 24.08334106 56.16756958 24.08334106 57.23120117 24.6784668 C60.84221317 26.71815977 64.32377627 28.8456055 67.75 31.1875 C68.8225 31.785625 69.895 32.38375 71 33 C72.98184878 32.3369111 72.98184878 32.3369111 75 31 C75.81178711 30.52828369 76.62357422 30.05656738 77.45996094 29.57055664 C78.37551758 29.02262451 79.29107422 28.47469238 80.234375 27.91015625 C127.35884023 0 127.35884023 0 143 0 C142.38722388 2.96175123 141.74627478 4.38058783 140 7 C139.34 7 138.68 7 138 7 C137.59080322 7.89138672 137.59080322 7.89138672 137.17333984 8.80078125 C136.03158128 10.94080646 134.88029836 12.42785988 133.2265625 14.1875 C132.3749353 15.09737671 132.3749353 15.09737671 131.50610352 16.02563477 C130.57495728 17.00294556 130.57495728 17.00294556 129.625 18 C128.97523193 18.68698975 128.32546387 19.37397949 127.65600586 20.08178711 C122.03670588 25.98602414 116.31462451 31.78790208 110.5625 37.5625 C109.73508301 38.39458984 108.90766602 39.22667969 108.05517578 40.08398438 C103.74621371 44.38167325 99.3639598 48.52464881 94.7487793 52.49194336 C92.48965877 54.44009183 90.31217726 56.47175257 88.125 58.5 C75.25682414 70.0397201 75.25682414 70.0397201 70.55859375 69.95703125 C67.2333709 68.7132456 65.06134604 66.87512572 62.375 64.5625 C59.62603916 62.21646903 57.00848981 60.00565987 54 58 C54 57.34 54 56.68 54 56 C53.4740625 55.79117188 52.948125 55.58234375 52.40625 55.3671875 C49.00051257 53.43210941 46.32367506 50.80477913 43.5 48.125 C42.85998047 47.52220215 42.21996094 46.9194043 41.56054688 46.29833984 C35.7906195 40.82511252 30.13425275 35.23739035 24.5 29.625 C23.66404297 28.79371582 22.82808594 27.96243164 21.96679688 27.10595703 C17.63805691 22.76593526 13.45870476 18.360105 9.48413086 13.69238281 C8.07496486 12.08548387 6.60445765 10.60343532 5.0625 9.125 C3 7 3 7 3 5 C2.34 5 1.68 5 1 5 C0.67 3.35 0.34 1.7 0 0 Z " fill="#F0E6D5" transform="translate(166,209)"/>
<path d="M0 0 C9.14238261 6.63809019 14.036658 13.83349235 16 25 C16.78232987 33.50783733 15.50367238 40.22624937 10 47 C-0.49432841 55.39546273 -11.00046082 56.17187823 -24 55 C-31.87206905 53.25170135 -37.4174866 49.35028765 -42.3125 43 C-45.52088188 36.86514428 -45.779539 28.58519498 -44.4375 21.875 C-41.05326821 11.274062 -35.24485167 3.87180803 -25.875 -1.9375 C-18.11649808 -4.80903749 -7.12175935 -4.37192602 0 0 Z " fill="#EFE6D6" transform="translate(252,143)"/>
<path d="M0 0 C4.29 0 8.58 0 13 0 C13.49371094 1.78148437 13.98742187 3.56296875 14.49609375 5.3984375 C15.14312196 7.72398816 15.79026322 10.04950738 16.4375 12.375 C16.92573242 14.1384375 16.92573242 14.1384375 17.42382812 15.9375 C17.73642578 17.05898438 18.04902344 18.18046875 18.37109375 19.3359375 C18.8031311 20.89127197 18.8031311 20.89127197 19.24389648 22.47802734 C19.9107818 24.96449374 19.9107818 24.96449374 21 27 C21.20681396 26.25314941 21.41362793 25.50629883 21.62670898 24.73681641 C22.56151933 21.36561887 23.49946911 17.99530278 24.4375 14.625 C24.76298828 13.449375 25.08847656 12.27375 25.42382812 11.0625 C25.73642578 9.94101562 26.04902344 8.81953125 26.37109375 7.6640625 C26.65911865 6.62717285 26.94714355 5.5902832 27.24389648 4.52197266 C28 2 28 2 29 0 C30.95766281 -0.08082094 32.91626728 -0.13910778 34.875 -0.1875 C36.51082031 -0.23970703 36.51082031 -0.23970703 38.1796875 -0.29296875 C39.11039062 -0.19628906 40.04109375 -0.09960938 41 0 C43.01433179 3.02149769 43.65903443 5.055598 44.5078125 8.54296875 C44.90419922 10.15268555 44.90419922 10.15268555 45.30859375 11.79492188 C45.57800781 12.91447266 45.84742188 14.03402344 46.125 15.1875 C46.40214844 16.31865234 46.67929687 17.44980469 46.96484375 18.61523438 C47.64852804 21.40890985 48.32668494 24.20381059 49 27 C49.33 27 49.66 27 50 27 C50.17015625 26.22398437 50.3403125 25.44796875 50.515625 24.6484375 C52.38165305 16.33071673 54.58572081 8.17423463 57 0 C60.96 0 64.92 0 69 0 C67.58392419 7.58511894 65.7298383 14.95363047 63.625 22.375 C63.33367187 23.42171875 63.04234375 24.4684375 62.7421875 25.546875 C60.7071244 32.77670443 58.41983765 39.88972815 56 47 C51.71 47 47.42 47 43 47 C39.87917959 38.13029989 37.47432411 29.06600177 35 20 C34.79318604 20.78238037 34.58637207 21.56476074 34.37329102 22.37084961 C33.43988026 25.89400996 32.50126268 29.41576211 31.5625 32.9375 C31.23701172 34.16919922 30.91152344 35.40089844 30.57617188 36.66992188 C30.26357422 37.83974609 29.95097656 39.00957031 29.62890625 40.21484375 C29.1968689 41.84087524 29.1968689 41.84087524 28.75610352 43.49975586 C28 46 28 46 27 47 C24.8579034 47.15154969 22.70976538 47.22177745 20.5625 47.25 C19.38816406 47.27578125 18.21382813 47.3015625 17.00390625 47.328125 C16.01261719 47.21984375 15.02132813 47.1115625 14 47 C12.07095568 44.10643353 11.34825946 42.14406099 10.44921875 38.8359375 C10.16506104 37.803479 9.88090332 36.77102051 9.58813477 35.70727539 C9.14232056 34.05779907 9.14232056 34.05779907 8.6875 32.375 C8.06608698 30.11040717 7.44368643 27.84608509 6.8203125 25.58203125 C6.51383789 24.46650879 6.20736328 23.35098633 5.89160156 22.20166016 C4.47039688 17.09824335 2.96010537 12.02209772 1.42260742 6.95263672 C0 2.20819566 0 2.20819566 0 0 Z " fill="#172630" transform="translate(299,363)"/>
<path d="M0 0 C5.34355151 2.84910601 9.49277357 7.7367023 11.765625 13.31640625 C13.44369884 24.30508335 13.04510295 32.98689616 6.765625 42.31640625 C2.07040744 46.65948249 -1.63120445 48.60904848 -8.046875 48.69140625 C-9.04332031 48.71976562 -10.03976563 48.748125 -11.06640625 48.77734375 C-14.234375 48.31640625 -14.234375 48.31640625 -21.234375 44.31640625 C-21.234375 51.57640625 -21.234375 58.83640625 -21.234375 66.31640625 C-25.194375 66.31640625 -29.154375 66.31640625 -33.234375 66.31640625 C-33.234375 44.53640625 -33.234375 22.75640625 -33.234375 0.31640625 C-28.234375 0.31640625 -23.234375 0.31640625 -18.234375 0.31640625 C-12.62508325 -1.55335767 -5.68181568 -1.73831773 0 0 Z M-18.234375 13.31640625 C-21.01111905 17.48152233 -21.18823512 21.37174942 -21.234375 26.31640625 C-20.49259817 29.28351359 -19.58923914 31.60667798 -18.234375 34.31640625 C-17.574375 34.31640625 -16.914375 34.31640625 -16.234375 34.31640625 C-16.234375 34.97640625 -16.234375 35.63640625 -16.234375 36.31640625 C-10.73895612 37.42362774 -10.73895612 37.42362774 -5.421875 36.25390625 C-2.01743656 33.23854649 -0.5195226 30.45501323 0.0859375 25.9140625 C0.28347025 21.53541981 0.00632248 18.81563066 -1.921875 14.81640625 C-4.33791798 12.20446789 -5.81802239 11.1923941 -9.234375 10.31640625 C-12.99023917 10.31640625 -15.00088272 11.45886813 -18.234375 13.31640625 Z " fill="#15232D" transform="translate(121.234375,362.68359375)"/>
<path d="M0 0 C7.70854116 6.29268666 9.75528545 11.60866319 10.93359375 21.5234375 C11.0625 24.5 11.0625 24.5 10.0625 26.5 C-0.1675 26.5 -10.3975 26.5 -20.9375 26.5 C-19.9475 29.47 -18.9575 32.44 -17.9375 35.5 C-13.9775 36.16 -10.0175 36.82 -5.9375 37.5 C-5.9375 36.84 -5.9375 36.18 -5.9375 35.5 C-5.2775 35.5 -4.6175 35.5 -3.9375 35.5 C-3.2775 34.18 -2.6175 32.86 -1.9375 31.5 C1.6925 31.5 5.3225 31.5 9.0625 31.5 C9.3925 32.16 9.7225 32.82 10.0625 33.5 C8.32926865 38.69969405 5.72636287 42.54242842 1.0625 45.5 C-5.48543876 48.65949493 -13.42214487 48.62350569 -20.41796875 46.8828125 C-26.93694231 44.0331258 -30.69247698 38.55596559 -33.3125 32.125 C-35.01110391 22.27309732 -33.69230447 14.36122651 -28.9375 5.5 C-28.2775 5.5 -27.6175 5.5 -26.9375 5.5 C-26.9375 4.84 -26.9375 4.18 -26.9375 3.5 C-19.61162227 -1.99440829 -8.61266537 -4.38357632 0 0 Z M-18.9375 11.5 C-19.82957179 14.5957107 -19.82957179 14.5957107 -19.9375 17.5 C-17.09989474 18.91880263 -14.66067025 18.6320472 -11.5 18.625 C-10.34628906 18.62757813 -9.19257813 18.63015625 -8.00390625 18.6328125 C-4.89624333 18.63895922 -4.89624333 18.63895922 -1.9375 17.5 C-2.77844381 14.34646071 -3.43817618 12.03498981 -5.6875 9.625 C-10.54667525 7.19541238 -14.87489307 8.01776549 -18.9375 11.5 Z " fill="#16222C" transform="translate(171.9375,363.5)"/>
<path d="M0 0 C5.63964862 4.41525122 9.69685705 9.16524489 10.78125 16.39453125 C11.6116041 25.80521108 10.49436831 32.75313337 4.53125 40.20703125 C-2.16392002 45.53273467 -7.43639593 47.08384105 -16.09765625 46.7734375 C-23.29289983 45.89992232 -27.49704783 42.70053392 -31.9921875 37.17578125 C-36.09019962 31.22452799 -36.94648227 24.52890652 -36.21875 17.39453125 C-34.60630178 10.41120772 -32.01192154 4.54760098 -26.21875 0.08203125 C-18.6407881 -4.18057232 -7.54854671 -4.52592949 0 0 Z M-21.21875 12.39453125 C-23.34245702 15.73918482 -23.4883646 18.47161216 -23.46875 22.39453125 C-23.47390625 23.42578125 -23.4790625 24.45703125 -23.484375 25.51953125 C-23.22374165 28.34050403 -22.67171344 29.99598843 -21.21875 32.39453125 C-20.55875 32.39453125 -19.89875 32.39453125 -19.21875 32.39453125 C-19.21875 33.05453125 -19.21875 33.71453125 -19.21875 34.39453125 C-15.79067418 36.50411637 -13.21051419 36.95337824 -9.21875 36.39453125 C-5.79109676 34.3268054 -3.51165588 32.2732489 -2.21875 28.39453125 C-1.48590626 18.8846741 -1.48590626 18.8846741 -5.21875 10.39453125 C-10.58160882 6.18085646 -16.794835 7.84421868 -21.21875 12.39453125 Z " fill="#17252F" transform="translate(72.21875,364.60546875)"/>
<path d="M0 0 C3.69541253 2.86394471 6.07891918 6.40307087 6.84777832 11.0307312 C6.96001455 13.34223699 6.95069549 15.62019136 6.890625 17.93359375 C6.88496521 18.76713882 6.87930542 19.6006839 6.87347412 20.45948792 C6.85124195 23.09859832 6.80107305 25.7363062 6.75 28.375 C6.72991787 30.17380839 6.71167011 31.97263826 6.6953125 33.77148438 C6.65142071 38.16068933 6.58248731 42.54885761 6.5 46.9375 C4.68757948 46.96437279 2.87504767 46.98383715 1.0625 47 C0.05316406 47.01160156 -0.95617187 47.02320313 -1.99609375 47.03515625 C-4.5 46.9375 -4.5 46.9375 -5.5 45.9375 C-5.63445554 43.68220221 -5.70368039 41.42296655 -5.74609375 39.1640625 C-5.77903645 37.768223 -5.81224802 36.37238982 -5.84570312 34.9765625 C-5.89310789 32.76892523 -5.93752112 30.56131286 -5.97680664 28.35351562 C-6.01653695 26.22758733 -6.06808408 24.10219531 -6.12109375 21.9765625 C-6.1461499 20.69990723 -6.17120605 19.42325195 -6.19702148 18.10791016 C-6.26272677 14.78095995 -6.26272677 14.78095995 -8.5 11.9375 C-14.55018562 10.75473292 -14.55018562 10.75473292 -20.5 11.9375 C-21.62001993 15.57699795 -21.6877925 19.06223758 -21.78125 22.85546875 C-21.79965942 23.51331863 -21.81806885 24.17116852 -21.83703613 24.84895325 C-21.91550147 27.65394331 -21.98373951 30.45915584 -22.05224609 33.2644043 C-22.10383064 35.31571833 -22.16109858 37.36681773 -22.21875 39.41796875 C-22.24904297 40.64410889 -22.27933594 41.87024902 -22.31054688 43.13354492 C-22.5 45.9375 -22.5 45.9375 -23.5 46.9375 C-27.46 46.9375 -31.42 46.9375 -35.5 46.9375 C-35.5 31.4275 -35.5 15.9175 -35.5 -0.0625 C-31.54 -0.0625 -27.58 -0.0625 -23.5 -0.0625 C-22.84 0.5975 -22.18 1.2575 -21.5 1.9375 C-20.7575 1.4425 -20.015 0.9475 -19.25 0.4375 C-13.38263416 -2.49618292 -6.09953163 -1.85164353 0 0 Z " fill="#192832" transform="translate(223.5,363.0625)"/>
<path d="M0 0 C1.65322266 0.01740234 1.65322266 0.01740234 3.33984375 0.03515625 C4.99693359 0.04869141 4.99693359 0.04869141 6.6875 0.0625 C7.54214844 0.07410156 8.39679688 0.08570313 9.27734375 0.09765625 C9.29716309 0.98026123 9.31698242 1.86286621 9.33740234 2.7722168 C9.41572241 6.06187582 9.5024223 9.35109589 9.59472656 12.64038086 C9.63289524 14.06119355 9.66776888 15.48209888 9.69921875 16.90307617 C9.7451344 18.9513448 9.8030818 20.99898233 9.86328125 23.046875 C9.89470215 24.27752686 9.92612305 25.50817871 9.95849609 26.77612305 C10.26614855 29.98103241 10.82400202 32.24071804 12.27734375 35.09765625 C14.47046794 36.70594732 15.57092604 37.18595846 18.27734375 36.84765625 C18.93734375 36.60015625 19.59734375 36.35265625 20.27734375 36.09765625 C20.97859375 35.85015625 21.67984375 35.60265625 22.40234375 35.34765625 C25.00468909 33.61275935 25.33070218 32.06551237 26.27734375 29.09765625 C26.64090444 25.81095055 26.64090444 25.81095055 26.69140625 22.265625 C26.73007812 20.97333984 26.76875 19.68105469 26.80859375 18.34960938 C26.84004389 16.9947963 26.87129136 15.6399785 26.90234375 14.28515625 C26.94056125 12.91078353 26.97961515 11.53643381 27.01953125 10.16210938 C27.11369779 6.80742636 27.19932575 3.45274732 27.27734375 0.09765625 C31.23734375 0.09765625 35.19734375 0.09765625 39.27734375 0.09765625 C39.27734375 15.60765625 39.27734375 31.11765625 39.27734375 47.09765625 C35.31734375 47.09765625 31.35734375 47.09765625 27.27734375 47.09765625 C27.27734375 46.10765625 27.27734375 45.11765625 27.27734375 44.09765625 C26.39046875 44.75765625 25.50359375 45.41765625 24.58984375 46.09765625 C19.19754533 49.17896963 13.28963526 48.87143894 7.27734375 48.09765625 C3.28328198 46.61781484 0.33496534 43.80137511 -1.72265625 40.09765625 C-4.15183828 32.9346836 -3.99486765 25.79049271 -3.9284668 18.30444336 C-3.90999263 16.14099572 -3.90795902 13.97797211 -3.90820312 11.81445312 C-3.86646539 0.1386824 -3.86646539 0.1386824 0 0 Z " fill="#192833" transform="translate(400.72265625,362.90234375)"/>
<path d="M0 0 C3.91333165 2.34799899 6.16642988 4.38239354 7.8125 8.6875 C7.84464041 10.35385674 7.84824535 12.0212167 7.8125 13.6875 C5.89708862 13.79591951 3.97990227 13.87328079 2.0625 13.9375 C0.46148437 14.00710938 0.46148437 14.00710938 -1.171875 14.078125 C-4.87961859 13.59784733 -5.71760646 12.36670655 -8.1875 9.6875 C-11.8550213 9.35332071 -11.8550213 9.35332071 -15.1875 9.6875 C-15.8475 11.0075 -16.5075 12.3275 -17.1875 13.6875 C-13.42584745 15.82249199 -9.88387435 17.10548806 -5.6875 18.1875 C4.53227496 20.89518494 4.53227496 20.89518494 7.6875 25.3125 C9.57083432 30.96250295 9.79109148 35.52644381 7.3125 41 C3.15013367 45.4745438 -0.38182017 47.36364061 -6.50390625 48.0703125 C-13.70832997 48.30346537 -20.17183474 47.97118252 -26.1875 43.6875 C-30.15619426 39.23481863 -30.1875 37.92190286 -30.1875 31.6875 C-26.2275 31.6875 -22.2675 31.6875 -18.1875 31.6875 C-18.1875 33.0075 -18.1875 34.3275 -18.1875 35.6875 C-15.17259443 36.69246852 -13.14568308 36.79085303 -10 36.75 C-9.09894531 36.74097656 -8.19789063 36.73195313 -7.26953125 36.72265625 C-6.58246094 36.71105469 -5.89539063 36.69945312 -5.1875 36.6875 C-4.8575 35.0375 -4.5275 33.3875 -4.1875 31.6875 C-4.8475 31.3575 -5.5075 31.0275 -6.1875 30.6875 C-6.1875 30.0275 -6.1875 29.3675 -6.1875 28.6875 C-7.46560547 28.74357422 -7.46560547 28.74357422 -8.76953125 28.80078125 C-12.44242556 28.67905104 -15.37063657 27.96171897 -18.875 26.875 C-19.99261719 26.53855469 -21.11023438 26.20210938 -22.26171875 25.85546875 C-25.06713331 24.73555025 -26.43275035 24.09450857 -28.1875 21.6875 C-29.87867969 17.43067699 -30.28769401 13.53199238 -29.75 9 C-27.74410226 4.74749679 -25.0792799 2.27046305 -21.1875 -0.3125 C-14.87990275 -2.41503242 -6.22069679 -2.55516793 0 0 Z " fill="#192732" transform="translate(289.1875,363.3125)"/>
<path d="M0 0 C3.96 0 7.92 0 12 0 C12.0905491 7.32820831 12.16385792 14.65610837 12.20724869 21.98475838 C12.22807946 25.38816318 12.25631258 28.79116375 12.30175781 32.19433594 C12.3537335 36.11127806 12.37298269 40.02805935 12.390625 43.9453125 C12.41127014 45.16115021 12.43191528 46.37698792 12.45318604 47.62966919 C12.45600808 58.28487515 12.45600808 58.28487515 8 63 C2.78887956 66.06536497 -2.07909761 66.66070155 -8 66 C-9 65 -9 65 -9.09765625 62.71484375 C-9.08605469 61.79832031 -9.07445312 60.88179688 -9.0625 59.9375 C-9.05347656 59.01839844 -9.04445312 58.09929687 -9.03515625 57.15234375 C-9.02355469 56.44207031 -9.01195312 55.73179687 -9 55 C-7.865625 54.87625 -6.73125 54.7525 -5.5625 54.625 C-4.386875 54.41875 -3.21125 54.2125 -2 54 C-0.75660024 51.51320048 -0.84172513 49.78202912 -0.79467773 46.99951172 C-0.77473251 45.95858368 -0.75478729 44.91765564 -0.73423767 43.84518433 C-0.70916893 42.1545134 -0.70916893 42.1545134 -0.68359375 40.4296875 C-0.66281265 39.27832306 -0.64203156 38.12695862 -0.62062073 36.94070435 C-0.55508335 33.2521986 -0.49622072 29.56361997 -0.4375 25.875 C-0.39431877 23.37889862 -0.35070462 20.8828047 -0.30664062 18.38671875 C-0.19939765 12.25788774 -0.09814199 6.12898323 0 0 Z " fill="#17252E" transform="translate(240,363)"/>
<path d="M0 0 C2 2 2 2 2.625 5.6875 C2.58169029 8.65421508 2.21394836 9.74520696 0.28125 12.046875 C-2.33930441 14.34460749 -4.87497466 16.43748733 -8 18 C-7.855625 19.299375 -7.71125 20.59875 -7.5625 21.9375 C-7.48128906 22.66839844 -7.40007812 23.39929688 -7.31640625 24.15234375 C-7.18113386 26.01140229 -7.18113386 26.01140229 -6 27 C-2.08485365 27.44490299 -0.53025339 27.41662766 2.625 24.9375 C3.40875 24.298125 4.1925 23.65875 5 23 C7.3125 23.25 7.3125 23.25 9 24 C8.5412234 28.55718085 8.5412234 28.55718085 6.109375 30.546875 C5.33078125 30.94390625 4.5521875 31.3409375 3.75 31.75 C2.98171875 32.15734375 2.2134375 32.5646875 1.421875 32.984375 C-6.70535415 36.39256787 -15.7803517 35.64700538 -24 33 C-27.04873127 31.44175957 -30.02639838 29.85075789 -32 27 C-31.6875 24.3125 -31.6875 24.3125 -31 22 C-28.50638429 23.20381448 -26.31856917 24.45428722 -24 26 C-21.66800612 26.07905064 -19.33167378 26.08798769 -17 26 C-16.01 23.03 -15.02 20.06 -14 17 C-15.36125 16.6596875 -15.36125 16.6596875 -16.75 16.3125 C-20.58704162 14.7629255 -21.88196495 13.53005842 -24 10 C-24.95750236 6.36149103 -25.52904947 4.15146061 -23.9375 0.6875 C-17.07588368 -5.28874647 -7.4425391 -3.94910238 0 0 Z " fill="#161C21" transform="translate(249,153)"/>
<path d="M0 0 C7.2170395 0.36696811 7.2170395 0.36696811 10.9375 3.375 C14.50267254 7.91249233 14.65781994 12.43236454 14 18 C11.89041889 22.65865828 9.134386 25.25867501 4.53515625 27.3046875 C-3.28406563 29.44925067 -12.0081633 29.08111103 -19.22265625 25.265625 C-22.09042527 23.22352134 -23.53778853 21.17872059 -25 18 C-25 16.02 -25 14.04 -25 12 C-21.04 12 -17.08 12 -13 12 C-13 13.32 -13 14.64 -13 16 C-9.98509443 17.00496852 -7.95818308 17.10335303 -4.8125 17.0625 C-3.91144531 17.05347656 -3.01039063 17.04445313 -2.08203125 17.03515625 C-1.05142578 17.01775391 -1.05142578 17.01775391 0 17 C0.66 14.69 1.32 12.38 2 10 C1.34 10 0.68 10 0 10 C-0.33 9.34 -0.66 8.68 -1 8 C-2.65 8 -4.3 8 -6 8 C-5.625 6.0625 -5.625 6.0625 -5 4 C-4.34 3.67 -3.68 3.34 -3 3 C-2.01 3.33 -1.02 3.66 0 4 C0 2.68 0 1.36 0 0 Z " fill="#121F28" transform="translate(284,383)"/>
<path d="M0 0 C4.76483642 -0.93272215 9.86939507 -1.11355659 14.2421875 1.171875 C19.93397842 5.91096272 22.29138988 10.85104032 23.25 18.1875 C23.42015625 19.41855469 23.5903125 20.64960938 23.765625 21.91796875 C24 25 24 25 23 27 C12.44 27 1.88 27 -9 27 C-9.33 27.66 -9.66 28.32 -10 29 C-10.33 28.34 -10.66 27.68 -11 27 C-10.67 26.34 -10.34 25.68 -10 25 C-11.65 25 -13.3 25 -15 25 C-14.01 24.67 -13.02 24.34 -12 24 C-12.33 22.68 -12.66 21.36 -13 20 C-12.01 20 -11.02 20 -10 20 C-8.62340519 19.87008041 -7.24842513 19.7224868 -5.875 19.5625 C-5.08609375 19.47226562 -4.2971875 19.38203125 -3.484375 19.2890625 C-2.25460938 19.14597656 -2.25460938 19.14597656 -1 19 C0.62482024 18.81094859 2.24981472 18.62338721 3.875 18.4375 C4.59429687 18.35371094 5.31359375 18.26992188 6.0546875 18.18359375 C8 18 8 18 11 18 C8.42676648 12.42466071 6.48079761 10.19406663 0.70703125 8.01953125 C-1 7 -1 7 -1.86328125 5.07421875 C-2 3 -2 3 0 0 Z " fill="#101C26" transform="translate(159,363)"/>
<path d="M0 0 C3.96 0 7.92 0 12 0 C12 15.51 12 31.02 12 47 C8.04 47 4.08 47 0 47 C0 31.49 0 15.98 0 0 Z " fill="#14222B" transform="translate(449,363)"/>
<path d="M0 0 C0.99 0 1.98 0 3 0 C3.61084317 2.3317465 4.21355188 4.66519132 4.8125 7 C5.0609668 7.94359375 5.0609668 7.94359375 5.31445312 8.90625 C5.91497346 11.26300906 6.46141301 13.62827182 7 16 C7.26385498 17.12019531 7.52770996 18.24039062 7.79956055 19.39453125 C10.21013822 30.65387541 10.35234907 41.52069848 10.1875 53 C10.17240577 54.85415563 10.15872586 56.70832334 10.14648438 58.5625 C10.11648624 63.04222162 10.05770717 67.5202136 10 72 C16.6 72.33 23.2 72.66 30 73 C30 73.33 30 73.66 30 74 C-45.57 74 -121.14 74 -199 74 C-199 73.67 -199 73.34 -199 73 C-132.01 73 -65.02 73 4 73 C4 69.37 4 65.74 4 62 C4.2535643 59.84470344 4.50737166 57.68942421 4.76953125 55.53515625 C6.23932572 39.36741712 4.40570097 22.48288716 0.5859375 6.75 C0 4 0 4 0 0 Z " fill="#3C5563" transform="translate(321,254)"/>
<path d="M0 0 C3.31928736 1.70993591 4.70306597 4.71809383 6.0625 8.0625 C6.56532644 11.07906347 6.5323568 14.00726138 6.453125 17.05859375 C6.44746521 17.89213882 6.44180542 18.7256839 6.43597412 19.58448792 C6.41374195 22.22359832 6.36357305 24.8613062 6.3125 27.5 C6.29241787 29.29880839 6.27417011 31.09763826 6.2578125 32.89648438 C6.21392071 37.28568933 6.14498731 41.67385761 6.0625 46.0625 C4.25007948 46.08937279 2.43754767 46.10883715 0.625 46.125 C-0.38433594 46.13660156 -1.39367187 46.14820313 -2.43359375 46.16015625 C-4.9375 46.0625 -4.9375 46.0625 -5.9375 45.0625 C-6.09760481 42.32548822 -6.19696828 39.6108241 -6.25390625 36.87109375 C-6.2850779 35.64133568 -6.2850779 35.64133568 -6.31687927 34.38673401 C-6.38246494 31.75791099 -6.44130126 29.12898496 -6.5 26.5 C-6.54317667 24.72199439 -6.58679067 22.94399935 -6.63085938 21.16601562 C-6.73815543 16.79828366 -6.83939704 12.43044773 -6.9375 8.0625 C-8.2575 7.7325 -9.5775 7.4025 -10.9375 7.0625 C-10.31875 6.98 -9.7 6.8975 -9.0625 6.8125 C-6.77080129 6.26923909 -6.77080129 6.26923909 -5.875 4.125 C-5.565625 3.444375 -5.25625 2.76375 -4.9375 2.0625 C-1.9375 0.0625 -1.9375 0.0625 0 0 Z " fill="#16242F" transform="translate(223.9375,363.9375)"/>
<path d="M0 0 C3.3 0 6.6 0 10 0 C10 14.85 10 29.7 10 45 C6.7 45 3.4 45 0 45 C0 44.01 0 43.02 0 42 C-0.99 42 -1.98 42 -3 42 C-2.505 39.03 -2.505 39.03 -2 36 C-2.66 35.67 -3.32 35.34 -4 35 C-3.01 33.02 -2.02 31.04 -1 29 C-0.34 29 0.32 29 1 29 C0.835 27.741875 0.67 26.48375 0.5 25.1875 C-0.35915069 16.82590662 -0.07756426 8.39417649 0 0 Z " fill="#0D1821" transform="translate(429,364)"/>
<path d="M0 0 C5.86185321 0.78634616 9.0333423 3.80102178 13 8 C17.26419901 15.01529515 17.73077168 21.92091309 17 30 C15.05639877 37.05611753 11.38448373 41.71744121 5.3125 45.8125 C3 47 3 47 1 47 C1 45 1 45 2.3125 43.375 C4 42 4 42 7 42 C5.33630748 39.39859044 5.33630748 39.39859044 3 37 C0.33071879 36.58129447 0.33071879 36.58129447 -2 37 C-1.360625 36.401875 -0.72125 35.80375 -0.0625 35.1875 C3.21135628 31.71522819 3.15888733 28.71447285 3.1875 24.125 C3.20167969 23.09632813 3.21585937 22.06765625 3.23046875 21.0078125 C2.99581369 17.94536512 2.29184572 15.76751139 1 13 C2.65 13.33 4.3 13.66 6 14 C6.96624167 12.32171592 6.96624167 12.32171592 7 10 C5.37873325 7.96302383 3.71140469 5.96185416 2 4 C2 3.01 2 2.02 2 1 C1.34 0.67 0.68 0.34 0 0 Z " fill="#1C2B35" transform="translate(66,363)"/>
<path d="M0 0 C0.33 0 0.66 0 1 0 C2.16720909 11.2304442 2.44976974 19.41748496 -4 29 C-8.79207331 33.43266781 -12.45626855 35.28796101 -19 35.3125 C-20.03125 35.32925781 -21.0625 35.34601563 -22.125 35.36328125 C-25.31011968 34.96081368 -26.65733538 34.13430263 -29 32 C-27.35 31.67 -25.7 31.34 -24 31 C-24 31.66 -24 32.32 -24 33 C-21.36 33 -18.72 33 -16 33 C-16.66 32.01 -17.32 31.02 -18 30 C-17.67 29.01 -17.34 28.02 -17 27 C-17.99 27 -18.98 27 -20 27 C-20 26.34 -20 25.68 -20 25 C-21.98 24.67 -23.96 24.34 -26 24 C-23 23 -23 23 -19.5 22.6875 C-15.98668864 22.34365008 -15.98668864 22.34365008 -14.1875 20.125 C-13.795625 19.42375 -13.40375 18.7225 -13 18 C-12.34 17.01 -11.68 16.02 -11 15 C-10.34 15.33 -9.68 15.66 -9 16 C-8.67 15.34 -8.34 14.68 -8 14 C-5.4375 13.375 -5.4375 13.375 -3 13 C-2.67 13.66 -2.34 14.32 -2 15 C-2.02320313 14.41992188 -2.04640625 13.83984375 -2.0703125 13.2421875 C-2.18250423 8.38588834 -1.87514915 4.57067605 0 0 Z " fill="#17252F" transform="translate(132,376)"/>
<path d="M0 0 C3.96 0 7.92 0 12 0 C12 15.51 12 31.02 12 47 C8.04 47 4.08 47 0 47 C0 46.01 0 45.02 0 44 C-0.886875 44.66 -1.77375 45.32 -2.6875 46 C-7.96487569 49.06218096 -14.08860959 48.71102038 -20 48 C-20.66 47.34 -21.32 46.68 -22 46 C-20.02 46 -18.04 46 -16 46 C-16.33 45.34 -16.66 44.68 -17 44 C-12.14473684 38.74013158 -12.14473684 38.74013158 -8 38 C-7.67 37.34 -7.34 36.68 -7 36 C-6.360625 35.731875 -5.72125 35.46375 -5.0625 35.1875 C-2.2175276 33.54948559 -1.97780745 32.10987481 -1 29 C-0.63643931 25.7132943 -0.63643931 25.7132943 -0.5859375 22.16796875 C-0.54726563 20.87568359 -0.50859375 19.58339844 -0.46875 18.25195312 C-0.43729986 16.89714005 -0.40605239 15.54232225 -0.375 14.1875 C-0.3367825 12.81312728 -0.2977286 11.43877756 -0.2578125 10.06445312 C-0.16364596 6.70977011 -0.078018 3.35509107 0 0 Z M1 1 C0.82161072 15.53119237 0.82161072 15.53119237 2 30 C1.34 30 0.68 30 0 30 C-1.485 33.465 -1.485 33.465 -3 37 C-2.34 37 -1.68 37 -1 37 C-1.33 38.98 -1.66 40.96 -2 43 C-1.01 43 -0.02 43 1 43 C1 43.99 1 44.98 1 46 C4.3 46 7.6 46 11 46 C11 31.15 11 16.3 11 1 C7.7 1 4.4 1 1 1 Z " fill="#375361" transform="translate(428,363)"/>
<path d="M0 0 C4.29 0 8.58 0 13 0 C14.19622575 4.12265332 15.38232328 8.2477534 16.5625 12.375 C17.07586914 14.1384375 17.07586914 14.1384375 17.59960938 15.9375 C18.07817383 17.61972656 18.07817383 17.61972656 18.56640625 19.3359375 C18.86490479 20.37282715 19.16340332 21.4097168 19.47094727 22.47802734 C20 25 20 25 19 27 C18.71125 26.2575 18.4225 25.515 18.125 24.75 C17.17697356 22.43260203 16.15154089 20.22082885 15 18 C12.66928121 17.58129447 12.66928121 17.58129447 10 18 C7.82173309 20.46222624 7.82173309 20.46222624 6 23 C4.99572108 19.54289448 3.9973056 16.08412303 3 12.625 C2.71382813 11.64015625 2.42765625 10.6553125 2.1328125 9.640625 C1.86210937 8.69960938 1.59140625 7.75859375 1.3125 6.7890625 C1.06113281 5.91975098 0.80976563 5.05043945 0.55078125 4.15478516 C0 2 0 2 0 0 Z " fill="#20313E" transform="translate(299,363)"/>
<path d="M0 0 C4.51785639 0.22972151 7.1397627 0.46235169 11 2.875 C13.93987575 7.46855586 13.41841486 11.69078034 13 17 C12.34 17 11.68 17 11 17 C10.34 18.32 9.68 19.64 9 21 C8.34 21 7.68 21 7 21 C6.67 20.34 6.34 19.68 6 19 C4.02 19 2.04 19 0 19 C0.66 16.03 1.32 13.06 2 10 C1.34 10 0.68 10 0 10 C-0.33 9.34 -0.66 8.68 -1 8 C-2.65 8 -4.3 8 -6 8 C-5.625 6.0625 -5.625 6.0625 -5 4 C-4.34 3.67 -3.68 3.34 -3 3 C-2.01 3.33 -1.02 3.66 0 4 C0 2.68 0 1.36 0 0 Z " fill="#121F29" transform="translate(284,383)"/>
<path d="M0 0 C3.63 0 7.26 0 11 0 C11.495 0.99 11.495 0.99 12 2 C10.26676865 7.19969405 7.66386287 11.04242842 3 14 C-1.06086391 15.97343738 -4.43961579 16.29784891 -8.9375 16.3125 C-10.71447266 16.33763672 -10.71447266 16.33763672 -12.52734375 16.36328125 C-16.30089716 15.96852257 -18.73791176 14.88752892 -22 13 C-18.42355152 11.7619986 -15.66305234 12.25073929 -12 13 C-12 13.33 -12 13.66 -12 14 C-9.03 14.33 -6.06 14.66 -3 15 C-3 13.35 -3 11.7 -3 10 C-4.98 10.99 -6.96 11.98 -9 13 C-8.67 11.68 -8.34 10.36 -8 9 C-8.99 8.67 -9.98 8.34 -11 8 C-11 7.34 -11 6.68 -11 6 C-8.69 6 -6.38 6 -4 6 C-4 5.34 -4 4.68 -4 4 C-3.34 4 -2.68 4 -2 4 C-1.34 2.68 -0.68 1.36 0 0 Z " fill="#0F1C25" transform="translate(170,395)"/>
<path d="M0 0 C6.93 0 13.86 0 21 0 C21 3.3 21 6.6 21 10 C14.07 10 7.14 10 0 10 C0 6.7 0 3.4 0 0 Z " fill="#1A2B37" transform="translate(370,380)"/>
<path d="M0 0 C1.75570312 0.01353516 1.75570312 0.01353516 3.546875 0.02734375 C4.43890625 0.03894531 5.3309375 0.05054688 6.25 0.0625 C6.25 0.3925 6.25 0.7225 6.25 1.0625 C4.97125 1.18625 3.6925 1.31 2.375 1.4375 C-1.09790936 1.75292399 -1.09790936 1.75292399 -3.75 4.0625 C-3.73617135 6.11964832 -3.73617135 6.11964832 -2.75 8.0625 C-0.7662233 9.34686734 -0.7662233 9.34686734 1.25 10.0625 C0.156875 10.371875 -0.93625 10.68125 -2.0625 11 C-4.30407994 11.64587897 -6.5369351 12.3248117 -8.75 13.0625 C-9.08 15.0425 -9.41 17.0225 -9.75 19.0625 C-9.09 19.0625 -8.43 19.0625 -7.75 19.0625 C-7.75 19.7225 -7.75 20.3825 -7.75 21.0625 C-11.12817425 21.90704356 -13.42465243 22.17094919 -16.75 21.0625 C-16.585 20.134375 -16.42 19.20625 -16.25 18.25 C-15.67251612 15.10628647 -15.67251612 15.10628647 -15.75 12.0625 C-15.42 11.4025 -15.09 10.7425 -14.75 10.0625 C-16.07 9.7325 -17.39 9.4025 -18.75 9.0625 C-18.75 8.4025 -18.75 7.7425 -18.75 7.0625 C-18.09 7.0625 -17.43 7.0625 -16.75 7.0625 C-16.75 6.4025 -16.75 5.7425 -16.75 5.0625 C-10.9029076 0.6771807 -7.19817764 -0.07198178 0 0 Z " fill="#192834" transform="translate(161.75,361.9375)"/>
<path d="M0 0 C3.91333165 2.34799899 6.16642988 4.38239354 7.8125 8.6875 C7.84464041 10.35385674 7.84824535 12.0212167 7.8125 13.6875 C5.89708862 13.79591951 3.97990227 13.87328079 2.0625 13.9375 C0.46148437 14.00710938 0.46148437 14.00710938 -1.171875 14.078125 C-4.87834637 13.59801213 -5.72593666 12.3742702 -8.1875 9.6875 C-12.84448348 9.26776801 -12.84448348 9.26776801 -17.1875 10.6875 C-17.1875 9.6975 -17.1875 8.7075 -17.1875 7.6875 C-12.7325 7.1925 -12.7325 7.1925 -8.1875 6.6875 C-7.5275 5.0375 -6.8675 3.3875 -6.1875 1.6875 C-7.30898438 1.59662109 -7.30898438 1.59662109 -8.453125 1.50390625 C-9.93039062 1.37822266 -9.93039062 1.37822266 -11.4375 1.25 C-12.41203125 1.16878906 -13.3865625 1.08757812 -14.390625 1.00390625 C-16.75211753 0.73675416 -18.90651065 0.33378032 -21.1875 -0.3125 C-14.87990275 -2.41503242 -6.22069679 -2.55516793 0 0 Z " fill="#253944" transform="translate(289.1875,363.3125)"/>
<path d="M0 0 C0.7734375 -0.00773437 1.546875 -0.01546875 2.34375 -0.0234375 C5.04613385 0.47591604 5.9175021 1.14263619 7.5 3.375 C8.11400247 6.42841767 7.99064593 9.30561033 7.5 12.375 C6.0625 14.5 6.0625 14.5 3.5 15.375 C0.33321439 15.54648659 -2.46318521 15.31072932 -5.5 14.375 C-7.625 12.1875 -7.625 12.1875 -8.5 9.375 C-8.37445687 6.23642177 -8.15891363 4.23199196 -6.2265625 1.71875 C-4.02833393 0.00791147 -2.76077076 -0.02760771 0 0 Z " fill="#182B36" transform="translate(246.5,342.625)"/>
<path d="M0 0 C2.68888181 0.54069906 3.59221008 1.18932059 5.15625 3.43359375 C5.44921875 5.6953125 5.44921875 5.6953125 5.34375 8.12109375 C5.31667969 8.92933594 5.28960937 9.73757813 5.26171875 10.5703125 C5.20951172 11.49263672 5.20951172 11.49263672 5.15625 12.43359375 C4.49625 12.43359375 3.83625 12.43359375 3.15625 12.43359375 C3.15625 13.09359375 3.15625 13.75359375 3.15625 14.43359375 C-0.34081189 16.18212469 -4.15043331 15.41937846 -7.84375 14.43359375 C-9.96875 12.18359375 -9.96875 12.18359375 -10.84375 9.43359375 C-10.70577091 6.60502239 -9.96168629 4.70632143 -8.84375 2.12109375 C-5.9972035 -0.28067986 -3.62557954 -0.00604263 0 0 Z " fill="#0A1821" transform="translate(457.84375,342.56640625)"/>
<path d="M0 0 C1.0546875 1.796875 1.0546875 1.796875 2 4 C1.125 7.25 1.125 7.25 0 10 C0.66 10.33 1.32 10.66 2 11 C1.34 11 0.68 11 0 11 C0 12.32 0 13.64 0 15 C0.99 14.34 1.98 13.68 3 13 C3 12.01 3 11.02 3 10 C3.99 10 4.98 10 6 10 C6.66 10.66 7.32 11.32 8 12 C7.86328125 13.9609375 7.86328125 13.9609375 7.3125 16.375 C7.11527344 17.25671875 6.91804688 18.1384375 6.71484375 19.046875 C5.50638904 24.03917972 4.28195924 29.02599816 3 34 C2.34 33.34 1.68 32.68 1 32 C0.01 32.495 0.01 32.495 -1 33 C-1 32.01 -1 31.02 -1 30 C-1.66 30 -2.32 30 -3 30 C-4.10844919 26.67465243 -3.84454356 24.37817425 -3 21 C-3.66 20.67 -4.32 20.34 -5 20 C-4.20099966 15.66857709 -3.08800666 11.43583732 -1.9375 7.1875 C-1.75123047 6.49462891 -1.56496094 5.80175781 -1.37304688 5.08789062 C-0.91678802 3.39154359 -0.45859046 1.6957182 0 0 Z " fill="#1E2E38" transform="translate(324,375)"/>
<path d="M0 0 C4.18865681 0.76084588 8.22484795 1.87822698 12.3125 3.0625 C14.19388672 3.60583984 14.19388672 3.60583984 16.11328125 4.16015625 C17.54220703 4.57587891 17.54220703 4.57587891 19 5 C18.01 5.33 17.02 5.66 16 6 C15.34 5.67 14.68 5.34 14 5 C14 6.32 14 7.64 14 9 C12.35 9.33 10.7 9.66 9 10 C8.67 10.99 8.34 11.98 8 13 C9.65 12.67 11.3 12.34 13 12 C13.33 12.99 13.66 13.98 14 15 C14.99 14.67 15.98 14.34 17 14 C16.67 14.99 16.34 15.98 16 17 C15.01 16.67 14.02 16.34 13 16 C13 15.34 13 14.68 13 14 C11.72576172 14.05800781 11.72576172 14.05800781 10.42578125 14.1171875 C6.70531645 13.9899196 3.73431943 13.23566117 0.1875 12.125 C-0.95332031 11.77695312 -2.09414063 11.42890625 -3.26953125 11.0703125 C-6 10 -6 10 -7 8 C-3.535 7.505 -3.535 7.505 0 7 C-0.33 6.34 -0.66 5.68 -1 5 C-0.72057545 3.32345271 -0.39171753 1.65391846 0 0 Z " fill="#202F3B" transform="translate(270,378)"/>
<path d="M0 0 C3.3 0 6.6 0 10 0 C11 1 11 1 11.12025452 2.79066467 C11.1169236 3.95981667 11.1169236 3.95981667 11.11352539 5.15258789 C11.11344986 6.03342545 11.11337433 6.914263 11.11329651 7.8217926 C11.10813522 8.77907761 11.10297394 9.73636261 11.09765625 10.72265625 C11.0962413 11.69786728 11.09482635 12.67307831 11.09336853 13.67784119 C11.08775133 16.80609143 11.07519593 19.93427123 11.0625 23.0625 C11.05748722 25.17773334 11.05292393 27.29296781 11.04882812 29.40820312 C11.03777631 34.60549296 11.02102146 39.80274145 11 45 C8.69 45 6.38 45 4 45 C4 44.67 4 44.34 4 44 C5.65 44 7.3 44 9 44 C9 30.47 9 16.94 9 3 C8.34 3 7.68 3 7 3 C6.67 2.67 6.34 2.34 6 2 C5.01 2.495 5.01 2.495 4 3 C4 2.34 4 1.68 4 1 C3.01 1 2.02 1 1 1 C1.11804905 6.94496559 1.24228286 12.88975706 1.37231445 18.83447266 C1.41569395 20.85787416 1.45736678 22.88131299 1.49731445 24.90478516 C1.55494408 27.80903384 1.6186594 30.71309411 1.68359375 33.6171875 C1.70030624 34.52556366 1.71701874 35.43393982 1.73423767 36.36984253 C1.75418289 37.21056305 1.77412811 38.05128357 1.79467773 38.91748047 C1.81022202 39.65916473 1.8257663 40.400849 1.84178162 41.16500854 C1.89473496 43.09674104 1.89473496 43.09674104 3 45 C2.01 45 1.02 45 0 45 C0 30.15 0 15.3 0 0 Z " fill="#051A25" transform="translate(450,364)"/>
<path d="M0 0 C1.90234375 1.10546875 1.90234375 1.10546875 4.58984375 3.10546875 C4.58984375 6.2308213 4.09244311 7.45382282 2.58984375 10.10546875 C1.58984375 11.10546875 1.58984375 11.10546875 -0.41015625 12.10546875 C-1.54366159 14.12216702 -1.54366159 14.12216702 -2.41015625 16.10546875 C-2.94640625 15.48671875 -3.48265625 14.86796875 -4.03515625 14.23046875 C-6.72118648 11.82717855 -8.96430187 11.04524722 -12.41015625 10.10546875 C-10.33461977 9.55199235 -8.56649661 9.10546875 -6.41015625 9.10546875 C-7.07015625 8.44546875 -7.73015625 7.78546875 -8.41015625 7.10546875 C-7.75015625 7.10546875 -7.09015625 7.10546875 -6.41015625 7.10546875 C-6.10078125 6.32171875 -5.79140625 5.53796875 -5.47265625 4.73046875 C-4.41015625 2.10546875 -4.41015625 2.10546875 -3.41015625 0.10546875 C-3.94125 0.32203125 -4.47234375 0.53859375 -5.01953125 0.76171875 C-5.7259375 1.04015625 -6.43234375 1.31859375 -7.16015625 1.60546875 C-7.85625 1.88390625 -8.55234375 2.16234375 -9.26953125 2.44921875 C-11.41015625 3.10546875 -11.41015625 3.10546875 -15.41015625 3.10546875 C-15.41015625 2.44546875 -15.41015625 1.78546875 -15.41015625 1.10546875 C-16.73015625 1.43546875 -18.05015625 1.76546875 -19.41015625 2.10546875 C-16.71966848 -3.27550679 -4.82225474 -1.78978337 0 0 Z " fill="#192832" transform="translate(121.41015625,362.89453125)"/>
<path d="M0 0 C2.4375 1.625 2.4375 1.625 4 4 C4.25 7.25 4.25 7.25 4 10 C3.79375 9.360625 3.5875 8.72125 3.375 8.0625 C2.11257974 5.69289473 2.11257974 5.69289473 -0.9375 5.125 C-4.17537932 4.69212888 -4.17537932 4.69212888 -7 7 C-7.43932865 9.13488276 -7.43932865 9.13488276 -7.3125 11.5 C-7.30863281 12.2940625 -7.30476562 13.088125 -7.30078125 13.90625 C-7.18225165 16.21733036 -7.18225165 16.21733036 -5 18 C-3.68252676 18.69748583 -2.35085807 19.36959957 -1 20 C-2 21 -2 21 -4.8125 21.3125 C-8 21 -8 21 -10.3125 19.1875 C-13.34567982 15.25560024 -13.17208893 11.81849012 -13 7 C-12.67 6.01 -12.34 5.02 -12 4 C-11.34 4 -10.68 4 -10 4 C-10 3.34 -10 2.68 -10 2 C-6.2794164 -0.48038907 -4.40203429 -0.46337203 0 0 Z " fill="#E5E0D5" transform="translate(204,132)"/>
<path d="M0 0 C3.62532374 0.75527578 5.36306228 2.06340335 8 4.625 C9.85410784 8.33321569 9.45112295 12.57760117 9 16.625 C7.375 19.75 7.375 19.75 5 21.625 C1.75 21.9375 1.75 21.9375 -1 21.625 C-0.175 20.75875 0.65 19.8925 1.5 19 C3.52323532 16.56866892 3.98925109 15.69352433 4.5 12.4375 C4.18999306 9.66302685 4.18999306 9.66302685 2.8125 7.75 C0.43963721 6.27718861 -1.25913944 6.40276806 -4 6.625 C-4.99 8.605 -5.98 10.585 -7 12.625 C-7.33 12.625 -7.66 12.625 -8 12.625 C-8.49348175 8.47975329 -8.13854307 6.845039 -5.875 3.25 C-3 0.625 -3 0.625 0 0 Z " fill="#E5DFD4" transform="translate(275,131.375)"/>
<path d="M0 0 C0.33 0 0.66 0 1 0 C1.33 3.96 1.66 7.92 2 12 C6.60532389 11.30697031 6.60532389 11.30697031 9 10 C10.91054568 12.99041933 12.30348552 15.51742758 13 19 C13.33 19.99 13.66 20.98 14 22 C11.69 22.99 9.38 23.98 7 25 C2.16585304 19.40256667 -0.16473032 15.9680154 -0.6875 8.375 C-0.77386719 7.22773438 -0.86023438 6.08046875 -0.94921875 4.8984375 C-1 2 -1 2 0 0 Z " fill="#E6DECF" transform="translate(208,167)"/>
<path d="M0 0 C0.66 0.33 1.32 0.66 2 1 C2.1875 3.375 2.1875 3.375 2 6 C1.01 6.66 0.02 7.32 -1 8 C-1.73343428 11.06556598 -1.73343428 11.06556598 -2 14 C-8.04814885 14.43201063 -11.68667786 12.77947857 -16.4375 9.125 C-18 7 -18 7 -17.75 4.25 C-17.5025 3.5075 -17.255 2.765 -17 2 C-14.50638429 3.20381448 -12.31856917 4.45428722 -10 6 C-7.66800612 6.07905064 -5.33167378 6.08798769 -3 6 C-2.01 4.02 -1.02 2.04 0 0 Z " fill="#212629" transform="translate(235,173)"/>
<path d="M0 0 C0.12375 0.639375 0.2475 1.27875 0.375 1.9375 C0.58125 2.618125 0.7875 3.29875 1 4 C1.66 4.33 2.32 4.66 3 5 C2.67 5.99 2.34 6.98 2 8 C1.34 8 0.68 8 0 8 C0 8.99 0 9.98 0 11 C-1.98 11.66 -3.96 12.32 -6 13 C-6 12.01 -6 11.02 -6 10 C-9.9492568 10.55105909 -13.34920174 11.38935371 -17 13 C-13.81903202 6.63806404 -7.30854685 0 0 0 Z M-2 2 C-1.67 2.66 -1.34 3.32 -1 4 C-0.67 3.34 -0.34 2.68 0 2 C-0.66 2 -1.32 2 -2 2 Z M-6 8 C-5 10 -5 10 -5 10 Z " fill="#E8E0D1" transform="translate(230,141)"/>
<path d="M0 0 C2.3125 0.25 2.3125 0.25 4 1 C3.5412234 5.55718085 3.5412234 5.55718085 1.109375 7.546875 C0.33078125 7.94390625 -0.4478125 8.3409375 -1.25 8.75 C-2.01828125 9.15734375 -2.7865625 9.5646875 -3.578125 9.984375 C-7.83167052 11.7681199 -11.7315864 12.12357885 -16.3125 12.0625 C-17.19550781 12.05347656 -18.07851562 12.04445312 -18.98828125 12.03515625 C-19.65214844 12.02355469 -20.31601563 12.01195312 -21 12 C-21 11.67 -21 11.34 -21 11 C-19.35 10.67 -17.7 10.34 -16 10 C-15.67 8.35 -15.34 6.7 -15 5 C-14.33613281 4.97421875 -13.67226562 4.9484375 -12.98828125 4.921875 C-7.24225696 4.55278731 -4.41479513 3.89540746 0 0 Z " fill="#23282B" transform="translate(254,176)"/>
<path d="M0 0 C4.37934119 0.51958285 8.68803391 1.05675742 13 2 C12.34 3.32 11.68 4.64 11 6 C11.66 5.67 12.32 5.34 13 5 C13.99 5 14.98 5 16 5 C16 6.65 16 8.3 16 10 C14.08364783 10.05423638 12.16685075 10.09289963 10.25 10.125 C8.64898437 10.15980469 8.64898437 10.15980469 7.015625 10.1953125 C4.03153261 10.00204227 2.51544018 9.52723154 0 8 C-0.7425 7.62875 -1.485 7.2575 -2.25 6.875 C-2.8275 6.58625 -3.405 6.2975 -4 6 C-2.68 4.02 -1.36 2.04 0 0 Z " fill="#0C1821" transform="translate(151,400)"/>
<path d="M0 0 C1.578125 1.73828125 1.578125 1.73828125 1.578125 4.73828125 C0.588125 4.73828125 -0.401875 4.73828125 -1.421875 4.73828125 C-1.751875 5.72828125 -2.081875 6.71828125 -2.421875 7.73828125 C-3.081875 7.73828125 -3.741875 7.73828125 -4.421875 7.73828125 C-4.751875 8.39828125 -5.081875 9.05828125 -5.421875 9.73828125 C-10.27265088 8.61887143 -13.199768 7.60480965 -16.421875 3.73828125 C-16.091875 2.74828125 -15.761875 1.75828125 -15.421875 0.73828125 C-13.34279897 0.32066338 -11.25831033 -0.07007577 -9.171875 -0.44921875 C-7.43164062 -0.77986328 -7.43164062 -0.77986328 -5.65625 -1.1171875 C-2.421875 -1.26171875 -2.421875 -1.26171875 0 0 Z " fill="#0E1922" transform="translate(71.421875,400.26171875)"/>
<path d="M0 0 C-0.33 1.65 -0.66 3.3 -1 5 C-1.66 5 -2.32 5 -3 5 C-3 5.99 -3 6.98 -3 8 C-2.34 8.66 -1.68 9.32 -1 10 C-2.79133978 10.05391993 -4.58313899 10.09275571 -6.375 10.125 C-7.37273437 10.14820313 -8.37046875 10.17140625 -9.3984375 10.1953125 C-12 10 -12 10 -14 8 C-14 7.67 -14 7.34 -14 7 C-14.66 6.67 -15.32 6.34 -16 6 C-16 4.68 -16 3.36 -16 2 C-13.48739777 1.16246592 -12.12354491 0.97220239 -9.5 1.5625 C-5.78819172 2.21206645 -3.75527877 0 0 0 Z " fill="#0C1720" transform="translate(118,363)"/>
<path d="M0 0 C1.08667969 0.29197266 1.08667969 0.29197266 2.1953125 0.58984375 C2.74960938 0.74582031 3.30390625 0.90179688 3.875 1.0625 C3.875 1.7225 3.875 2.3825 3.875 3.0625 C4.865 3.0625 5.855 3.0625 6.875 3.0625 C6.99875 3.84625 7.1225 4.63 7.25 5.4375 C7.66617993 8.20307822 7.66617993 8.20307822 9.875 10.0625 C-0.68308656 9.09894647 -0.68308656 9.09894647 -5.125 8.0625 C-4.795 5.7525 -4.465 3.4425 -4.125 1.0625 C-4.785 0.7325 -5.445 0.4025 -6.125 0.0625 C-3.57797384 -1.21101308 -2.6967055 -0.73941925 0 0 Z " fill="#0C1820" transform="translate(108.125,399.9375)"/>
<path d="M0 0 C0.98226563 0.07863281 1.96453125 0.15726562 2.9765625 0.23828125 C3.76804687 0.38652344 4.55953125 0.53476562 5.375 0.6875 C5.705 1.3475 6.035 2.0075 6.375 2.6875 C5.715 2.6875 5.055 2.6875 4.375 2.6875 C4.705 3.6775 5.035 4.6675 5.375 5.6875 C5.045 6.3475 4.715 7.0075 4.375 7.6875 C-2.94894366 7.96919014 -2.94894366 7.96919014 -6.625 5.6875 C-7.3675 5.31625 -8.11 4.945 -8.875 4.5625 C-9.4525 4.27375 -10.03 3.985 -10.625 3.6875 C-7.60912443 -0.83631336 -5.05549475 -0.44685772 0 0 Z " fill="#0D161F" transform="translate(277.625,363.3125)"/>
<path d="M0 0 C2 3 2 3 1.7578125 5.04296875 C1.171875 7.02864583 0.5859375 9.01432292 0 11 C-1.65 11.33 -3.3 11.66 -5 12 C-5.33 10.68 -5.66 9.36 -6 8 C-6.66 8 -7.32 8 -8 8 C-8.36075949 3.55063291 -8.36075949 3.55063291 -6.8125 1.1875 C-4.36655047 -0.41501866 -2.86618213 -0.4409511 0 0 Z " fill="#0D181F" transform="translate(314,380)"/>
<path d="M0 0 C0.33 0 0.66 0 1 0 C1.36721393 4.59017416 1.42605145 8.05913638 -0.5 12.3125 C-4.76732249 16.89987168 -8.30290246 18.8201935 -14.6328125 19.2421875 C-18.09841548 19.24918872 -21.539176 19.17498548 -25 19 C-25 18.67 -25 18.34 -25 18 C-20.71 18 -16.42 18 -12 18 C-12.33 17.01 -12.66 16.02 -13 15 C-12.34 14.34 -11.68 13.68 -11 13 C-10.34 13.33 -9.68 13.66 -9 14 C-9.33 12.68 -9.66 11.36 -10 10 C-8.35 9.67 -6.7 9.34 -5 9 C-5.33 9.99 -5.66 10.98 -6 12 C-5.38125 11.34 -4.7625 10.68 -4.125 10 C-2 8 -2 8 0 8 C0 5.36 0 2.72 0 0 Z " fill="#182832" transform="translate(297,392)"/>
<path d="M0 0 C2.10715097 2.80953463 3.66589463 5.05846964 5.1875 8.125 C5.53167969 8.80820313 5.87585938 9.49140625 6.23046875 10.1953125 C7 12 7 12 7 14 C5.68 13.67 4.36 13.34 3 13 C3 14.98 3 16.96 3 19 C1.02 19 -0.96 19 -3 19 C-4 17 -4 17 -3.1875 14.4375 C-2 12 -2 12 0 11 C0 7.37 0 3.74 0 0 Z " fill="#11171D" transform="translate(236,168)"/>
<path d="M0 0 C0.66 0.33 1.32 0.66 2 1 C2 1.99 2 2.98 2 4 C2.33 3.34 2.66 2.68 3 2 C4.64363134 1.27840576 6.31050386 0.60648579 8 0 C9.33399602 7.27634195 9.33399602 7.27634195 7.875 10.4375 C5.60924964 12.3256253 3.86761559 12.51579606 1 13 C0.63631108 11.39796533 0.28438048 9.79325797 -0.0625 8.1875 C-0.25972656 7.29417969 -0.45695312 6.40085937 -0.66015625 5.48046875 C-1 3 -1 3 0 0 Z " fill="#0C1620" transform="translate(339,388)"/>
<path d="M0 0 C1.6875 1.1875 1.6875 1.1875 2.6875 2.1875 C2.6875 3.8375 2.6875 5.4875 2.6875 7.1875 C-1.2725 7.1875 -5.2325 7.1875 -9.3125 7.1875 C-8.9825 5.2075 -8.6525 3.2275 -8.3125 1.1875 C-2.91023829 -1.02251616 -2.91023829 -1.02251616 0 0 Z " fill="#0E171F" transform="translate(294.3125,369.8125)"/>
<path d="M0 0 C1.65 0.33 3.3 0.66 5 1 C5.33 2.65 5.66 4.3 6 6 C6.99 6.33 7.98 6.66 9 7 C10.1875 9.0625 10.1875 9.0625 11 11 C10.01 12.485 10.01 12.485 9 14 C7.35 13.67 5.7 13.34 4 13 C3.67 11.02 3.34 9.04 3 7 C2.34 7 1.68 7 1 7 C1 5.68 1 4.36 1 3 C0.34 3 -0.32 3 -1 3 C-0.67 2.01 -0.34 1.02 0 0 Z " fill="#0E1820" transform="translate(63,363)"/>
<path d="M0 0 C2.97 0 5.94 0 9 0 C8.51421457 3.12290635 8.0013988 5.99580359 7 9 C0.25 8.25 0.25 8.25 -2 6 C-1.64644564 3.73725212 -1.02455574 2.04911148 0 0 Z " fill="#0D1721" transform="translate(159,363)"/>
<path d="M0 0 C2.15737969 0.9743005 3.39293876 2.09875457 4.9375 3.875 C3.9475 4.205 2.9575 4.535 1.9375 4.875 C0.9475 6.36 0.9475 6.36 -0.0625 7.875 C-1.0525 7.545 -2.0425 7.215 -3.0625 6.875 C-2.7325 9.515 -2.4025 12.155 -2.0625 14.875 C-4.0625 13.9375 -4.0625 13.9375 -6.0625 11.875 C-6.66059003 8.78678513 -6.63698855 5.9657484 -6.0625 2.875 C-4.05704667 0.43980667 -3.14998626 -0.19090826 0 0 Z " fill="#151A1D" transform="translate(202.0625,136.125)"/>
<path d="M0 0 C0.33 0.66 0.66 1.32 1 2 C1.9590625 2.1546875 1.9590625 2.1546875 2.9375 2.3125 C5 3 5 3 6.3125 5.1875 C7.11354031 8.4644831 6.75818361 10.73981048 6 14 C5.67 12.68 5.34 11.36 5 10 C2.82890503 10.82719145 2.82890503 10.82719145 2.0625 13 C1 15 1 15 -2 16 C-1.855625 15.18015625 -1.71125 14.3603125 -1.5625 13.515625 C-1.376875 12.43796875 -1.19125 11.3603125 -1 10.25 C-0.7215625 8.64898437 -0.7215625 8.64898437 -0.4375 7.015625 C0.09571643 3.84810626 0.09571643 3.84810626 0 0 Z " fill="#0C1821" transform="translate(325,375)"/>
<path d="M0 0 C1.74216797 0.02707031 1.74216797 0.02707031 3.51953125 0.0546875 C4.39996094 0.07789063 5.28039062 0.10109375 6.1875 0.125 C6.1875 0.455 6.1875 0.785 6.1875 1.125 C4.90875 1.24875 3.63 1.3725 2.3125 1.5 C-1.16040936 1.81542399 -1.16040936 1.81542399 -3.8125 4.125 C-3.79867135 6.18214832 -3.79867135 6.18214832 -2.8125 8.125 C-0.8287233 9.40936734 -0.8287233 9.40936734 1.1875 10.125 C-0.483125 10.5890625 -0.483125 10.5890625 -2.1875 11.0625 C-5.6070155 11.94826483 -5.6070155 11.94826483 -7.8125 13.125 C-7.855221 11.45888095 -7.85313832 9.79117115 -7.8125 8.125 C-7.4825 7.795 -7.1525 7.465 -6.8125 7.125 C-7.8025 6.465 -8.7925 5.805 -9.8125 5.125 C-10.4725 4.135 -11.1325 3.145 -11.8125 2.125 C-7.73526266 0.17468308 -4.49557578 -0.09081971 0 0 Z " fill="#273844" transform="translate(161.8125,361.875)"/>
<path d="M0 0 C1.485 0.99 1.485 0.99 3 2 C2.67 2.66 2.34 3.32 2 4 C4.475 4.99 4.475 4.99 7 6 C7 6.66 7 7.32 7 8 C7.99 8.66 8.98 9.32 10 10 C9.21625 10.268125 8.4325 10.53625 7.625 10.8125 C4.71885077 11.84814432 4.71885077 11.84814432 3 15 C2.01 14.67 1.02 14.34 0 14 C-1.38771013 10.7620097 -0.73512574 8.34890614 0 5 C0.0370279 3.3337447 0.04759962 1.66598681 0 0 Z " fill="#233540" transform="translate(99,364)"/>
<path d="M0 0 C1.65 0 3.3 0 5 0 C5 0.66 5 1.32 5 2 C6.62626404 3.38232443 8.2925002 4.71937515 10 6 C10.66 5.67 11.32 5.34 12 5 C12.66 5.66 13.32 6.32 14 7 C14.66 7 15.32 7 16 7 C16 9.97 16 12.94 16 16 C10.35573231 11.31645873 4.9941954 6.3792354 0 1 C0 0.67 0 0.34 0 0 Z " fill="#DFD9CE" transform="translate(195,242)"/>
<path d="M0 0 C4.29 0.33 8.58 0.66 13 1 C12.67 1.66 12.34 2.32 12 3 C10.68 3 9.36 3 8 3 C6.22590192 4.92022703 6.22590192 4.92022703 5 7 C2.11562221 5.70700306 0.12780579 4.34058637 -2 2 C-1.34 2 -0.68 2 0 2 C0 1.34 0 0.68 0 0 Z M-3 6 C3.75 7.75 3.75 7.75 6 10 C3.03 9.67 0.06 9.34 -3 9 C-3 8.01 -3 7.02 -3 6 Z " fill="#0A1720" transform="translate(408,400)"/>
<path d="M0 0 C0.66 0.33 1.32 0.66 2 1 C2 1.99 2 2.98 2 4 C2.15127402 5.56406528 2.31902522 7.12659252 2.5 8.6875 C2.5928125 9.49574219 2.685625 10.30398438 2.78125 11.13671875 C2.8534375 11.75160156 2.925625 12.36648438 3 13 C1.68 13.33 0.36 13.66 -1 14 C-4.03652968 9.74885845 -4.03652968 9.74885845 -3.875 6.4375 C-2.94505824 3.84694794 -1.77771189 2.08687917 0 0 Z " fill="#192330" transform="translate(451,343)"/>
<path d="M0 0 C0.33 0.66 0.66 1.32 1 2 C1.99 2 2.98 2 4 2 C3.34 4.64 2.68 7.28 2 10 C1.01 10 0.02 10 -1 10 C-1.66 8.35 -2.32 6.7 -3 5 C-3.66 5 -4.32 5 -5 5 C-5.33 5.99 -5.66 6.98 -6 8 C-6 5.69 -6 3.38 -6 1 C-3.92446352 0.4465236 -2.15634036 0 0 0 Z " fill="#0F1820" transform="translate(246,346)"/>
<path d="M0 0 C3.04200032 0.59517398 4.04573533 1.12348044 5.875 3.5625 C5.215 3.5625 4.555 3.5625 3.875 3.5625 C3.545 4.5525 3.215 5.5425 2.875 6.5625 C0.565 6.5625 -1.745 6.5625 -4.125 6.5625 C-5.115 8.5425 -6.105 10.5225 -7.125 12.5625 C-7.455 12.5625 -7.785 12.5625 -8.125 12.5625 C-8.61848175 8.41725329 -8.26354307 6.782539 -6 3.1875 C-3.125 0.5625 -3.125 0.5625 0 0 Z " fill="#E0DCD1" transform="translate(275.125,131.4375)"/>
<path d="M0 0 C1.65 0 3.3 0 5 0 C4.67 3.3 4.34 6.6 4 10 C1 10 1 10 -1.625 7.75 C-3.76579221 5.27118796 -4.64840943 4.16431511 -5 1 C-3.68 1 -2.36 1 -1 1 C-0.67 0.67 -0.34 0.34 0 0 Z " fill="#21303A" transform="translate(264,398)"/>
<path d="M0 0 C2.16313125 1.15367 3.44197278 1.9937619 4.875 4 C5.0625 6.6875 5.0625 6.6875 4.875 9 C3.225 9.33 1.575 9.66 -0.125 10 C-0.125 9.34 -0.125 8.68 -0.125 8 C0.535 8 1.195 8 1.875 8 C1.875 7.01 1.875 6.02 1.875 5 C-1.84236641 4.65099442 -1.84236641 4.65099442 -4.9375 6.5 C-5.329375 6.995 -5.72125 7.49 -6.125 8 C-6.455 7.01 -6.785 6.02 -7.125 5 C-2.7347561 0 -2.7347561 0 0 0 Z " fill="#192936" transform="translate(89.125,147)"/>
<path d="M0 0 C8.00203413 6.37970392 8.00203413 6.37970392 10 11 C9.67 11.99 9.34 12.98 9 14 C7.68 13.67 6.36 13.34 5 13 C5.33 12.34 5.66 11.68 6 11 C5.34 11 4.68 11 4 11 C3.67 9.35 3.34 7.7 3 6 C1.68 5.67 0.36 5.34 -1 5 C-0.67 3.35 -0.34 1.7 0 0 Z " fill="#243544" transform="translate(326,56)"/>
<path d="M0 0 C0.66 0.33 1.32 0.66 2 1 C2 5.62 2 10.24 2 15 C1.67 14.34 1.34 13.68 1 13 C-0.32 13 -1.64 13 -3 13 C-4.22807018 8.57894737 -4.22807018 8.57894737 -3.1875 5.9375 C-2.795625 5.298125 -2.40375 4.65875 -2 4 C-1.62875 3.2575 -1.2575 2.515 -0.875 1.75 C-0.58625 1.1725 -0.2975 0.595 0 0 Z " fill="#F5EAD7" transform="translate(264,168)"/>
<path d="M0 0 C0.33 0 0.66 0 1 0 C1.33 4.95 1.66 9.9 2 15 C1.01 15.495 1.01 15.495 0 16 C-0.33 16.99 -0.66 17.98 -1 19 C-1.66 19 -2.32 19 -3 19 C-2.67 21.64 -2.34 24.28 -2 27 C-2.99 27.33 -3.98 27.66 -5 28 C-3.65113611 18.58969077 -1.93049016 9.30496258 0 0 Z " fill="#213844" transform="translate(149,125)"/>
<path d="M0 0 C3.96 0 7.92 0 12 0 C11.67 0.99 11.34 1.98 11 3 C11 2.34 11 1.68 11 1 C7.7 1 4.4 1 1 1 C2.06645115 2.29633621 2.06645115 2.29633621 4.5625 2.0625 C5.366875 2.041875 6.17125 2.02125 7 2 C6.67 2.66 6.34 3.32 6 4 C6 4.99 6 5.98 6 7 C5.01 6.67 4.02 6.34 3 6 C2.34 7.98 1.68 9.96 1 12 C0.34 11.67 -0.32 11.34 -1 11 C-1.07622858 7.03611362 -0.9681648 3.8726592 0 0 Z " fill="#243743" transform="translate(356,363)"/>
<path d="M0 0 C1 2 1 2 1 6 C1.66 6 2.32 6 3 6 C3.66 7.65 4.32 9.3 5 11 C5.99 11 6.98 11 8 11 C8 10.34 8 9.68 8 9 C8.66 9 9.32 9 10 9 C10 9.66 10 10.32 10 11 C10.66 11.33 11.32 11.66 12 12 C8.49987104 13.75006448 4.69722036 12.98006755 1 12 C-1.125 9.8125 -1.125 9.8125 -2 7 C-1.58333333 1.58333333 -1.58333333 1.58333333 0 0 Z " fill="#34485C" transform="translate(240,345)"/>
<path d="M0 0 C3.96 0 7.92 0 12 0 C12.33 1.98 12.66 3.96 13 6 C12.01 5.67 11.02 5.34 10 5 C10 4.34 10 3.68 10 3 C6.06924356 3.57452746 6.06924356 3.57452746 3 6 C2.01 5.34 1.02 4.68 0 4 C0 2.68 0 1.36 0 0 Z " fill="#0F2532" transform="translate(259,395)"/>
<path d="M0 0 C-0.61277612 2.96175123 -1.25372522 4.38058783 -3 7 C-3.66 7 -4.32 7 -5 7 C-5.66 8.32 -6.32 9.64 -7 11 C-7.33 11 -7.66 11 -8 11 C-8.74926071 7.33694766 -9.2380014 4.57644848 -8 1 C-5.10765685 0.17361624 -3.11257569 0 0 0 Z " fill="#E5DFD3" transform="translate(309,209)"/>
<path d="M0 0 C0.66 0.33 1.32 0.66 2 1 C1.67 1.66 1.34 2.32 1 3 C0.01 3 -0.98 3 -2 3 C-2 4.32 -2 5.64 -2 7 C-3.65 7.66 -5.3 8.32 -7 9 C-7 9.66 -7 10.32 -7 11 C-8.98 11 -10.96 11 -13 11 C-9.41458342 6.18209648 -5.56765319 2.47041566 0 0 Z " fill="#263D49" transform="translate(153,52)"/>
<path d="M0 0 C8.3984375 -0.1953125 8.3984375 -0.1953125 11 0 C11.66 0.66 12.32 1.32 13 2 C13.99 2 14.98 2 16 2 C15.01 3.485 15.01 3.485 14 5 C13.01 5 12.02 5 11 5 C11 4.01 11 3.02 11 2 C9.72125 2.185625 8.4425 2.37125 7.125 2.5625 C3.25 3.125 3.25 3.125 1 2 C1.33 2.99 1.66 3.98 2 5 C1.83988879 7.70123106 1.39559392 10.31875231 1 13 C0.67 13 0.34 13 0 13 C0 8.71 0 4.42 0 0 Z " fill="#223B48" transform="translate(189,363)"/>
<path d="M0 0 C0.33 0.66 0.66 1.32 1 2 C-0.98 2.33 -2.96 2.66 -5 3 C-5 5.31 -5 7.62 -5 10 C-2.36 10 0.28 10 3 10 C3 10.66 3 11.32 3 12 C1.52093108 12.02689216 0.04172517 12.04634621 -1.4375 12.0625 C-2.67306641 12.07990234 -2.67306641 12.07990234 -3.93359375 12.09765625 C-6 12 -6 12 -7 11 C-7.07205511 9.31391034 -7.08386068 7.62499341 -7.0625 5.9375 C-7.05347656 5.01839844 -7.04445312 4.09929687 -7.03515625 3.15234375 C-7.02355469 2.44207031 -7.01195312 1.73179687 -7 1 C-3.535 0.505 -3.535 0.505 0 0 Z " fill="#365566" transform="translate(238,417)"/>
<path d="M0 0 C4.53460431 1.13365108 5.90024653 2.64193374 9 6 C8.01 6.33 7.02 6.66 6 7 C5.67 6.34 5.34 5.68 5 5 C4.01 4.67 3.02 4.34 2 4 C1.34 6.64 0.68 9.28 0 12 C-1.32 11.01 -2.64 10.02 -4 9 C-3.34 9 -2.68 9 -2 9 C-1.34 6.03 -0.68 3.06 0 0 Z " fill="#293C49" transform="translate(168,363)"/>
<path d="M0 0 C0.66 0.33 1.32 0.66 2 1 C2.1875 3.375 2.1875 3.375 2 6 C1.01 6.66 0.02 7.32 -1 8 C-1.73343428 11.06556598 -1.73343428 11.06556598 -2 14 C-3.98 14 -5.96 14 -8 14 C-7.34 13.67 -6.68 13.34 -6 13 C-6 12.34 -6 11.68 -6 11 C-6.66 10.67 -7.32 10.34 -8 10 C-7.38640625 9.75507813 -6.7728125 9.51015625 -6.140625 9.2578125 C-3.57364433 7.74947715 -2.96142096 6.55743212 -1.75 3.875 C-1.41484375 3.15054688 -1.0796875 2.42609375 -0.734375 1.6796875 C-0.49203125 1.12539062 -0.2496875 0.57109375 0 0 Z " fill="#26292B" transform="translate(235,173)"/>
<path d="M0 0 C2.31 0 4.62 0 7 0 C7 0.66 7 1.32 7 2 C7.66 2 8.32 2 9 2 C9.33 3.32 9.66 4.64 10 6 C8.906875 5.649375 7.81375 5.29875 6.6875 4.9375 C3.09079627 3.66960546 3.09079627 3.66960546 0 5 C-0.33 7.31 -0.66 9.62 -1 12 C-1.33 12 -1.66 12 -2 12 C-2.28571429 3.42857143 -2.28571429 3.42857143 0 0 Z " fill="#1D3440" transform="translate(96,139)"/>
<path d="M0 0 C1.32 0.66 2.64 1.32 4 2 C3.01 2.33 2.02 2.66 1 3 C0.67 4.65 0.34 6.3 0 8 C1.65 8 3.3 8 5 8 C5 8.33 5 8.66 5 9 C2.87527424 9.05386629 0.75016348 9.09273071 -1.375 9.125 C-3.15003906 9.15980469 -3.15003906 9.15980469 -4.9609375 9.1953125 C-8 9 -8 9 -10 7 C-8.02 7 -6.04 7 -4 7 C-4.33 6.34 -4.66 5.68 -5 5 C-3.35 3.35 -1.7 1.7 0 0 Z " fill="#253540" transform="translate(416,402)"/>
<path d="M0 0 C0.33 0 0.66 0 1 0 C1.33 4.62 1.66 9.24 2 14 C0.68 14.33 -0.64 14.66 -2 15 C-2.21755666 9.5610835 -2.10428384 5.12919186 0 0 Z " fill="#1D353D" transform="translate(132,376)"/>
<path d="M0 0 C0.598125 0.185625 1.19625 0.37125 1.8125 0.5625 C4.16408762 1.22093687 4.16408762 1.22093687 7 0 C7 0.99 7 1.98 7 3 C7.66 3 8.32 3 9 3 C9.33 3.66 9.66 4.32 10 5 C10.66 4.67 11.32 4.34 12 4 C12 4.99 12 5.98 12 7 C8.04 7 4.08 7 0 7 C0 6.67 0 6.34 0 6 C2.64 6 5.28 6 8 6 C8 5.34 8 4.68 8 4 C5.36 4.33 2.72 4.66 0 5 C0 3.35 0 1.7 0 0 Z " fill="#0C1823" transform="translate(314,402)"/>
<path d="M0 0 C1.32 0.33 2.64 0.66 4 1 C3.875 3.3125 3.875 3.3125 3 6 C-0.0625 7.8125 -0.0625 7.8125 -3 9 C-3.66 8.01 -4.32 7.02 -5 6 C-4.34 5.67 -3.68 5.34 -3 5 C-1.9590934 3.35857037 -0.95495674 1.69287785 0 0 Z " fill="#12191C" transform="translate(254,176)"/>
<path d="M0 0 C0.9880383 3.61457345 1.3673245 7.15756127 1.71875 10.87890625 C1.9565083 13.18416348 1.9565083 13.18416348 3 16 C3.66 16 4.32 16 5 16 C4.67 16.99 4.34 17.98 4 19 C3.34 19 2.68 19 2 19 C1.87625 18.360625 1.7525 17.72125 1.625 17.0625 C1.41875 16.381875 1.2125 15.70125 1 15 C0.34 14.67 -0.32 14.34 -1 14 C-1.93385816 11.19842552 -2.16354595 9.34552197 -2.1875 6.4375 C-2.20167969 5.65246094 -2.21585937 4.86742187 -2.23046875 4.05859375 C-2 2 -2 2 0 0 Z " fill="#2E4A55" transform="translate(100,381)"/>
<path d="M0 0 C2.38564077 0.57584432 4.66682784 1.22227595 7 2 C7.6875 4.0625 7.6875 4.0625 8 6 C6.02 6 4.04 6 2 6 C1.67 6.66 1.34 7.32 1 8 C-2 4.25 -2 4.25 -2 2 C-1.34 2 -0.68 2 0 2 C0 1.34 0 0.68 0 0 Z " fill="#0D1720" transform="translate(170,367)"/>
<path d="M0 0 C0.33 1.32 0.66 2.64 1 4 C1.66 4 2.32 4 3 4 C3.33 5.65 3.66 7.3 4 9 C3.43796875 8.83628906 2.8759375 8.67257812 2.296875 8.50390625 C-0.13059056 7.97135003 -2.26889681 7.90101319 -4.75 7.9375 C-5.94882812 7.95103516 -5.94882812 7.95103516 -7.171875 7.96484375 C-8.07679687 7.98224609 -8.07679687 7.98224609 -9 8 C-9 7.01 -9 6.02 -9 5 C-7.8553125 5.0309375 -7.8553125 5.0309375 -6.6875 5.0625 C-3.89814214 5.12942841 -3.89814214 5.12942841 -1 4 C-0.26676204 1.98491642 -0.26676204 1.98491642 0 0 Z " fill="#1F3542" transform="translate(63,366)"/>
<path d="M0 0 C0.33 0 0.66 0 1 0 C0.96605559 7.97693681 -1.15503009 13.63856736 -6 20 C-6.66 20.33 -7.32 20.66 -8 21 C-8 19.68 -8 18.36 -8 17 C-7.34 17 -6.68 17 -6 17 C-5.67 15.68 -5.34 14.36 -5 13 C-4.34 13 -3.68 13 -3 13 C-3 11.68 -3 10.36 -3 9 C-2.34 9 -1.68 9 -1 9 C-1.020625 7.700625 -1.04125 6.40125 -1.0625 5.0625 C-1.08399454 3.70834367 -1.07148199 2.35243917 -1 1 C-0.67 0.67 -0.34 0.34 0 0 Z " fill="#2D4F5D" transform="translate(370,302)"/>
<path d="M0 0 C0.66 0.33 1.32 0.66 2 1 C2 2.98 2 4.96 2 7 C-1.00272755 7.96516243 -3.04215769 8.22393475 -6 7 C-6.33 6.01 -6.66 5.02 -7 4 C-1.7265625 0.77734375 -1.7265625 0.77734375 0 0 Z " fill="#E4DACC" transform="translate(255,182)"/>
<path d="M0 0 C1.65 0 3.3 0 5 0 C4.67 1.98 4.34 3.96 4 6 C3.01 6 2.02 6 1 6 C-0.34789347 6.98028616 -1.68212715 7.97971135 -3 9 C-3.66 9 -4.32 9 -5 9 C-5 8.34 -5 7.68 -5 7 C-4.34 7 -3.68 7 -3 7 C-2.690625 6.21625 -2.38125 5.4325 -2.0625 4.625 C-1 2 -1 2 0 0 Z " fill="#0D1820" transform="translate(43,370)"/>
<path d="M0 0 C0.99 0.33 1.98 0.66 3 1 C6.0011166 7.11338567 6.37292605 12.25970691 6 19 C5.34 19.33 4.68 19.66 4 20 C3.96261719 19.19175781 3.92523438 18.38351563 3.88671875 17.55078125 C3.82097656 16.48214844 3.75523437 15.41351563 3.6875 14.3125 C3.62949219 13.25675781 3.57148438 12.20101562 3.51171875 11.11328125 C2.95905757 7.7509075 1.80742503 5.84439275 0 3 C0 2.01 0 1.02 0 0 Z " fill="#458AB6" transform="translate(419,144)"/>
<path d="M0 0 C0.99 1.32 1.98 2.64 3 4 C7.84688192 3.21824485 12.3766367 1.60155722 17 0 C13.61831569 3.68006822 10.57478244 5.9785845 6 8 C3 6.25 3 6.25 0 4 C0 2.68 0 1.36 0 0 Z " fill="#32495A" transform="translate(188,67)"/>
<path d="M0 0 C4.40114397 0.50298788 6.71195019 2.08772731 10 5 C9.67 6.32 9.34 7.64 9 9 C8.01 9 7.02 9 6 9 C2 4.77142857 2 4.77142857 2 1 C1.34 0.67 0.68 0.34 0 0 Z " fill="#1F3542" transform="translate(66,363)"/>
<path d="M0 0 C2.22825644 2.22825644 2.69239369 3.65761628 3.625 6.625 C3.88539063 7.44226563 4.14578125 8.25953125 4.4140625 9.1015625 C4.60742188 9.72804687 4.80078125 10.35453125 5 11 C2 11 2 11 -0.1875 9.3125 C-2.31050198 6.6038423 -2.37254569 5.35291118 -2 2 C-1.34 2 -0.68 2 0 2 C0 1.34 0 0.68 0 0 Z " fill="#223242" transform="translate(340,202)"/>
<path d="M0 0 C2.97 0.495 2.97 0.495 6 1 C6 1.99 6 2.98 6 4 C1.78103134 6.04898287 -1.65372146 6.21207997 -6.3125 6.125 C-7.56675781 6.10695313 -8.82101562 6.08890625 -10.11328125 6.0703125 C-11.06589844 6.04710937 -12.01851563 6.02390625 -13 6 C-13 5.67 -13 5.34 -13 5 C-8.71 5 -4.42 5 0 5 C-0.33 4.01 -0.66 3.02 -1 2 C-0.67 1.34 -0.34 0.68 0 0 Z " fill="#29404E" transform="translate(285,405)"/>
<path d="M0 0 C0.5775 0.226875 1.155 0.45375 1.75 0.6875 C-0.22750368 3.21431026 -1.03548996 3.66123346 -4.3125 4.0625 C-5.281875 4.26875 -6.25125 4.475 -7.25 4.6875 C-8.60336433 6.9870961 -8.60336433 6.9870961 -9.25 9.6875 C-9.90213539 11.02800052 -10.56379969 12.36411368 -11.25 13.6875 C-11.91 13.6875 -12.57 13.6875 -13.25 13.6875 C-11.96557825 8.66657861 -10.12411577 6.10041151 -6.25 2.6875 C-5.2290625 1.759375 -5.2290625 1.759375 -4.1875 0.8125 C-2.25 -0.3125 -2.25 -0.3125 0 0 Z " fill="#496370" transform="translate(51.25,363.3125)"/>
<path d="M0 0 C1.5625 1.0625 1.5625 1.0625 3 3 C2.66666667 9.33333333 2.66666667 9.33333333 0 12 C-3.125 12.125 -3.125 12.125 -6 12 C-5.195625 11.13375 -4.39125 10.2675 -3.5625 9.375 C-1.03075864 6.37123907 -0.28342624 3.96796738 0 0 Z " fill="#EBE8DF" transform="translate(280,141)"/>
<path d="M0 0 C3.3 0 6.6 0 10 0 C9.34 2.64 8.68 5.28 8 8 C7.67 7.34 7.34 6.68 7 6 C6.01 5.67 5.02 5.34 4 5 C3.67 4.01 3.34 3.02 3 2 C3.99 1.67 4.98 1.34 6 1 C4.35 1 2.7 1 1 1 C0.67 1.66 0.34 2.32 0 3 C0 2.01 0 1.02 0 0 Z M3 6 C3.66 6 4.32 6 5 6 C4.67 6.66 4.34 7.32 4 8 C3.67 7.34 3.34 6.68 3 6 Z " fill="#081620" transform="translate(357,364)"/>
<path d="M0 0 C2.06850491 3.10275737 2.78558082 5.4099217 3.6875 9 C3.95949219 10.051875 4.23148437 11.10375 4.51171875 12.1875 C5 15 5 15 4 18 C3.32694982 16.39850114 2.66177773 14.79368971 2 13.1875 C1.62875 12.29417969 1.2575 11.40085937 0.875 10.48046875 C0 8 0 8 0 5 C-0.66 4.67 -1.32 4.34 -2 4 C-1.34 2.68 -0.68 1.36 0 0 Z " fill="#1D414D" transform="translate(364,255)"/>
<path d="M0 0 C0.99 0.66 1.98 1.32 3 2 C3 5 3 5 2 7 C-0.31 7 -2.62 7 -5 7 C-4.67 5.35 -4.34 3.7 -4 2 C-2.68 2 -1.36 2 0 2 C0 1.34 0 0.68 0 0 Z " fill="#0E1720" transform="translate(268,379)"/>
<path d="M0 0 C0.99 0 1.98 0 3 0 C3.66 2.31 4.32 4.62 5 7 C2.69 7.33 0.38 7.66 -2 8 C-1.125 1.125 -1.125 1.125 0 0 Z " fill="#09191F" transform="translate(455,349)"/>
<path d="M0 0 C0.66 0.33 1.32 0.66 2 1 C2 2.65 2 4.3 2 6 C-1.96 6 -5.92 6 -10 6 C-10 5.34 -10 4.68 -10 4 C-6.97265625 3.75585938 -6.97265625 3.75585938 -3.9453125 3.51171875 C-1.60480784 3.12606964 -1.60480784 3.12606964 0 0 Z " fill="#163240" transform="translate(295,371)"/>
<path d="M0 0 C0.66 0 1.32 0 2 0 C2.33 2.31 2.66 4.62 3 7 C2.360625 7.103125 1.72125 7.20625 1.0625 7.3125 C0.381875 7.539375 -0.29875 7.76625 -1 8 C-1.33 8.99 -1.66 9.98 -2 11 C-2.99 11 -3.98 11 -5 11 C-4.4039572 7.32440274 -3.74227152 4.74227152 -1 2 C-0.67 1.34 -0.34 0.68 0 0 Z " fill="#0B171F" transform="translate(125,368)"/>
<path d="M0 0 C2.97 0 5.94 0 9 0 C9 0.99 9 1.98 9 3 C8.67 2.34 8.34 1.68 8 1 C6.68 2.32 5.36 3.64 4 5 C4 4.34 4 3.68 4 3 C3.34 3 2.68 3 2 3 C1.67 3.66 1.34 4.32 1 5 C0.34 4.67 -0.32 4.34 -1 4 C-0.67 2.68 -0.34 1.36 0 0 Z " fill="#1B3340" transform="translate(242,343)"/>
<path d="M0 0 C3.3 0.33 6.6 0.66 10 1 C10 1.33 10 1.66 10 2 C13.96 2 17.92 2 22 2 C19.16546061 4.83453939 17.20098712 4.29999688 13.25 4.3125 C12.03828125 4.32925781 10.8265625 4.34601563 9.578125 4.36328125 C5.74432384 3.97404161 3.3081494 2.92298868 0 1 C0 0.67 0 0.34 0 0 Z " fill="#345360" transform="translate(148,407)"/>
<path d="M0 0 C2.62113708 0 4.50935112 0.31292445 7 1 C7 1.66 7 2.32 7 3 C8.32 3.66 9.64 4.32 11 5 C6.71 5 2.42 5 -2 5 C-2.33 4.01 -2.66 3.02 -3 2 C-2.01 2 -1.02 2 0 2 C0 1.34 0 0.68 0 0 Z " fill="#2B4453" transform="translate(315,405)"/>
<path d="M0 0 C3.63 0 7.26 0 11 0 C11.33 0.66 11.66 1.32 12 2 C11.22265625 3.9453125 11.22265625 3.9453125 10.0625 6.125 C9.68222656 6.84945313 9.30195313 7.57390625 8.91015625 8.3203125 C8.60980469 8.87460937 8.30945313 9.42890625 8 10 C7.67 10 7.34 10 7 10 C6.75 4.375 6.75 4.375 9 1 C6.03 1 3.06 1 0 1 C0 0.67 0 0.34 0 0 Z " fill="#415F6B" transform="translate(170,395)"/>
<path d="M0 0 C0 0.66 0 1.32 0 2 C2.97 3.485 2.97 3.485 6 5 C6 5.99 6 6.98 6 8 C0.95806174 6.47569308 -3.23856995 4.76143005 -7 1 C-4.53721199 -0.231394 -2.7204945 -0.07159196 0 0 Z " fill="#242728" transform="translate(214,224)"/>
<path d="M0 0 C3.625 0.375 3.625 0.375 7 1 C7.33 1.99 7.66 2.98 8 4 C3.545 4.495 3.545 4.495 -1 5 C-1.33 4.01 -1.66 3.02 -2 2 C-1.34 1.34 -0.68 0.68 0 0 Z " fill="#242829" transform="translate(271,137)"/>
<path d="M0 0 C0.66 0.33 1.32 0.66 2 1 C2 3.97 2 6.94 2 10 C1.34 10 0.68 10 0 10 C0 10.66 0 11.32 0 12 C-2.70879335 13.35439668 -5.00933268 13.06501451 -8 13 C-4.25 10 -4.25 10 -2 10 C-1.34 6.7 -0.68 3.4 0 0 Z " fill="#315061" transform="translate(461,345)"/>
<path d="M0 0 C0.99 0.33 1.98 0.66 3 1 C4.37407134 3.85384047 3.95284958 5.1634548 3.0625 8.25 C2.711875 9.1575 2.36125 10.065 2 11 C-0.46278801 8.53721199 -0.99771255 6.29323018 -2 3 C-1.01 3 -0.02 3 1 3 C0.67 2.01 0.34 1.02 0 0 Z " fill="#192231" transform="translate(458,343)"/>
<path d="M0 0 C0.33 0.66 0.66 1.32 1 2 C0.67 2.66 0.34 3.32 0 4 C1.65 3.34 3.3 2.68 5 2 C4.67 2.763125 4.34 3.52625 4 4.3125 C2.82563314 6.99069135 2.82563314 6.99069135 3 10 C4.65 10 6.3 10 8 10 C8 10.33 8 10.66 8 11 C5.1875 11.3125 5.1875 11.3125 2 11 C-0.2390649 8.38775761 -0.93898222 6.67119555 -1.25 3.25 C-1 1 -1 1 0 0 Z " fill="#D3CFC5" transform="translate(241,170)"/>
<path d="M0 0 C3.63 0 7.26 0 11 0 C11 0.99 11 1.98 11 3 C9.906875 3.12375 8.81375 3.2475 7.6875 3.375 C3.92618198 3.75464801 3.92618198 3.75464801 1 6 C0.67 4.02 0.34 2.04 0 0 Z " fill="#172E3B" transform="translate(241,363)"/>
<path d="M0 0 C1.21236328 0.01353516 1.21236328 0.01353516 2.44921875 0.02734375 C3.37154297 0.04474609 3.37154297 0.04474609 4.3125 0.0625 C4.3125 0.7225 4.3125 1.3825 4.3125 2.0625 C0.94152617 3.56071059 -0.89192119 4.0625 -4.6875 4.0625 C-4.6875 3.4025 -4.6875 2.7425 -4.6875 2.0625 C-6.0075 2.3925 -7.3275 2.7225 -8.6875 3.0625 C-6.88341097 -0.54567807 -3.60175697 -0.05219938 0 0 Z " fill="#263B48" transform="translate(110.6875,361.9375)"/>
<path d="M0 0 C0.33 0.66 0.66 1.32 1 2 C0.34 2 -0.32 2 -1 2 C-1.28875 2.78375 -1.5775 3.5675 -1.875 4.375 C-3 7 -3 7 -5 9 C-6.32 7.68 -7.64 6.36 -9 5 C-6.03 3.35 -3.06 1.7 0 0 Z " fill="#DDD8CD" transform="translate(258,230)"/>
<path d="M0 0 C1.21065165 3.63195496 0.62784815 5.06531629 -0.4375 8.6875 C-0.72496094 9.68136719 -1.01242187 10.67523438 -1.30859375 11.69921875 C-1.53675781 12.45847656 -1.76492188 13.21773438 -2 14 C-2.33 14 -2.66 14 -3 14 C-3.12375 13.030625 -3.2475 12.06125 -3.375 11.0625 C-3.58125 10.051875 -3.7875 9.04125 -4 8 C-4.66 7.67 -5.32 7.34 -6 7 C-5 5 -5 5 -2 4 C-0.79117904 1.99983534 -0.79117904 1.99983534 0 0 Z " fill="#2B434F" transform="translate(366,366)"/>
<path d="M0 0 C3.97256398 2.09663099 6.43898489 4.30075595 9 8 C9 8.66 9 9.32 9 10 C8.01 10 7.02 10 6 10 C2 5.77142857 2 5.77142857 2 2 C1.34 2 0.68 2 0 2 C0 1.34 0 0.68 0 0 Z " fill="#2F4754" transform="translate(116,136)"/>
<path d="M0 0 C0.66 0 1.32 0 2 0 C2.04254356 1.99954746 2.04080783 4.00041636 2 6 C1 7 1 7 -1.5625 7.0625 C-2.7690625 7.0315625 -2.7690625 7.0315625 -4 7 C-3.67 5.35 -3.34 3.7 -3 2 C-2.01 2 -1.02 2 0 2 C0 1.34 0 0.68 0 0 Z " fill="#0D1821" transform="translate(420,403)"/>
<path d="M0 0 C3.63 0 7.26 0 11 0 C10.67 0.66 10.34 1.32 10 2 C8.33499557 2.34153937 6.66821323 2.67449498 5 3 C4.34 3.66 3.68 4.32 3 5 C2.01 4.34 1.02 3.68 0 3 C0 2.01 0 1.02 0 0 Z " fill="#071823" transform="translate(300,364)"/>
<path d="M0 0 C0.66 0.33 1.32 0.66 2 1 C2 1.99 2 2.98 2 4 C0 6 -2 8 -4 10 C-4.8125 7.8125 -4.8125 7.8125 -5 5 C-2.5625 2.1875 -2.5625 2.1875 0 0 Z " fill="#24272A" transform="translate(265,256)"/>
<path d="M0 0 C0.99 0.33 1.98 0.66 3 1 C2.67 1.33 2.34 1.66 2 2 C1.76518307 4.18292774 1.58636677 6.37203174 1.4375 8.5625 C1.31181641 10.35880859 1.31181641 10.35880859 1.18359375 12.19140625 C1.12300781 13.11824219 1.06242187 14.04507813 1 15 C0.34 14.67 -0.32 14.34 -1 14 C-1.02685938 11.85423363 -1.04633088 9.70837355 -1.0625 7.5625 C-1.07410156 6.36753906 -1.08570312 5.17257813 -1.09765625 3.94140625 C-1 1 -1 1 0 0 Z " fill="#2A4152" transform="translate(111,136)"/>
<path d="M0 0 C2.475 0.495 2.475 0.495 5 1 C5 1.66 5 2.32 5 3 C5.66 3 6.32 3 7 3 C5.25 8.75 5.25 8.75 3 11 C1.84058962 7.52176885 2.29179116 5.54104422 3 2 C2.01 1.34 1.02 0.68 0 0 Z " fill="#304B57" transform="translate(151,104)"/>
<path d="M0 0 C0.66 0 1.32 0 2 0 C2.33 1.32 2.66 2.64 3 4 C3.66 4 4.32 4 5 4 C5 4.66 5 5.32 5 6 C6.32 6.33 7.64 6.66 9 7 C8.34 7.66 7.68 8.32 7 9 C2.36285097 7.53563715 2.36285097 7.53563715 0.6875 5.0625 C0 3 0 3 0 0 Z " fill="#253F50" transform="translate(48,393)"/>
<path d="M0 0 C0.99 0.33 1.98 0.66 3 1 C2.04270084 2.12588014 1.08412105 3.2506715 0.125 4.375 C-0.40867188 5.00148437 -0.94234375 5.62796875 -1.4921875 6.2734375 C-2.61432007 7.55836651 -3.79371975 8.79371975 -5 10 C-5.66 9.34 -6.32 8.68 -7 8 C-5.6875 6 -5.6875 6 -4 4 C-3.01 4 -2.02 4 -1 4 C-0.67 2.68 -0.34 1.36 0 0 Z " fill="#1B1D22" transform="translate(218,143)"/>
<path d="M0 0 C0.33 0 0.66 0 1 0 C2.19088986 5.38027025 3.2919519 10.45291384 3 16 C2.67 16 2.34 16 2 16 C2 14.35 2 12.7 2 11 C1.01 10.67 0.02 10.34 -1 10 C-0.67 6.7 -0.34 3.4 0 0 Z " fill="#324B5D" transform="translate(326,137)"/>
<path d="M0 0 C3.63 0.33 7.26 0.66 11 1 C8.2134483 3.7865517 5.84575573 3.65662895 2 4 C1.34 3.67 0.68 3.34 0 3 C0 2.01 0 1.02 0 0 Z " fill="#2C4653" transform="translate(306,50)"/>
<path d="M0 0 C0.33 0.66 0.66 1.32 1 2 C3.58605332 2.4683265 3.58605332 2.4683265 6.5625 2.625 C8.08037109 2.73714844 8.08037109 2.73714844 9.62890625 2.8515625 C10.80259766 2.92503906 10.80259766 2.92503906 12 3 C12 3.33 12 3.66 12 4 C10.08404032 4.08133791 8.16708068 4.13934367 6.25 4.1875 C4.64898437 4.23970703 4.64898437 4.23970703 3.015625 4.29296875 C-0.30027855 3.97082786 -1.59016673 3.22851086 -4 1 C-2.68 0.67 -1.36 0.34 0 0 Z " fill="#2B4B57" transform="translate(107,407)"/>
<path d="M0 0 C1.125 1.625 1.125 1.625 2 4 C1.125 7.25 1.125 7.25 0 10 C0.66 10.33 1.32 10.66 2 11 C1.34 11 0.68 11 0 11 C-0.33 11.99 -0.66 12.98 -1 14 C-1.33 14 -1.66 14 -2 14 C-1.03644647 4.58997722 -1.03644647 4.58997722 0 0 Z " fill="#304351" transform="translate(324,375)"/>
<path d="M0 0 C2.4375 1.4375 2.4375 1.4375 3.25 4.5625 C3.311875 5.51125 3.37375 6.46 3.4375 7.4375 C2.9425 6.756875 2.9425 6.756875 2.4375 6.0625 C-0.6002843 3.59430026 -3.75437061 3.24906856 -7.5625 2.4375 C-2.93864679 -0.64506881 -2.93864679 -0.64506881 0 0 Z " fill="#3C535F" transform="translate(214.5625,370.5625)"/>
<path d="M0 0 C4.13394782 2.06697391 5.23366131 2.87854305 7 7 C6.34 8.32 5.68 9.64 5 11 C3.35 7.37 1.7 3.74 0 0 Z " fill="#2D4657" transform="translate(89,206)"/>
<path d="M0 0 C0.33 0 0.66 0 1 0 C1.18451025 10.55808656 1.18451025 10.55808656 0 15 C-0.33 15 -0.66 15 -1 15 C-1.91147322 10.03753471 -1.99130954 5.95654768 -1 1 C-0.67 0.67 -0.34 0.34 0 0 Z " fill="#C0BDB5" transform="translate(267,168)"/>
<path d="M0 0 C6.51791392 -0.3540919 11.17521449 -0.03901852 17 3 C16.01 3.495 16.01 3.495 15 4 C14.67 4.66 14.34 5.32 14 6 C13.34 5.67 12.68 5.34 12 5 C12 4.01 12 3.02 12 2 C8.04 1.67 4.08 1.34 0 1 C0 0.67 0 0.34 0 0 Z " fill="#539FC1" transform="translate(399,136)"/>
<path d="M0 0 C0.66 0.33 1.32 0.66 2 1 C1.34 2.65 0.68 4.3 0 6 C-0.66 6 -1.32 6 -2 6 C-2 7.98 -2 9.96 -2 12 C-4 9 -4 9 -3.8125 6.5625 C-2.95218569 3.84920103 -1.83477535 2.15386671 0 0 Z " fill="#3E5863" transform="translate(451,343)"/>
<path d="M0 0 C1.32 0.33 2.64 0.66 4 1 C2.63016497 4.16115776 2.0109362 4.9927092 -1 7 C-1.66 6.67 -2.32 6.34 -3 6 C-2 4 -1 2 0 0 Z " fill="#DED9CE" transform="translate(267,249)"/>
<path d="M0 0 C1.8125 0.8125 1.8125 0.8125 2.8125 2.8125 C1.6678125 2.68875 1.6678125 2.68875 0.5 2.5625 C-2.31843112 2.51293969 -2.31843112 2.51293969 -3.875 4.75 C-4.308125 5.430625 -4.74125 6.11125 -5.1875 6.8125 C-6.1775 7.3075 -6.1775 7.3075 -7.1875 7.8125 C-6.85503345 4.73718444 -6.55645244 3.19417494 -4.375 0.9375 C-2.1875 -0.1875 -2.1875 -0.1875 0 0 Z " fill="#355E6B" transform="translate(89.1875,147.1875)"/>
<path d="M0 0 C1.98 0.66 3.96 1.32 6 2 C4.71034824 3.37562854 3.37310707 4.70766393 2 6 C1.34 6 0.68 6 0 6 C0 4.02 0 2.04 0 0 Z " fill="#263B4A" transform="translate(171,403)"/>
<path d="M0 0 C0.598125 0.165 1.19625 0.33 1.8125 0.5 C4.11344336 1.1114124 4.11344336 1.1114124 7 1 C6.67 2.65 6.34 4.3 6 6 C3.37812506 4.95125002 2.20628639 4.35068687 0.75 1.875 C0.5025 1.25625 0.255 0.6375 0 0 Z " fill="#2E424F" transform="translate(142,401)"/>
<path d="M0 0 C0.33 0 0.66 0 1 0 C2.13764351 4.26616316 3 7.56486311 3 12 C2.34 12 1.68 12 1 12 C-1.83022097 8.00439392 -0.76210446 4.57262677 0 0 Z " fill="#405B68" transform="translate(341,366)"/>
<path d="M0 0 C2.99332739 0.9977758 3.94766315 1.7522025 6 4 C5.67 4.99 5.34 5.98 5 7 C5 6.34 5 5.68 5 5 C2.69 4.67 0.38 4.34 -2 4 C-1.34 2.68 -0.68 1.36 0 0 Z " fill="#0C1921" transform="translate(150,365)"/>
<path d="M0 0 C1.32 0 2.64 0 4 0 C6.09230769 4.43076923 6.09230769 4.43076923 5.625 7.3125 C5.41875 7.869375 5.2125 8.42625 5 9 C4.34 7.35 3.68 5.7 3 4 C2.34 4 1.68 4 1 4 C0.67 2.68 0.34 1.36 0 0 Z " fill="#264350" transform="translate(97,220)"/>
<path d="M0 0 C0.66 0 1.32 0 2 0 C3.57312496 3.67062491 4.14440048 5.44302674 3.125 9.375 C2.75375 10.24125 2.3825 11.1075 2 12 C1.67 12 1.34 12 1 12 C0.67 8.04 0.34 4.08 0 0 Z " fill="#213D4C" transform="translate(81,173)"/>
<path d="M0 0 C0.33 0 0.66 0 1 0 C1.22174933 1.45635371 1.42698698 2.91522956 1.625 4.375 C1.74101562 5.18710937 1.85703125 5.99921875 1.9765625 6.8359375 C1.98429688 7.55007813 1.99203125 8.26421875 2 9 C1.34 9.66 0.68 10.32 0 11 C0 10.34 0 9.68 0 9 C-0.66 9 -1.32 9 -2 9 C-1.34 6.03 -0.68 3.06 0 0 Z " fill="#2D434F" transform="translate(181,379)"/>
<path d="M0 0 C3.96 0.33 7.92 0.66 12 1 C11.67 2.98 11.34 4.96 11 7 C9.948125 6.071875 9.948125 6.071875 8.875 5.125 C5.94222819 2.9572991 3.48817594 1.97344445 0 1 C0 0.67 0 0.34 0 0 Z " fill="#496576" transform="translate(109,372)"/>
<path d="M0 0 C4.875 2.75 4.875 2.75 6 5 C6.66 5.33 7.32 5.66 8 6 C6.35 6.33 4.7 6.66 3 7 C0 2.25 0 2.25 0 0 Z " fill="#F0E7DA" transform="translate(209,181)"/>
<path d="M0 0 C0.66 0.33 1.32 0.66 2 1 C0.625 2.5 0.625 2.5 -1 4 C-1.66 4 -2.32 4 -3 4 C-3.33 4.99 -3.66 5.98 -4 7 C-5.32 7 -6.64 7 -8 7 C-8 6.34 -8 5.68 -8 5 C-6.3203125 3.67578125 -6.3203125 3.67578125 -4.125 2.3125 C-3.40570313 1.85488281 -2.68640625 1.39726563 -1.9453125 0.92578125 C-1.30335938 0.62027344 -0.66140625 0.31476562 0 0 Z " fill="#3C5663" transform="translate(299,52)"/>
<path d="M0 0 C0.33 0.66 0.66 1.32 1 2 C0.01 2.495 0.01 2.495 -1 3 C-0.67 3.66 -0.34 4.32 0 5 C-1.32 5 -2.64 5 -4 5 C-4 4.34 -4 3.68 -4 3 C-6.97 2.505 -6.97 2.505 -10 2 C-6.67395049 0.89131683 -3.46941546 0.45822468 0 0 Z " fill="#3B5265" transform="translate(116,398)"/>
<path d="M0 0 C1.98 0.66 3.96 1.32 6 2 C6 3.65 6 5.3 6 7 C3.95880212 5.38405168 1.95927063 3.7143618 0 2 C0 1.34 0 0.68 0 0 Z " fill="#DBD8CE" transform="translate(187,233)"/>
<path d="M0 0 C2.125 0.375 2.125 0.375 4 1 C3.67 2.65 3.34 4.3 3 6 C2.34 5.67 1.68 5.34 1 5 C1 4.34 1 3.68 1 3 C0.01 2.67 -0.98 2.34 -2 2 C-1.34 1.34 -0.68 0.68 0 0 Z " fill="#202325" transform="translate(254,176)"/>
<path d="M0 0 C1.16095535 2.84961767 1.06567925 3.83945073 -0.125 6.75 C-2 9 -2 9 -4.6875 9.3125 C-5.450625 9.209375 -6.21375 9.10625 -7 9 C-6.38125 8.7525 -5.7625 8.505 -5.125 8.25 C-1.74963396 6.26449057 -1.2020372 3.60611161 0 0 Z " fill="#F0ECE4" transform="translate(234,171)"/>
<path d="M0 0 C0.33 0.66 0.66 1.32 1 2 C0.22265625 4.1640625 0.22265625 4.1640625 -0.9375 6.625 C-1.31777344 7.44226563 -1.69804687 8.25953125 -2.08984375 9.1015625 C-2.39019531 9.72804687 -2.69054687 10.35453125 -3 11 C-3.33 11 -3.66 11 -4 11 C-4.36630156 7.06225823 -4.30233203 5.43460229 -2 2.125 C-1.34 1.42375 -0.68 0.7225 0 0 Z " fill="#D4D5D3" transform="translate(271,133)"/>
<path d="M0 0 C2 1.125 2 1.125 4 3 C4.25 6.1875 4.25 6.1875 4 9 C3.731875 8.360625 3.46375 7.72125 3.1875 7.0625 C2.11332248 4.66868314 2.11332248 4.66868314 -1 4 C-0.67 2.68 -0.34 1.36 0 0 Z " fill="#D5D3CD" transform="translate(204,133)"/>
<path d="M0 0 C0.66 0 1.32 0 2 0 C2.66 2.64 3.32 5.28 4 8 C3.01 8.495 3.01 8.495 2 9 C0.14223235 5.86501708 -0.20140476 3.62528568 0 0 Z " fill="#294250" transform="translate(139,392)"/>
<path d="M0 0 C1 2 1 2 0.0625 5.125 C-0.288125 6.07375 -0.63875 7.0225 -1 8 C-1.66 7.67 -2.32 7.34 -3 7 C-3 5.02 -3 3.04 -3 1 C-2.01 0.67 -1.02 0.34 0 0 Z " fill="#2C4350" transform="translate(359,392)"/>
<path d="M0 0 C1.32 0.99 2.64 1.98 4 3 C3.38125 3.0825 2.7625 3.165 2.125 3.25 C-0.18437567 3.81258459 -0.18437567 3.81258459 -1.25 6.0625 C-1.4975 6.701875 -1.745 7.34125 -2 8 C-2.6875 5.6875 -2.6875 5.6875 -3 3 C-1.5625 1.1875 -1.5625 1.1875 0 0 Z " fill="#2A4954" transform="translate(203,371)"/>
<path d="M0 0 C-0.33 0.99 -0.66 1.98 -1 3 C-1.66 2.67 -2.32 2.34 -3 2 C-7.65275976 1.6947378 -7.65275976 1.6947378 -12 3 C-12 2.01 -12 1.02 -12 0 C-10.37585622 -0.19477739 -8.75063577 -0.38059458 -7.125 -0.5625 C-6.22007812 -0.66691406 -5.31515625 -0.77132813 -4.3828125 -0.87890625 C-2 -1 -2 -1 0 0 Z " fill="#3C5462" transform="translate(284,371)"/>
<path d="M0 0 C0 0.33 0 0.66 0 1 C-1.11375 1.309375 -2.2275 1.61875 -3.375 1.9375 C-6.7945155 2.82326483 -6.7945155 2.82326483 -9 4 C-9 2.35 -9 0.7 -9 -1 C-5.23375329 -2.25541557 -3.62811066 -1.37061958 0 0 Z " fill="#314253" transform="translate(163,371)"/>
<path d="M0 0 C2.86724686 0.57344937 3.8614515 0.8614515 6 3 C5.625 5.125 5.625 5.125 5 7 C3.29115995 5.37660195 1.62553283 3.70680947 0 2 C0 1.34 0 0.68 0 0 Z " fill="#E2DDD3" transform="translate(213,258)"/>
<path d="M0 0 C1.32 0.66 2.64 1.32 4 2 C3.67 3.32 3.34 4.64 3 6 C1.68 5.34 0.36 4.68 -1 4 C-0.67 2.68 -0.34 1.36 0 0 Z " fill="#1A1D1E" transform="translate(218,175)"/>
<path d="M0 0 C2.86724686 0.57344937 3.8614515 0.8614515 6 3 C6.26991906 5.68839385 6.08737357 8.29141936 6 11 C5.67 11 5.34 11 5 11 C5 8.69 5 6.38 5 4 C4.360625 3.896875 3.72125 3.79375 3.0625 3.6875 C2.381875 3.460625 1.70125 3.23375 1 3 C0.67 2.01 0.34 1.02 0 0 Z " fill="#2B2E2C" transform="translate(245,152)"/>
<path d="M0 0 C-2.52788007 2.79872437 -4.20411134 4.45773019 -8 5 C-8 3 -8 3 -6.8125 1.375 C-4.44439338 -0.42149467 -2.90102749 -0.23521845 0 0 Z " fill="#274251" transform="translate(75,405)"/>
<path d="M0 0 C0.33 0 0.66 0 1 0 C1.05422947 1.4370809 1.09289723 2.87475462 1.125 4.3125 C1.14820313 5.11300781 1.17140625 5.91351563 1.1953125 6.73828125 C1 9 1 9 -1 12 C-1.99 11.67 -2.98 11.34 -4 11 C-3.34 10.01 -2.68 9.02 -2 8 C-1.34 8 -0.68 8 0 8 C0 5.36 0 2.72 0 0 Z " fill="#2F495E" transform="translate(297,392)"/>
<path d="M0 0 C0.226875 0.5775 0.45375 1.155 0.6875 1.75 C2.33038023 4.5663661 4.39533227 6.08077114 7 8 C4.69 7.67 2.38 7.34 0 7 C0 4.69 0 2.38 0 0 Z " fill="#375763" transform="translate(410,393)"/>
<path d="M0 0 C2.0625 2.0625 2.0625 2.0625 4 5 C3.75 8.8125 3.75 8.8125 3 12 C2.67 12 2.34 12 2 12 C0.70756464 7.8803623 -0.26252625 4.33168317 0 0 Z " fill="#304A5E" transform="translate(307,388)"/>
<path d="M0 0 C0.99 0 1.98 0 3 0 C2.67 1.32 2.34 2.64 2 4 C1.34 4 0.68 4 0 4 C-0.33 4.99 -0.66 5.98 -1 7 C-1.33 7 -1.66 7 -2 7 C-2.125 4.625 -2.125 4.625 -2 2 C-1.34 1.34 -0.68 0.68 0 0 Z " fill="#131F2A" transform="translate(308,381)"/>
<path d="M0 0 C0.66 0 1.32 0 2 0 C2 0.66 2 1.32 2 2 C3.32 2.33 4.64 2.66 6 3 C4.02 3.99 4.02 3.99 2 5 C1.01 4.34 0.02 3.68 -1 3 C-0.67 2.01 -0.34 1.02 0 0 Z " fill="#202324" transform="translate(235,238)"/>
<path d="M0 0 C3 1 3 1 4.1875 2.875 C5 5 5 5 5 8 C4.34 8 3.68 8 3 8 C0.95830515 5.09451118 0 3.59857954 0 0 Z " fill="#4E8EBF" transform="translate(419,144)"/>
<path d="M0 0 C0.99 0 1.98 0 3 0 C3 0.66 3 1.32 3 2 C2.34 2 1.68 2 1 2 C1 2.66 1 3.32 1 4 C-0.98 4.99 -2.96 5.98 -5 7 C-4.67 5.68 -4.34 4.36 -4 3 C-2.68 3 -1.36 3 0 3 C0 2.01 0 1.02 0 0 Z " fill="#3B5762" transform="translate(327,97)"/>
<path d="M0 0 C1.32 0.66 2.64 1.32 4 2 C0.25 5 0.25 5 -2 5 C-1.125 1.125 -1.125 1.125 0 0 Z " fill="#091922" transform="translate(280,386)"/>
<path d="M0 0 C1.98 0 3.96 0 6 0 C6.66 1.32 7.32 2.64 8 4 C5.64828869 3.40138258 3.3140622 2.73075648 1 2 C0.67 1.34 0.34 0.68 0 0 Z " fill="#46626E" transform="translate(263,386)"/>
<path d="M0 0 C0.6875 1.625 0.6875 1.625 1 4 C-0.4375 7.25 -0.4375 7.25 -2 10 C-2.33 10 -2.66 10 -3 10 C-3.36629408 5.72656908 -2.40814077 3.51187196 0 0 Z " fill="#385B6B" transform="translate(142,371)"/>
<path d="M0 0 C0.33 0.66 0.66 1.32 1 2 C0.22265625 3.7265625 0.22265625 3.7265625 -0.9375 5.625 C-1.618125 6.73875 -2.29875 7.8525 -3 9 C-3.66 9 -4.32 9 -5 9 C-3.90931332 5.22454612 -3.0916909 2.52956528 0 0 Z " fill="#294851" transform="translate(43,368)"/>
<path d="M0 0 C2.91517292 1.07401108 4.77810176 1.77810176 7 4 C5.35 4.33 3.7 4.66 2 5 C1.34 3.35 0.68 1.7 0 0 Z " fill="#E0DACE" transform="translate(222,234)"/>
<path d="M0 0 C0.33 0.66 0.66 1.32 1 2 C2.32 1.34 3.64 0.68 5 0 C4.67 1.65 4.34 3.3 4 5 C1.03 4.505 1.03 4.505 -2 4 C-1.34 2.68 -0.68 1.36 0 0 Z " fill="#1A2128" transform="translate(264,186)"/>
<path d="M0 0 C2.31 0 4.62 0 7 0 C7 0.66 7 1.32 7 2 C7.66 2 8.32 2 9 2 C9.33 3.32 9.66 4.64 10 6 C8.68 5.34 7.36 4.68 6 4 C6 3.01 6 2.02 6 1 C4.02 1 2.04 1 0 1 C0 0.67 0 0.34 0 0 Z " fill="#446176" transform="translate(96,139)"/>
<path d="M0 0 C3.36720387 1.39332574 4.9859524 2.9789286 7 6 C4.03824877 5.38722388 2.61941217 4.74627478 0 3 C0 2.01 0 1.02 0 0 Z " fill="#4B8EB9" transform="translate(387,112)"/>
<path d="M0 0 C0.66 1.32 1.32 2.64 2 4 C0.02 4.99 0.02 4.99 -2 6 C-2.33 5.01 -2.66 4.02 -3 3 C-2.34 3 -1.68 3 -1 3 C-0.67 2.01 -0.34 1.02 0 0 Z M2 2 C2.99 2.33 3.98 2.66 5 3 C4.01 3 3.02 3 2 3 C2 2.67 2 2.34 2 2 Z " fill="#304452" transform="translate(169,396)"/>
<path d="M0 0 C2 1.8125 2 1.8125 4 4 C4 4.99 4 5.98 4 7 C2.68 6.34 1.36 5.68 0 5 C0 3.35 0 1.7 0 0 Z " fill="#243E4B" transform="translate(127,368)"/>
<path d="M0 0 C0 0.99 0 1.98 0 3 C-0.66 3 -1.32 3 -2 3 C-2 3.99 -2 4.98 -2 6 C-2.66 5.67 -3.32 5.34 -4 5 C-4 3.68 -4 2.36 -4 1 C-2 0 -2 0 0 0 Z " fill="#061821" transform="translate(106,364)"/>
<path d="M0 0 C1.98 0.66 3.96 1.32 6 2 C5.67 2.66 5.34 3.32 5 4 C3.02 4 1.04 4 -1 4 C-1.33 3.34 -1.66 2.68 -2 2 C-1.34 2 -0.68 2 0 2 C0 1.34 0 0.68 0 0 Z " fill="#C7C6C6" transform="translate(197,149)"/>
<path d="M0 0 C1.07396066 4.29584263 1.07329796 7.60212211 1 12 C0.01 12.33 -0.98 12.66 -2 13 C-1.34 8.71 -0.68 4.42 0 0 Z " fill="#405A70" transform="translate(146,140)"/>
<path d="M0 0 C2.1519437 3.22791555 2.20086443 4.28400809 2 8 C0 6.625 0 6.625 -2 5 C-2 4.34 -2 3.68 -2 3 C-1.34 3 -0.68 3 0 3 C0 2.01 0 1.02 0 0 Z " fill="#252727" transform="translate(198,143)"/>
<path d="M0 0 C-0.33 0.99 -0.66 1.98 -1 3 C-4.0625 4.1875 -4.0625 4.1875 -7 5 C-5.22678182 1.07358831 -4.52021524 0 0 0 Z " fill="#272827" transform="translate(203,136)"/>
<path d="M0 0 C1.875 0.1875 1.875 0.1875 4 1 C5.25 3.5625 5.25 3.5625 6 6 C3.5625 5.25 3.5625 5.25 1 4 C0.1875 1.875 0.1875 1.875 0 0 Z " fill="#1D1F1E" transform="translate(278,130)"/>
<path d="M0 0 C1.32 0.66 2.64 1.32 4 2 C3.01 2.33 2.02 2.66 1 3 C0.67 4.65 0.34 6.3 0 8 C-0.99 7.34 -1.98 6.68 -3 6 C-2.34 6 -1.68 6 -1 6 C-0.67 4.02 -0.34 2.04 0 0 Z " fill="#35505C" transform="translate(318,103)"/>
</svg>
