<?xml version="1.0" encoding="UTF-8"?>
<svg version="1.1" xmlns="http://www.w3.org/2000/svg" width="500" height="500">
<path d="M0 0 C6.66225128 2.96891768 13.41184878 5.48710685 20.29682922 7.87872314 C25.28597754 9.6207853 30.22098492 11.46726425 35.13671875 13.40625 C56.4203788 21.762649 77.95209482 28.78758323 99.87109375 35.2890625 C100.75681564 35.55241394 101.64253754 35.81576538 102.55509949 36.08709717 C106.44937571 37.23673655 110.34310194 38.3550846 114.27783203 39.35839844 C116.13770752 39.84228027 116.13770752 39.84228027 118.03515625 40.3359375 C119.08195557 40.59165527 120.12875488 40.84737305 121.20727539 41.11083984 C125.02321223 42.66737112 126.64091291 43.80886551 129 47.25 C129.71335678 51.37752915 129.62813142 55.44621463 129.55859375 59.625 C129.55626236 60.85871338 129.55393097 62.09242676 129.55152893 63.36352539 C129.539284 66.66056041 129.50441643 69.95638855 129.4598999 73.25311279 C129.42355799 76.49289052 129.42465564 79.73270125 129.41992188 82.97265625 C129.31965705 105.40364737 128.45121439 127.96809169 125.1875 150.1875 C125.01718262 151.37512939 124.84686523 152.56275879 124.67138672 153.78637695 C123.03479011 164.75422578 120.89237681 175.54369653 118 186.25 C117.79713379 187.0018457 117.59426758 187.75369141 117.38525391 188.52832031 C110.38470337 213.52156258 97.50298801 237.35856291 80.30957031 256.74609375 C78.23733771 259.12583887 76.2826543 261.59811456 74.3125 264.0625 C68.21141879 271.54229529 61.38061707 278.05120859 54 284.25 C53.46938965 284.69972168 52.9387793 285.14944336 52.39208984 285.61279297 C42.42205955 294.02968928 32.01910676 301.54296962 21.17431641 308.78808594 C18.089317 310.86230292 15.04529243 312.99315647 12 315.125 C7.21027592 318.44611911 2.37276503 321.6657674 -2.578125 324.7421875 C-4.04485691 325.6553464 -5.49778891 326.59197693 -6.921875 327.5703125 C-11.57175633 330.62046402 -15.613109 331.07316414 -21 330.25 C-24.06828816 328.92808791 -26.66830702 327.13182406 -29.375 325.1875 C-30.87077456 324.16359605 -32.36686783 323.14015754 -33.86328125 322.1171875 C-34.57693848 321.61928711 -35.2905957 321.12138672 -36.02587891 320.60839844 C-38.4837147 318.91715452 -41.01377985 317.36255371 -43.5625 315.8125 C-49.67398583 311.94282252 -55.38174153 307.54499966 -61.13671875 303.171875 C-64.32550822 300.74929919 -67.55518523 298.39248195 -70.8125 296.0625 C-118.00534165 261.75316408 -146.8653801 214.52014822 -156.38623047 157.14501953 C-160.4313923 131.47417157 -161.23159207 105.75306521 -161.35009766 79.80834961 C-161.3668711 77.11686907 -161.39190375 74.42714685 -161.43212891 71.73608398 C-161.49078137 67.80454534 -161.50870332 63.87336683 -161.5234375 59.94140625 C-161.54610687 58.73940079 -161.56877625 57.53739532 -161.59213257 56.29896545 C-161.57121573 48.10632619 -161.57121573 48.10632619 -158.8972168 44.09765625 C-155.63963684 42.02018384 -152.8609944 40.97318043 -149.12109375 39.99609375 C-148.44978424 39.81419998 -147.77847473 39.63230621 -147.08682251 39.44490051 C-145.6350552 39.05219374 -144.18139046 38.66644799 -142.72610474 38.2869873 C-138.76134789 37.24844126 -134.8149417 36.14408444 -130.8671875 35.04296875 C-130.04869827 34.81553986 -129.23020905 34.58811096 -128.38691711 34.35379028 C-101.31101851 26.77121557 -75.07762054 16.69044697 -49 6.25 C-47.69876658 5.73005285 -46.397498 5.21019367 -45.09619141 4.69042969 C-38.33582438 1.98943481 -38.33582438 1.98943481 -31.58325195 -0.73095703 C-29.80018372 -1.45103928 -28.01392076 -2.1632943 -26.22363281 -2.86523438 C-24.43007784 -3.57887548 -22.6598125 -4.35089011 -20.8984375 -5.140625 C-13.66396301 -6.66161964 -6.48981313 -2.90654879 0 0 Z " fill="#17181B" transform="translate(266,87.75)"/>
<path d="M0 0 C6.66225128 2.96891768 13.41184878 5.48710685 20.29682922 7.87872314 C25.28597754 9.6207853 30.22098492 11.46726425 35.13671875 13.40625 C56.4203788 21.762649 77.95209482 28.78758323 99.87109375 35.2890625 C100.75681564 35.55241394 101.64253754 35.81576538 102.55509949 36.08709717 C106.44937571 37.23673655 110.34310194 38.3550846 114.27783203 39.35839844 C116.13770752 39.84228027 116.13770752 39.84228027 118.03515625 40.3359375 C119.08195557 40.59165527 120.12875488 40.84737305 121.20727539 41.11083984 C125.02321223 42.66737112 126.64091291 43.80886551 129 47.25 C129.71335678 51.37752915 129.62813142 55.44621463 129.55859375 59.625 C129.55626236 60.85871338 129.55393097 62.09242676 129.55152893 63.36352539 C129.539284 66.66056041 129.50441643 69.95638855 129.4598999 73.25311279 C129.42355799 76.49289052 129.42465564 79.73270125 129.41992188 82.97265625 C129.31965705 105.40364737 128.45121439 127.96809169 125.1875 150.1875 C125.01718262 151.37512939 124.84686523 152.56275879 124.67138672 153.78637695 C123.03479011 164.75422578 120.89237681 175.54369653 118 186.25 C117.79713379 187.0018457 117.59426758 187.75369141 117.38525391 188.52832031 C110.38470337 213.52156258 97.50298801 237.35856291 80.30957031 256.74609375 C78.23733771 259.12583887 76.2826543 261.59811456 74.3125 264.0625 C68.21141879 271.54229529 61.38061707 278.05120859 54 284.25 C53.46938965 284.69972168 52.9387793 285.14944336 52.39208984 285.61279297 C42.42205955 294.02968928 32.01910676 301.54296962 21.17431641 308.78808594 C18.089317 310.86230292 15.04529243 312.99315647 12 315.125 C7.21027592 318.44611911 2.37276503 321.6657674 -2.578125 324.7421875 C-4.04485691 325.6553464 -5.49778891 326.59197693 -6.921875 327.5703125 C-11.57175633 330.62046402 -15.613109 331.07316414 -21 330.25 C-24.06828816 328.92808791 -26.66830702 327.13182406 -29.375 325.1875 C-30.87077456 324.16359605 -32.36686783 323.14015754 -33.86328125 322.1171875 C-34.57693848 321.61928711 -35.2905957 321.12138672 -36.02587891 320.60839844 C-38.4837147 318.91715452 -41.01377985 317.36255371 -43.5625 315.8125 C-49.67398583 311.94282252 -55.38174153 307.54499966 -61.13671875 303.171875 C-64.32550822 300.74929919 -67.55518523 298.39248195 -70.8125 296.0625 C-118.00534165 261.75316408 -146.8653801 214.52014822 -156.38623047 157.14501953 C-160.4313923 131.47417157 -161.23159207 105.75306521 -161.35009766 79.80834961 C-161.3668711 77.11686907 -161.39190375 74.42714685 -161.43212891 71.73608398 C-161.49078137 67.80454534 -161.50870332 63.87336683 -161.5234375 59.94140625 C-161.54610687 58.73940079 -161.56877625 57.53739532 -161.59213257 56.29896545 C-161.57121573 48.10632619 -161.57121573 48.10632619 -158.8972168 44.09765625 C-155.63963684 42.02018384 -152.8609944 40.97318043 -149.12109375 39.99609375 C-148.44978424 39.81419998 -147.77847473 39.63230621 -147.08682251 39.44490051 C-145.6350552 39.05219374 -144.18139046 38.66644799 -142.72610474 38.2869873 C-138.76134789 37.24844126 -134.8149417 36.14408444 -130.8671875 35.04296875 C-130.04869827 34.81553986 -129.23020905 34.58811096 -128.38691711 34.35379028 C-101.31101851 26.77121557 -75.07762054 16.69044697 -49 6.25 C-47.69876658 5.73005285 -46.397498 5.21019367 -45.09619141 4.69042969 C-38.33582438 1.98943481 -38.33582438 1.98943481 -31.58325195 -0.73095703 C-29.80018372 -1.45103928 -28.01392076 -2.1632943 -26.22363281 -2.86523438 C-24.43007784 -3.57887548 -22.6598125 -4.35089011 -20.8984375 -5.140625 C-13.66396301 -6.66161964 -6.48981313 -2.90654879 0 0 Z M-105.31640625 60.98828125 C-109.1167815 67.17216711 -108.90021945 74.24114853 -108 81.25 C-105.69459283 88.78690805 -100.33884835 92.95505046 -94 97.25 C-95.58812582 105.02345794 -97.81059016 112.53963904 -100.125 120.125 C-100.9414573 122.81209041 -101.7560858 125.49973294 -102.5703125 128.1875 C-102.77569641 128.86440887 -102.98108032 129.54131775 -103.19268799 130.23873901 C-104.51478157 134.60784821 -105.79753136 138.98665085 -107.0546875 143.375 C-117.09985217 178.3376841 -117.09985217 178.3376841 -124.328125 191.61328125 C-125.54316815 194.00324821 -126.00272554 195.03127521 -125.96875 197.7578125 C-124.60092144 201.27666178 -123.12309872 204.71807677 -121.5 208.125 C-121.14542725 208.87023926 -120.79085449 209.61547852 -120.42553711 210.38330078 C-112.99036011 225.72170527 -103.61665097 238.31492909 -92.12109375 250.90625 C-90.18168497 253.04924312 -88.30670701 255.23344638 -86.4375 257.4375 C-82.93607849 261.4437031 -79.08940771 264.85666169 -75 268.25 C-73.81664062 269.24773437 -73.81664062 269.24773437 -72.609375 270.265625 C-65.75440415 275.97125942 -58.65808916 281.32605735 -51.50390625 286.6484375 C-50.58581177 287.33957642 -50.58581177 287.33957642 -49.64916992 288.04467773 C-48.33606436 289.00438198 -46.96840603 289.88932118 -45.5859375 290.74609375 C-43.276279 292.93628715 -43.35415453 294.817196 -43.0625 297.9375 C-41.89548856 306.27760761 -38.47669096 311.79075519 -31.8671875 316.99609375 C-25.09854418 321.54156343 -18.0205602 322.19172805 -10 321.25 C-2.2517541 319.1270286 3.58897158 314.50814651 8.3125 308.125 C10.04060207 304.92077396 10.22421784 302.08878505 10.515625 298.48828125 C11.29506277 293.59425789 12.33179168 291.25840108 16.18359375 288.11328125 C17.91132108 286.89553274 19.66411715 285.71274625 21.4375 284.5625 C23.27440113 283.28002495 25.11034741 281.99618111 26.9453125 280.7109375 C27.82606445 280.11120117 28.70681641 279.51146484 29.61425781 278.89355469 C42.58669391 269.9567516 55.07076018 258.48554246 65 246.25 C65.70253906 245.4353125 66.40507812 244.620625 67.12890625 243.78125 C76.06135041 233.26182338 93.80364455 211.02704557 92.78515625 196.1015625 C91.84269323 191.47833596 90.21423293 187.45323679 88.375 183.125 C82.37907503 168.55401063 77.58894654 153.6750301 73.34814453 138.50756836 C70.95488729 129.9721476 68.3438301 121.50766683 65.71508789 113.04223633 C64.08560825 107.79277254 62.47815497 102.54420811 61 97.25 C61.845625 96.755 62.69125 96.26 63.5625 95.75 C68.59413487 92.37964125 72.63543817 87.8604661 75.4375 82.5 C76.71688571 75.10799366 77.27585457 67.69446358 73.31640625 61.05859375 C67.97981562 53.72671997 61.94530001 49.50221952 52.8984375 47.87109375 C46.53103962 47.4778879 40.83396666 49.93678157 35.98046875 53.8984375 C32.74526599 57.01785406 29.97943707 60.17468839 28 64.25 C28 64.91 28 65.57 28 66.25 C27.22398437 65.92386719 26.44796875 65.59773438 25.6484375 65.26171875 C24.56820312 64.82472656 23.48796875 64.38773438 22.375 63.9375 C21.33085937 63.50824219 20.28671875 63.07898438 19.2109375 62.63671875 C8.27955854 58.76392757 -2.54300066 57.78958655 -14.0625 57.9375 C-15.32126953 57.93427734 -16.58003906 57.93105469 -17.87695312 57.92773438 C-28.48834624 57.98799525 -38.87510948 58.9439133 -49 62.25 C-50.03125 62.58 -51.0625 62.91 -52.125 63.25 C-54.78591499 64.17553565 -57.39529359 65.17747383 -60 66.25 C-60.24492187 65.35667969 -60.48984375 64.46335937 -60.7421875 63.54296875 C-62.97623064 57.69421605 -67.73049689 53.1933682 -73.08984375 50.0078125 C-85.9482254 44.6607627 -97.44827095 50.59860704 -105.31640625 60.98828125 Z " fill="#2581CB" transform="translate(266,87.75)"/>
<path d="M0 0 C6.69655316 2.79837009 13.38515002 5.51658516 20.25 7.875 C26.56946413 10.04738681 32.82355555 12.35578163 39.0625 14.75 C53.65978622 20.3345628 68.13960871 25.8681893 83.19287109 30.10742188 C88.36446543 31.56911344 93.52545615 33.06751303 98.6875 34.5625 C99.75766357 34.86865234 100.82782715 35.17480469 101.93041992 35.49023438 C102.92275635 35.77705078 103.91509277 36.06386719 104.9375 36.359375 C105.82953125 36.61557617 106.7215625 36.87177734 107.640625 37.13574219 C109.6875 37.8125 109.6875 37.8125 110.6875 38.8125 C110.79159183 40.46496225 110.82603515 42.12186409 110.83276367 43.77758789 C110.83914352 44.84123062 110.84552338 45.90487335 110.85209656 47.00074768 C110.85376579 48.75027992 110.85376579 48.75027992 110.85546875 50.53515625 C110.85879715 51.7419957 110.86212555 52.94883514 110.86555481 54.19224548 C110.87063788 56.76902892 110.87296271 59.34581898 110.87280273 61.92260742 C110.87494641 65.77860281 110.89296516 69.6342914 110.91210938 73.49023438 C110.95729949 92.98646414 110.36788747 112.50976154 106.9375 131.75 C106.68915405 133.18835205 106.68915405 133.18835205 106.43579102 134.65576172 C105.06534381 142.3023255 103.40382688 149.8763809 101.625 157.4375 C101.37975586 158.48671631 101.13451172 159.53593262 100.88183594 160.61694336 C99.63500244 165.71819488 98.31065537 170.25116751 95.6875 174.8125 C93.32327055 172.67537633 92.06928506 170.83498978 90.890625 167.8828125 C90.57528809 167.09849854 90.25995117 166.31418457 89.93505859 165.50610352 C89.60586426 164.65846436 89.27666992 163.8108252 88.9375 162.9375 C88.58896973 162.05054443 88.24043945 161.16358887 87.88134766 160.24975586 C82.52010493 146.42115358 78.02799055 132.34891357 74.03564453 118.07006836 C71.64238729 109.5346476 69.0313301 101.07016683 66.40258789 92.60473633 C64.77310825 87.35527254 63.16565497 82.10670811 61.6875 76.8125 C62.20699219 76.44898438 62.72648438 76.08546875 63.26171875 75.7109375 C69.57315097 71.16110651 75.05899748 66.80696692 76.6875 58.8125 C77.37088045 51.36890982 77.36904082 44.91428354 72.6875 38.8125 C66.93629128 32.50143911 61.20120873 29.31402319 52.75 28.375 C45.36633102 28.7506857 40.15501342 31.92851601 35.25 37.3125 C32.95432016 40.02093844 31.15162366 42.57524165 29.6875 45.8125 C29.16285156 45.64234375 28.63820313 45.4721875 28.09765625 45.296875 C25.30659306 44.423797 22.49749131 43.62261812 19.6875 42.8125 C18.56730469 42.45285156 17.44710937 42.09320313 16.29296875 41.72265625 C6.70846623 38.88178212 -2.58864342 38.44422752 -12.5625 38.4375 C-13.81708008 38.43596924 -15.07166016 38.43443848 -16.36425781 38.43286133 C-26.91534794 38.55701628 -37.26819279 39.5055449 -47.3125 42.875 C-50.9722692 44.08729855 -54.51457375 45.13529624 -58.3125 45.8125 C-58.7146875 45.06806641 -58.7146875 45.06806641 -59.125 44.30859375 C-62.88080345 37.79771079 -67.45514022 32.66081823 -74.3125 29.375 C-82.13515903 27.90825143 -88.41752505 28.7104263 -95.3125 32.8125 C-100.80936862 37.72303597 -104.82591664 42.57154184 -105.68359375 50.046875 C-105.8302484 57.81094496 -105.53311948 63.78137339 -100.3125 69.8125 C-97.45758565 72.3809681 -94.49033096 74.65932913 -91.3125 76.8125 C-92.90062582 84.58595794 -95.12309016 92.10213904 -97.4375 99.6875 C-98.2539573 102.37459041 -99.0685858 105.06223294 -99.8828125 107.75 C-100.08819641 108.42690887 -100.29358032 109.10381775 -100.50518799 109.80123901 C-101.82728157 114.17034821 -103.11003136 118.54915085 -104.3671875 122.9375 C-107.56628664 134.07409955 -110.96217834 145.07279372 -115 155.9375 C-115.35642578 156.90284668 -115.71285156 157.86819336 -116.08007812 158.86279297 C-118.35277747 164.82075203 -121.05667885 170.33016629 -124.3125 175.8125 C-126.11152182 173.11396727 -126.83742359 171.45446467 -127.6796875 168.41015625 C-127.92356201 167.53109619 -128.16743652 166.65203613 -128.41870117 165.74633789 C-131.51816995 154.1703289 -134.46472195 142.66135101 -136.3125 130.8125 C-136.46348145 129.85214844 -136.61446289 128.89179688 -136.77001953 127.90234375 C-141.06987534 98.55014576 -139.59592483 68.39686842 -139.3125 38.8125 C-133.51674333 36.57306022 -127.68919994 34.63821347 -121.7421875 32.84375 C-119.87199151 32.27298555 -118.00196214 31.70167489 -116.13208008 31.12988281 C-115.16170807 30.83359985 -114.19133606 30.53731689 -113.19155884 30.23205566 C-93.97456015 24.34964758 -75.07564526 18.01661787 -56.3125 10.8125 C-53.94169519 9.9146013 -51.57060008 9.01746874 -49.19921875 8.12109375 C-37.40376339 3.70253499 -37.40376339 3.70253499 -25.796875 -1.1796875 C-25.14976562 -1.47061279 -24.50265625 -1.76153809 -23.8359375 -2.0612793 C-22.23120176 -2.7975932 -20.63824796 -3.55945273 -19.046875 -4.32421875 C-12.40791545 -6.42023312 -6.05874354 -2.58136056 0 0 Z " fill="#F1EFEB" transform="translate(264.3125,108.1875)"/>
<path d="M0 0 C6.34845936 0.33412944 10.7948358 3.69538011 16 7 C17.55950569 7.94247255 19.12202009 8.87998451 20.6875 9.8125 C23.58217313 11.54840211 26.4755783 13.28634007 29.3671875 15.02734375 C36.16192163 19.11587095 42.97407149 23.17242179 49.8125 27.1875 C54.40345409 29.88319562 58.99357077 32.57955153 63.5625 35.3125 C64.32175781 35.76496094 65.08101563 36.21742188 65.86328125 36.68359375 C67.31894697 37.58041157 68.7536574 38.51194386 70.16796875 39.47265625 C70.85503906 39.93542969 71.54210937 40.39820313 72.25 40.875 C72.83265625 41.28492188 73.4153125 41.69484375 74.015625 42.1171875 C76.81768133 43.36377161 78.94966752 43.21670046 82 43 C84.64650236 41.9034377 84.64650236 41.9034377 87.17578125 40.24609375 C88.15595215 39.64635742 89.13612305 39.04662109 90.14599609 38.42871094 C91.19094238 37.77161133 92.23588867 37.11451172 93.3125 36.4375 C94.98702586 35.40842327 96.66156402 34.37936587 98.33685303 33.35153198 C100.07458204 32.28313881 101.8087704 31.20917759 103.54248047 30.13427734 C108.9539864 26.78547263 114.41569694 23.52007808 119.875 20.25 C120.90423584 19.63157227 121.93347168 19.01314453 122.99389648 18.37597656 C130.37116718 13.95043586 137.79103975 9.60365375 145.25341797 5.32324219 C146.33067139 4.70497559 146.33067139 4.70497559 147.4296875 4.07421875 C148.05085449 3.71932373 148.67202148 3.36442871 149.31201172 2.9987793 C150.90849623 2.0541426 152.4565296 1.02898027 154 0 C155.32 0 156.64 0 158 0 C157.50039195 4.75519807 155.2680346 7.94142307 152.5 11.6875 C151.82723022 12.61332886 151.82723022 12.61332886 151.14086914 13.55786133 C147.75883835 18.14125423 144.1086049 22.39239085 140.2265625 26.5625 C137.82038429 29.19663193 135.56211861 31.91873863 133.3125 34.6875 C132.56742188 35.60402344 131.82234375 36.52054687 131.0546875 37.46484375 C129.8293337 38.97673466 128.60500093 40.48945537 127.3828125 42.00390625 C124.30531221 45.7218593 120.9905865 48.82748651 117.30078125 51.93359375 C115.08286926 53.92557243 113.05833154 56.04013932 111.01977539 58.21289062 C103.05909769 66.60967849 91.02798554 77.71338744 78.9375 78.4375 C72.84507796 78.34891874 68.86015177 75.40431205 64 72 C62.73736328 71.18208984 62.73736328 71.18208984 61.44921875 70.34765625 C53.22344545 64.77850307 46.49793774 57.77353261 39.62109375 50.66796875 C38.22282189 49.22926493 36.80462398 47.80997641 35.3828125 46.39453125 C27.40221792 38.37468785 20.03685294 29.85281499 13 21 C12.37222656 20.21753906 11.74445313 19.43507813 11.09765625 18.62890625 C0 4.6172046 0 4.6172046 0 0 Z " fill="#F0EDE9" transform="translate(171,275)"/>
<path d="M0 0 C10.7522163 6.19327659 16.60965889 17.17184538 20.62890625 28.55078125 C21.97725121 34.010164 21.96815825 39.65276585 22.0625 45.25 C22.08046631 46.01086914 22.09843262 46.77173828 22.11694336 47.55566406 C22.10501784 54.84136108 20.01467569 60.79782431 14.75 66.0625 C3.58009212 73.67834629 -9.1089966 74.45072908 -22.25 73.0625 C-29.20212936 71.26539962 -36.21485958 68.21350087 -40.578125 62.24609375 C-46.10148478 51.78447587 -45.69171713 38.22671621 -42.35546875 26.93359375 C-37.88712537 15.32853232 -31.7342878 4.15431428 -19.98828125 -1.0859375 C-13.11661029 -3.22291934 -6.58292994 -2.89770076 0 0 Z " fill="#EEEBE7" transform="translate(261.25,205.9375)"/>
<path d="M0 0 C6.47511557 3.65530718 11.67536422 9.2829281 14.75 16.0625 C12.07257597 19.52740168 8.98605852 20.40518057 4.75 21.0625 C2.125 19.25 2.125 19.25 -0.25 17.0625 C-4.34719669 15.90443725 -8.44780095 15.83112214 -12.6875 15.75 C-13.96496094 15.71261719 -15.24242187 15.67523438 -16.55859375 15.63671875 C-20.86237259 16.13313345 -22.92197502 17.34224394 -26.25 20.0625 C-28.94699425 24.10799137 -29.02285237 27.31149172 -28.25 32.0625 C-24.99449483 37.45443043 -20.96525878 39.65159679 -15.25 42.0625 C-15.25 44.7025 -15.25 47.3425 -15.25 50.0625 C-20.2 51.0525 -25.15 52.0425 -30.25 53.0625 C-29.92 54.7125 -29.59 56.3625 -29.25 58.0625 C-28.91055205 60.06147128 -28.57578384 62.06125639 -28.25 64.0625 C-28.91 64.0625 -29.57 64.0625 -30.25 64.0625 C-30.25 65.7125 -30.25 67.3625 -30.25 69.0625 C-36.58044051 67.07293298 -40.2179552 62.82338513 -43.25 57.0625 C-46.97126369 45.89870894 -44.4553693 31.14412984 -39.73828125 20.72265625 C-34.93794777 11.30537281 -29.89902623 3.33554812 -19.98828125 -1.0859375 C-13.11661029 -3.22291934 -6.58292994 -2.89770076 0 0 Z " fill="#EEECE8" transform="translate(261.25,205.9375)"/>
<path d="M0 0 C1.91232422 -0.00773438 1.91232422 -0.00773438 3.86328125 -0.015625 C9.41031049 0.36966406 13.39404734 1.12166895 17.625 4.8125 C20.00971374 8.07160877 20.47380865 11.01339911 20.23828125 15.00390625 C19.24222838 19.06582398 16.84227789 21.61626009 13.6875 24.25 C8.65524194 27.25 8.65524194 27.25 5.6875 27.25 C5.6875 29.89 5.6875 32.53 5.6875 35.25 C7.16863281 35.43175781 7.16863281 35.43175781 8.6796875 35.6171875 C9.96101563 35.78476562 11.24234375 35.95234375 12.5625 36.125 C14.47675781 36.36863281 14.47675781 36.36863281 16.4296875 36.6171875 C19.6875 37.25 19.6875 37.25 21.6875 39.25 C21.15178571 42.78571429 21.15178571 42.78571429 19.6875 44.25 C13.99545487 44.53047759 8.19757504 44.62263099 2.5625 43.6875 C-0.37373728 43.01743991 -0.37373728 43.01743991 -3.3125 44.25 C-5.49761688 44.3696943 -7.68664147 44.42527453 -9.875 44.4375 C-11.03128906 44.45167969 -12.18757812 44.46585937 -13.37890625 44.48046875 C-16.3125 44.25 -16.3125 44.25 -18.3125 42.25 C-17.9825 40.6 -17.6525 38.95 -17.3125 37.25 C-12.3625 36.59 -7.4125 35.93 -2.3125 35.25 C-2.3125 32.61 -2.3125 29.97 -2.3125 27.25 C-3.5809375 26.940625 -3.5809375 26.940625 -4.875 26.625 C-9.46559835 24.78876066 -14.04144274 21.79211452 -16.3125 17.25 C-16.8384826 13.49298142 -17.14012888 9.82249487 -15.3359375 6.39453125 C-10.7853838 0.74123601 -7.0490603 -0.02833793 0 0 Z " fill="#18191B" transform="translate(248.3125,220.75)"/>
<path d="M0 0 C3.17541021 2.80747855 4.75090902 5.4945291 5.4453125 9.69140625 C5.68655974 15.60196365 5.08863123 19.45707641 1 24 C-3.266975 27.74976591 -7.19549728 28.35804062 -12.71875 28.27734375 C-17.54383827 27.69073199 -20.20069827 24.8624045 -23.375 21.4375 C-25.69154459 16.53711721 -26.00124283 12.3223961 -25 7 C-22.98378712 2.85370176 -20.48784556 -0.08440274 -16.5625 -2.5 C-10.28268182 -3.72533038 -5.59062795 -3.20943456 0 0 Z " fill="#05CE6B" transform="translate(260,369)"/>
<path d="M0 0 C2.4375 1.5625 2.4375 1.5625 4 4 C4.72468526 8.42863214 4.49454049 10.28066838 1.9375 14 C-1 16 -1 16 -4.625 16 C-9.61768902 14.52068474 -9.61768902 14.52068474 -11 12 C-11.75471698 5.20754717 -11.75471698 5.20754717 -9.4375 1.5 C-6.05111671 -0.58392818 -3.90614682 -0.55802097 0 0 Z " fill="#EFEDE9" transform="translate(219,199)"/>
<path d="M0 0 C2.4375 1.5 2.4375 1.5 4 4 C4.61014545 6.8089715 4.65360928 9.19636021 4 12 C1.9375 14.5625 1.9375 14.5625 -1 16 C-4.77910616 16 -7.00693033 15.83289714 -9.9375 13.375 C-11.43699866 10.02317947 -11.45377473 7.63019782 -11 4 C-8.11188513 -0.5054592 -5.11821063 -0.73117295 0 0 Z " fill="#EFEDEA" transform="translate(288,199)"/>
<path d="M0 0 C6.26756088 1.21776633 12.05716512 2.99997161 18 5.3125 C26.19793401 8.41825422 34.45142818 10.99339516 42.87988281 13.38525391 C46.62490273 14.47115443 50.34318777 15.64208996 54.0625 16.8125 C54.76012451 17.03180176 55.45774902 17.25110352 56.17651367 17.47705078 C57.78472505 17.98348715 59.39242488 18.49154757 61 19 C55.23398772 20.82221607 49.82090044 18.84541806 44.5 16.375 C40.17186348 14.67466065 36.58370069 14.71936526 32 15 C32 15.66 32 16.32 32 17 C26.46920811 15.71606617 21.17701506 14.36144546 16 12 C15.65110996 10.67065255 15.31701126 9.33730802 15 8 C14.01 7.67 13.02 7.34 12 7 C11.67 6.34 11.34 5.68 11 5 C8.42562419 4.08719862 8.42562419 4.08719862 5.4375 3.375 C4.42558594 3.11460937 3.41367187 2.85421875 2.37109375 2.5859375 C1.58863281 2.39257812 0.80617188 2.19921875 0 2 C0 1.34 0 0.68 0 0 Z " fill="#E1EFF5" transform="translate(305,125)"/>
<path d="M0 0 C1.03125 0.33 2.0625 0.66 3.125 1 C11.16615122 3.024647 19.91337467 2.53621302 28 1 C28 3.1875 28 3.1875 27 6 C23.43405883 9.36581182 19.46535226 11.32560229 14.5625 11.6875 C9.23373339 11.37240771 4.69092049 8.79802309 1 5 C0.25 2.29296875 0.25 2.29296875 0 0 Z " fill="#2882CA" transform="translate(235,407)"/>
<path d="M0 0 C0.99 0.33 1.98 0.66 3 1 C3.02314421 9.04925101 3.04092572 17.09848817 3.05181217 25.14776421 C3.05703644 28.8851425 3.06412584 32.62249807 3.07543945 36.35986328 C3.0862845 39.96489816 3.09228028 43.56991116 3.09487724 47.17496109 C3.09672857 48.55210846 3.1003436 49.92925459 3.10573006 51.30639267 C3.11296181 53.23143094 3.11340824 55.15649112 3.11352539 57.08154297 C3.115746 58.17852509 3.11796661 59.2755072 3.12025452 60.4057312 C3 63 3 63 2 65 C1.76784405 68.35336366 1.60559473 71.69988023 1.48242188 75.05859375 C1.29895899 78.8178522 1.07193688 81.79562798 -1 85 C-2.01452641 81.95642076 -2.00907077 80.63607203 -1.66455078 77.52929688 C-1.57156708 76.61369995 -1.47858337 75.69810303 -1.38278198 74.75476074 C-1.27966705 73.7528772 -1.17655212 72.75099365 -1.0703125 71.71875 C0.29962397 56.97606644 0.22293005 42.29298103 0.125 27.5 C0.11376206 24.81511011 0.10567623 22.13021369 0.09765625 19.4453125 C0.07594928 12.96345859 0.04275278 6.48174757 0 0 Z " fill="#3479B2" transform="translate(374,146)"/>
<path d="M0 0 C6.875 0.875 6.875 0.875 8 2 C8.10409183 3.65246225 8.13853515 5.30936409 8.14526367 6.96508789 C8.15164352 8.02873062 8.15802338 9.09237335 8.16459656 10.18824768 C8.16570938 11.35460251 8.1668222 12.52095734 8.16796875 13.72265625 C8.17129715 14.9294957 8.17462555 16.13633514 8.17805481 17.37974548 C8.18313788 19.95652892 8.18546271 22.53331898 8.18530273 25.11010742 C8.18744641 28.96610281 8.20546516 32.8217914 8.22460938 36.67773438 C8.25884949 52.21935821 7.61585589 67.54050318 6 83 C5.34 82.67 4.68 82.34 4 82 C4.07105453 81.2437886 4.14210907 80.48757721 4.21531677 79.70845032 C4.97645021 70.892318 5.13149128 62.1337432 5.09765625 53.29296875 C5.09578536 51.83181304 5.09436464 50.37065669 5.09336853 48.90950012 C5.08959613 45.11040437 5.07981262 41.31134838 5.06866455 37.51226807 C5.05833529 33.61690814 5.05384654 29.72154162 5.04882812 25.82617188 C5.0381842 18.21743002 5.02117334 10.60872063 5 3 C2.525 2.01 2.525 2.01 0 1 C0 0.67 0 0.34 0 0 Z " fill="#DEEFF8" transform="translate(367,145)"/>
<path d="M0 0 C-1.29009643 0.50403768 -2.58213789 1.00309926 -3.875 1.5 C-4.95394531 1.91765625 -4.95394531 1.91765625 -6.0546875 2.34375 C-8 3 -8 3 -10 3 C-10 3.66 -10 4.32 -10 5 C-10.99 5 -11.98 5 -13 5 C-13 5.66 -13 6.32 -13 7 C-12.34 7 -11.68 7 -11 7 C-11 7.66 -11 8.32 -11 9 C-19.42857143 12.42857143 -19.42857143 12.42857143 -24 12 C-24 12.66 -24 13.32 -24 14 C-26.86724686 13.42655063 -27.8614515 13.1385485 -30 11 C-31.32 11 -32.64 11 -34 11 C-34 10.34 -34 9.68 -34 9 C-29.80530131 7.54403607 -25.60615004 6.10199798 -21.40234375 4.67260742 C-19.97330863 4.18453746 -18.54555337 3.69270318 -17.11914062 3.19702148 C-15.06706415 2.48465371 -13.01074655 1.78600707 -10.953125 1.08984375 C-9.71723633 0.66566162 -8.48134766 0.24147949 -7.20800781 -0.19555664 C-4.18702782 -0.95310071 -2.83392989 -1.14161586 0 0 Z " fill="#E8EEF0" transform="translate(190,128)"/>
<path d="M0 0 C0.99 0.66 1.98 1.32 3 2 C5.15274948 1.69159401 5.15274948 1.69159401 7 1 C7 1.66 7 2.32 7 3 C8.32 2.67 9.64 2.34 11 2 C12.87485937 5.74971873 12.45028843 10.09957007 11.50390625 14.09375 C9.85772861 18.92997809 7.51051937 22.30471646 4 26 C3.67 26 3.34 26 3 26 C3 24.02 3 22.04 3 20 C4.65 19.67 6.3 19.34 8 19 C8 15.37 8 11.74 8 8 C6.02 8 4.04 8 2 8 C1.896875 8.598125 1.79375 9.19625 1.6875 9.8125 C1 12 1 12 -2 15 C-1.34 10.05 -0.68 5.1 0 0 Z " fill="#102019" transform="translate(265,376)"/>
<path d="M0 0 C0.495 0.99 0.495 0.99 1 2 C3.01669827 3.13350534 3.01669827 3.13350534 5 4 C2.51360505 4.7650446 0.75419557 4.98396928 -1.875 4.8125 C-5.12821718 4.74431545 -5.12821718 4.74431545 -7.8125 6.875 C-11.2688196 9.17921307 -13.83607369 9.80554837 -17.83984375 10.57421875 C-21.37470893 11.27096433 -24.6879514 12.48975888 -28.0390625 13.79296875 C-28.74804688 14.06753906 -29.45703125 14.34210938 -30.1875 14.625 C-30.84105469 14.88539062 -31.49460938 15.14578125 -32.16796875 15.4140625 C-34 16 -34 16 -37 16 C-37 16.66 -37 17.32 -37 18 C-37.7425 18.144375 -38.485 18.28875 -39.25 18.4375 C-41.52027739 18.90187492 -43.75759479 19.41863569 -46 20 C-46 19.34 -46 18.68 -46 18 C-33.84133035 13.08951688 -21.643878 8.30286746 -9.37890625 3.6640625 C-6.23875177 2.47568158 -3.11045879 1.26462185 0 0 Z " fill="#E1EFF7" transform="translate(239,107)"/>
<path d="M0 0 C-0.33 2.97 -0.66 5.94 -1 9 C-3.12472576 9.05386629 -5.24983652 9.09273071 -7.375 9.125 C-9.15003906 9.15980469 -9.15003906 9.15980469 -10.9609375 9.1953125 C-14 9 -14 9 -16 7 C-15.625 4.375 -15.625 4.375 -15 2 C-13.06302033 1.66365624 -11.12539514 1.33102835 -9.1875 1 C-7.56908203 0.7215625 -7.56908203 0.7215625 -5.91796875 0.4375 C-3 0 -3 0 0 0 Z " fill="#202122" transform="translate(246,256)"/>
<path d="M0 0 C0.66 0.33 1.32 0.66 2 1 C1.0409375 2.175625 1.0409375 2.175625 0.0625 3.375 C-1.98142313 5.79539281 -1.98142313 5.79539281 -3 8 C-2.34 8 -1.68 8 -1 8 C-1 8.66 -1 9.32 -1 10 C-1.804375 9.979375 -2.60875 9.95875 -3.4375 9.9375 C-5.93354885 9.70366379 -5.93354885 9.70366379 -7 11 C-7.53962604 13.99741857 -7.96548069 17.00554327 -8.40234375 20.01953125 C-8.9422544 22.71202687 -9.6351392 24.64147486 -11 27 C-12.32 27 -13.64 27 -15 27 C-14.71125 26.29875 -14.4225 25.5975 -14.125 24.875 C-11.69874155 18.69195702 -11.69874155 18.69195702 -11 12.125 C-10.70992184 8.92796842 -10.04011274 8.04018131 -7.71484375 5.7109375 C-5.19934478 3.70844465 -2.65535529 1.81200288 0 0 Z " fill="#2F7EC2" transform="translate(287,372)"/>
<path d="M0 0 C1.66519519 0.34060811 3.33157466 0.67558396 5 1 C5.33 2.32 5.66 3.64 6 5 C4.58833114 5.98635837 3.17043816 6.96381255 1.75 7.9375 C0.96109375 8.48277344 0.1721875 9.02804687 -0.640625 9.58984375 C-2.82636993 10.89622441 -4.5153801 11.54980511 -7 12 C-6.690625 11.4225 -6.38125 10.845 -6.0625 10.25 C-5.07416636 8.15705816 -4.4831387 6.25464725 -4 4 C-6.31 3.01 -8.62 2.02 -11 1 C-11 0.67 -11 0.34 -11 0 C-3.75949367 -1.25316456 -3.75949367 -1.25316456 0 0 Z " fill="#E2E0DC" transform="translate(272,265)"/>
<path d="M0 0 C2.97851562 0.390625 2.97851562 0.390625 5.95703125 0.78125 C8.15471706 1.053233 8.15471706 1.053233 11 1 C10.67 1.66 10.34 2.32 10 3 C12.97 3.99 15.94 4.98 19 6 C19 6.66 19 7.32 19 8 C24.23471686 8.75612577 28.77254141 9.2063366 34 8 C33.67 8.99 33.34 9.98 33 11 C33.66 11.33 34.32 11.66 35 12 C35 12.66 35 13.32 35 14 C27.09159088 12.52827467 19.90532633 9.82576259 12.4375 6.875 C11.23802734 6.40707031 10.03855469 5.93914062 8.80273438 5.45703125 C5.86616291 4.31048143 2.93206187 3.15802248 0 2 C0 1.34 0 0.68 0 0 Z M22 6 C23.98 6.99 23.98 6.99 26 8 C24.68 7.67 23.36 7.34 22 7 C22 6.67 22 6.34 22 6 Z " fill="#317DBB" transform="translate(285,115)"/>
<path d="M0 0 C0.66 1.98 1.32 3.96 2 6 C-3.31819947 7.14988097 -7.62182193 6.81180046 -13 6 C-12.67 4.35 -12.34 2.7 -12 1 C-8.0186217 -0.3271261 -4.14954773 -0.06915913 0 0 Z " fill="#1B1C1E" transform="translate(187,136)"/>
<path d="M0 0 C0.66 0.33 1.32 0.66 2 1 C0.125 5.875 0.125 5.875 -1 7 C-1.65302394 12.39211198 -1.95941012 17.4123156 1.25 22 C3.2479159 24.3735924 5.36118482 26.33852378 8 28 C3.48521602 27.46884894 0.65333143 25.63379708 -3 23 C-2.67 21.68 -2.34 20.36 -2 19 C-2.66 19 -3.32 19 -4 19 C-4.0810206 16.89646505 -4.13919907 14.79204048 -4.1875 12.6875 C-4.22230469 11.51574219 -4.25710937 10.34398437 -4.29296875 9.13671875 C-4 6 -4 6 -2.55078125 4.26953125 C-2.03902344 3.85058594 -1.52726563 3.43164062 -1 3 C-0.67 2.01 -0.34 1.02 0 0 Z " fill="#053018" transform="translate(237,369)"/>
<path d="M0 0 C4.51540265 0 8.59248108 0.02055135 13 1 C13.66 3.31 14.32 5.62 15 8 C14.34 8 13.68 8 13 8 C13 7.34 13 6.68 13 6 C11.96875 6.103125 10.9375 6.20625 9.875 6.3125 C4.82750897 5.90544427 3.51186589 4.51186589 0 1 C0 0.67 0 0.34 0 0 Z " fill="#3286C8" transform="translate(215,397)"/>
<path d="M0 0 C3.46168226 1.53852545 6.06217934 3.6233361 9 6 C11.26244392 7.76092701 13.53762776 9.50517046 15.8125 11.25 C16.7087207 11.93835938 16.7087207 11.93835938 17.62304688 12.640625 C19.08168914 13.76086226 20.54079647 14.88049393 22 16 C19.66666667 16 17.33333333 16 15 16 C15 15.34 15 14.68 15 14 C10.94220256 9.46118706 6.90435042 7.20496947 1 6 C1.33 4.68 1.66 3.36 2 2 C1.34 2 0.68 2 0 2 C0 1.34 0 0.68 0 0 Z " fill="#327EBB" transform="translate(193,358)"/>
<path d="M0 0 C6.875 0.875 6.875 0.875 8 2 C8.0927833 3.38160115 8.11747043 4.76788038 8.11352539 6.15258789 C8.11344986 7.03342545 8.11337433 7.914263 8.11329651 8.8217926 C8.10813522 9.77907761 8.10297394 10.73636261 8.09765625 11.72265625 C8.0962413 12.69786728 8.09482635 13.67307831 8.09336853 14.67784119 C8.08775133 17.80609143 8.07519593 20.93427123 8.0625 24.0625 C8.05748722 26.17773334 8.05292393 28.29296781 8.04882812 30.40820312 C8.03777631 35.60549296 8.02102146 40.80274145 8 46 C7.67 46 7.34 46 7 46 C6.505 25.21 6.505 25.21 6 4 C4.02 3.01 2.04 2.02 0 1 C0 0.67 0 0.34 0 0 Z " fill="#D8F8FD" transform="translate(367,145)"/>
<path d="M0 0 C2.31 0.33 4.62 0.66 7 1 C7.09796875 2.01320313 7.1959375 3.02640625 7.296875 4.0703125 C7.44705923 5.42197055 7.59814923 6.77352817 7.75 8.125 C7.811875 8.79015625 7.87375 9.4553125 7.9375 10.140625 C8.52005153 15.09231297 10.21208037 17.95868794 13 22 C12.67 22.99 12.34 23.98 12 25 C8.46515029 20.41279045 6.72897855 16.5943005 6 10.8125 C5.50464895 6.97110118 5.18574482 4.50578612 2.375 1.75 C1.59125 1.1725 0.8075 0.595 0 0 Z " fill="#081C32" transform="translate(217,375)"/>
<path d="M0 0 C2.475 0.495 2.475 0.495 5 1 C5.12375 1.639375 5.2475 2.27875 5.375 2.9375 C5.684375 3.9584375 5.684375 3.9584375 6 5 C6.66 5.33 7.32 5.66 8 6 C8.45375 6.825 8.9075 7.65 9.375 8.5 C10.74610096 11.15305523 10.74610096 11.15305523 13.1875 11.8125 C13.785625 11.874375 14.38375 11.93625 15 12 C15.59732819 14.76264289 16 17.16032769 16 20 C0 2.9352014 0 2.9352014 0 0 Z " fill="#09192A" transform="translate(159,320)"/>
<path d="M0 0 C0.33 0 0.66 0 1 0 C1.40808788 7.61764035 0.25820495 13.47030345 -4.625 19.5 C-5.800625 20.7375 -5.800625 20.7375 -7 22 C-7.33 22 -7.66 22 -8 22 C-8 20.02 -8 18.04 -8 16 C-6.35 15.67 -4.7 15.34 -3 15 C-3.061875 13.8553125 -3.061875 13.8553125 -3.125 12.6875 C-3 10 -3 10 -1 7 C-0.60612212 4.67612053 -0.26513915 2.34206251 0 0 Z " fill="#0A1D2F" transform="translate(276,380)"/>
<path d="M0 0 C1 2 1 2 0.22265625 4.8203125 C-0.16019531 5.91085937 -0.54304688 7.00140625 -0.9375 8.125 C-1.31777344 9.22070312 -1.69804687 10.31640625 -2.08984375 11.4453125 C-2.54037109 12.70988281 -2.54037109 12.70988281 -3 14 C-3.99 14 -4.98 14 -6 14 C-6.99 11.69 -7.98 9.38 -9 7 C-5.125 7.875 -5.125 7.875 -4 9 C-3.67 7.35 -3.34 5.7 -3 4 C-2.34 4 -1.68 4 -1 4 C-0.67 2.68 -0.34 1.36 0 0 Z " fill="#DAE6ED" transform="translate(364,268)"/>
<path d="M0 0 C0.66 0.33 1.32 0.66 2 1 C2.33 1.99 2.66 2.98 3 4 C0.37646482 5.00399524 -2.24867795 6.00334445 -4.875 7 C-5.62136719 7.28617187 -6.36773437 7.57234375 -7.13671875 7.8671875 C-12.7734375 10 -12.7734375 10 -15 10 C-15 9.34 -15 8.68 -15 8 C-13.02 7.01 -11.04 6.02 -9 5 C-9 4.34 -9 3.68 -9 3 C-5.92382812 2.70703125 -5.92382812 2.70703125 -2.84765625 2.4140625 C-1.93306641 2.20910156 -1.93306641 2.20910156 -1 2 C-0.67 1.34 -0.34 0.68 0 0 Z " fill="#2C7BBA" transform="translate(249,99)"/>
<path d="M0 0 C0 0.99 0 1.98 0 3 C-0.99 2.34 -1.98 1.68 -3 1 C-4.65549531 0.61500109 -6.3222433 0.27206865 -8 0 C-8 -0.66 -8 -1.32 -8 -2 C-9.48206495 -1.745504 -10.96068615 -1.47088238 -12.4375 -1.1875 C-13.26121094 -1.03667969 -14.08492187 -0.88585937 -14.93359375 -0.73046875 C-15.61550781 -0.48941406 -16.29742187 -0.24835938 -17 0 C-17.33 0.99 -17.66 1.98 -18 3 C-18.99 3 -19.98 3 -21 3 C-20.0114653 0.30399627 -19.34022364 -0.80558649 -16.8125 -2.25 C-10.30231899 -3.98604827 -5.84346342 -2.86210453 0 0 Z " fill="#25B86F" transform="translate(260,369)"/>
<path d="M0 0 C7.4596963 0.74596963 14.68951218 2.36746129 22 4 C22 4.66 22 5.32 22 6 C22.99 6.33 23.98 6.66 25 7 C21.43364762 8.18878413 20.39620485 7.72013686 16.89453125 6.56640625 C15.91162109 6.24736328 14.92871094 5.92832031 13.91601562 5.59960938 C12.89185547 5.25736328 11.86769531 4.91511719 10.8125 4.5625 C9.77673828 4.22412109 8.74097656 3.88574219 7.67382812 3.53710938 C5.1131766 2.69929252 2.5555198 1.85331644 0 1 C0 0.67 0 0.34 0 0 Z " fill="#377BB0" transform="translate(344,137)"/>
<path d="M0 0 C1.05960937 0.45503906 2.11921875 0.91007812 3.2109375 1.37890625 C4.00757813 1.72824219 4.80421875 2.07757813 5.625 2.4375 C4.965 3.0975 4.305 3.7575 3.625 4.4375 C0.79542171 4.07473355 -1.66584291 3.34055236 -4.375 2.4375 C-4.375 1.7775 -4.375 1.1175 -4.375 0.4375 C-11.40282042 -0.6015717 -11.40282042 -0.6015717 -18.375 0.4375 C-17.375 -1.5625 -17.375 -1.5625 -15.1875 -2.75 C-9.72838659 -4.32707721 -5.03712883 -2.18275583 0 0 Z " fill="#CEECFA" transform="translate(260.375,106.5625)"/>
<path d="M0 0 C0 3.50051525 -0.52511319 4.0126916 -2.75 6.5625 C-3.26046875 7.16191406 -3.7709375 7.76132812 -4.296875 8.37890625 C-6.08831301 10.0840594 -7.7954214 10.92086804 -10 12 C-10.33 12.66 -10.66 13.32 -11 14 C-13.24656829 15.59343064 -15.5287416 16.74269309 -18 18 C-18.66 17.67 -19.32 17.34 -20 17 C-19.39414062 16.52691406 -18.78828125 16.05382812 -18.1640625 15.56640625 C-11.88417129 10.61012288 -5.88936675 5.41320519 0 0 Z " fill="#347BB2" transform="translate(313,351)"/>
<path d="M0 0 C2.375 -0.125 2.375 -0.125 5 0 C5.66 0.66 6.32 1.32 7 2 C6.46428571 5.53571429 6.46428571 5.53571429 5 7 C3.48071962 7.07179964 1.95832518 7.08392007 0.4375 7.0625 C-0.38878906 7.05347656 -1.21507812 7.04445313 -2.06640625 7.03515625 C-2.70449219 7.02355469 -3.34257812 7.01195312 -4 7 C-2.35 5.35 -0.7 3.7 1 2 C0.67 1.34 0.34 0.68 0 0 Z " fill="#171718" transform="translate(263,258)"/>
<path d="M0 0 C0.66 0.33 1.32 0.66 2 1 C-1.81495577 4.39717963 -5.48954059 7.53974941 -10 10 C-10 9.01 -10 8.02 -10 7 C-10.66 7 -11.32 7 -12 7 C-11.67 5.68 -11.34 4.36 -11 3 C-8.33333333 3 -5.66666667 3 -3 3 C-1.31201173 1.56249809 -1.31201173 1.56249809 0 0 Z " fill="#0B1B2A" transform="translate(302,359)"/>
<path d="M0 0 C7.85428897 1.57532681 15.46201031 3.27072787 23 6 C22.01 6.66 21.02 7.32 20 8 C17.24047007 7.37430979 14.72540186 6.66067906 12.0625 5.75 C11.34642578 5.51925781 10.63035156 5.28851563 9.89257812 5.05078125 C6.45824435 3.92403968 3.17372111 2.75673336 0 1 C0 0.67 0 0.34 0 0 Z " fill="#377EB7" transform="translate(321,129)"/>
<path d="M0 0 C2.50037734 2.17424117 3.43628586 3.73045798 4 7 C4.99 6.67 5.98 6.34 7 6 C7.99 9.3 8.98 12.6 10 16 C9.34 16.33 8.68 16.66 8 17 C6.66161267 14.54429825 5.32913768 12.08570084 4 9.625 C3.6184375 8.92632812 3.236875 8.22765625 2.84375 7.5078125 C0 2.2265625 0 2.2265625 0 0 Z " fill="#3884C2" transform="translate(125,298)"/>
<path d="M0 0 C-2.82321865 2.82321865 -6.25978203 3.77294537 -9.9375 5.125 C-10.66646484 5.40214844 -11.39542969 5.67929688 -12.14648438 5.96484375 C-15.21893433 7.10821193 -17.69539373 8 -21 8 C-21 7.34 -21 6.68 -21 6 C-19.68 6 -18.36 6 -17 6 C-16.67 5.01 -16.34 4.02 -16 3 C-14.9275 2.87625 -13.855 2.7525 -12.75 2.625 C-9.17614517 2.21826684 -9.17614517 2.21826684 -6.875 0.9375 C-4.49181915 -0.25409043 -2.62772904 -0.14598495 0 0 Z " fill="#367DB7" transform="translate(223,113)"/>
<path d="M0 0 C1.32 0.33 2.64 0.66 4 1 C-1.11545836 5.05708767 -5.61234427 5.67120726 -12 5 C-15.0625 3.5 -15.0625 3.5 -17 2 C-16.34 1.67 -15.68 1.34 -15 1 C-14.34 1.33 -13.68 1.66 -13 2 C-10.95944995 2.07065617 -8.91665743 2.08421976 -6.875 2.0625 C-5.77929688 2.05347656 -4.68359375 2.04445313 -3.5546875 2.03515625 C-2.71164063 2.02355469 -1.86859375 2.01195312 -1 2 C-0.67 1.34 -0.34 0.68 0 0 Z " fill="#2ABB75" transform="translate(257,392)"/>
<path d="M0 0 C-4.455 2.97 -4.455 2.97 -9 6 C-10.37562854 4.71034824 -11.70766393 3.37310707 -13 2 C-13 1.34 -13 0.68 -13 0 C-10.525 0.99 -10.525 0.99 -8 2 C-8 1.34 -8 0.68 -8 0 C-4.63458162 -1.08174162 -3.70152678 -0.92538169 0 0 Z " fill="#EAE9E2" transform="translate(345,140)"/>
<path d="M0 0 C0 0.99 0 1.98 0 3 C-3.97638985 6.6379737 -6.49057274 8.32973711 -11.9375 8.3125 C-13.2933546 8.23327644 -14.64884893 8.13787256 -16 8 C-16.33 7.34 -16.66 6.68 -17 6 C-15.78763672 5.85304688 -15.78763672 5.85304688 -14.55078125 5.703125 C-6.46310609 4.69576857 -6.46310609 4.69576857 0 0 Z " fill="#042913" transform="translate(262,391)"/>
<path d="M0 0 C2.01822917 0.06510417 4.03645833 0.13020833 6.0546875 0.1953125 C6.7146875 2.1753125 7.3746875 4.1553125 8.0546875 6.1953125 C6.4046875 6.5253125 4.7546875 6.8553125 3.0546875 7.1953125 C3.0546875 6.2053125 3.0546875 5.2153125 3.0546875 4.1953125 C0.7446875 3.5353125 -1.5653125 2.8753125 -3.9453125 2.1953125 C-1.9453125 0.1953125 -1.9453125 0.1953125 0 0 Z " fill="#2F3031" transform="translate(180.9453125,135.8046875)"/>
<path d="M0 0 C1.65 0.33 3.3 0.66 5 1 C5 1.66 5 2.32 5 3 C6.65 3 8.3 3 10 3 C7.02819033 4.98120645 5.48883564 5.65962579 2 6 C-0.3125 5.0625 -0.3125 5.0625 -2 4 C-2 3.34 -2 2.68 -2 2 C-1.34 2 -0.68 2 0 2 C0 1.34 0 0.68 0 0 Z " fill="#EFEEE7" transform="translate(327,134)"/>
<path d="M0 0 C1.65 0 3.3 0 5 0 C5 0.66 5 1.32 5 2 C5.99 1.67 6.98 1.34 8 1 C10.59505753 2.45017921 11.77590452 3.34638817 12.75 6.1875 C12.87375 7.0846875 12.87375 7.0846875 13 8 C8.27626146 6.37621488 4.05818166 3.89006982 0 1 C0 0.67 0 0.34 0 0 Z " fill="#3785C5" transform="translate(223,403)"/>
<path d="M0 0 C3.43998071 1.20864187 5.49924271 2.38557192 8 5 C8.99 5.33 9.98 5.66 11 6 C11 6.66 11 7.32 11 8 C12.65 8.33 14.3 8.66 16 9 C16 9.99 16 10.98 16 12 C10.02286182 9.24132084 4.91171936 5.32699087 0 1 C0 0.67 0 0.34 0 0 Z " fill="#091E33" transform="translate(192,356)"/>
<path d="M0 0 C0 0.66 0 1.32 0 2 C-2.07914664 2.70005949 -4.16351586 3.38462244 -6.25 4.0625 C-7.41015625 4.44535156 -8.5703125 4.82820312 -9.765625 5.22265625 C-12.80077085 5.95211763 -14.15703213 6.11889082 -17 5 C-16.67 4.34 -16.34 3.68 -16 3 C-13.8203125 2.40234375 -13.8203125 2.40234375 -11.125 1.9375 C-0.14049587 0 -0.14049587 0 0 0 Z " fill="#327BB5" transform="translate(153,137)"/>
<path d="M0 0 C2 1.3125 2 1.3125 4 4 C4.74182932 9.07567432 4.69600055 13.52099883 2.5 18.1875 C1.7575 19.0846875 1.7575 19.0846875 1 20 C0.375 18.25 0.375 18.25 0 16 C0.309375 15.401875 0.61875 14.80375 0.9375 14.1875 C2.89810555 10.15095917 2.41432208 6.21707111 1 2.0625 C0.67 1.381875 0.34 0.70125 0 0 Z " fill="#27B674" transform="translate(261,372)"/>
<path d="M0 0 C2.35119399 3.52679099 2.21443452 5.02879485 2.125 9.1875 C2.10695312 10.27417969 2.08890625 11.36085938 2.0703125 12.48046875 C2.03550781 13.72763672 2.03550781 13.72763672 2 15 C0.515625 13.8515625 0.515625 13.8515625 -1 12 C-1.328125 9.3359375 -1.328125 9.3359375 -1.25 6.375 C-1.23453125 5.39273437 -1.2190625 4.41046875 -1.203125 3.3984375 C-1 1 -1 1 0 0 Z " fill="#26BA73" transform="translate(236,375)"/>
<path d="M0 0 C6.23440168 1.58960332 12.16287645 3.27600901 18 6 C14.52176885 7.15941038 12.54104422 6.70820884 9 6 C9 5.34 9 4.68 9 4 C7.35 4 5.7 4 4 4 C4 3.34 4 2.68 4 2 C2.68 2 1.36 2 0 2 C0 1.34 0 0.68 0 0 Z " fill="#D9EDF7" transform="translate(269,111)"/>
<path d="M0 0 C0.66 0 1.32 0 2 0 C2.66 1.98 3.32 3.96 4 6 C1.69 6.66 -0.62 7.32 -3 8 C-1.125 2.25 -1.125 2.25 0 0 Z " fill="#2C80C4" transform="translate(355,295)"/>
<path d="M0 0 C0.33 0 0.66 0 1 0 C0.3622098 7.52592433 -1.19889833 14.67098882 -3 22 C-3.33 22 -3.66 22 -4 22 C-3.855625 20.88625 -3.71125 19.7725 -3.5625 18.625 C-3.03713124 14.52420492 -2.68742797 10.41925038 -2.37890625 6.296875 C-1.97820178 3.86786234 -1.2075721 2.13158475 0 0 Z " fill="#4287C3" transform="translate(387,252)"/>
<path d="M0 0 C1.24546405 2.49092811 0.7767578 3.41080733 0 6 C-0.66 6 -1.32 6 -2 6 C-2.33 7.65 -2.66 9.3 -3 11 C-3.66 11 -4.32 11 -5 11 C-5.66 12.65 -6.32 14.3 -7 16 C-7.33 15.34 -7.66 14.68 -8 14 C-6.75717988 11.54961707 -5.47117661 9.226675 -4.0625 6.875 C-3.48338867 5.88693359 -3.48338867 5.88693359 -2.89257812 4.87890625 C-1.93553422 3.248387 -0.96867185 1.62363816 0 0 Z " fill="#357BB6" transform="translate(351,303)"/>
<path d="M0 0 C0.33 0.66 0.66 1.32 1 2 C0.00390625 4.6015625 0.00390625 4.6015625 -1.4375 7.625 C-1.91058594 8.62789063 -2.38367188 9.63078125 -2.87109375 10.6640625 C-3.24363281 11.43492187 -3.61617188 12.20578125 -4 13 C-5.4606285 10.35261084 -6 9.10551666 -6 6 C-5.195625 5.7525 -4.39125 5.505 -3.5625 5.25 C-0.828919 4.27761141 -0.828919 4.27761141 -0.1875 1.875 C-0.125625 1.25625 -0.06375 0.6375 0 0 Z " fill="#3784C6" transform="translate(376,292)"/>
<path d="M0 0 C3.00617269 3.00617269 2.59585316 5.82381598 3 10 C2.01 10.33 1.02 10.66 0 11 C-0.144375 10.2575 -0.28875 9.515 -0.4375 8.75 C-0.93631867 6.07188726 -0.93631867 6.07188726 -1.6875 3.8125 C-1.790625 3.214375 -1.89375 2.61625 -2 2 C-1.34 1.34 -0.68 0.68 0 0 Z " fill="#3280BD" transform="translate(134,268)"/>
<path d="M0 0 C3.32570627 1.10856876 3.63497952 1.57370587 5.4375 4.375 C7.33921284 7.18146713 9.09101137 9.16841457 12 11 C7.48521602 10.46884894 4.65333143 8.63379708 1 6 C1.33 4.68 1.66 3.36 2 2 C1.34 2 0.68 2 0 2 C0 1.34 0 0.68 0 0 Z " fill="#092615" transform="translate(233,386)"/>
<path d="M0 0 C0.99 0.33 1.98 0.66 3 1 C3.6875 3.0625 3.6875 3.0625 4 5 C3.01 5 2.02 5 1 5 C0.67 5.66 0.34 6.32 0 7 C-1.65 5.35 -3.3 3.7 -5 2 C-2.03 2.495 -2.03 2.495 1 3 C0.67 2.01 0.34 1.02 0 0 Z " fill="#0F1C29" transform="translate(187,345)"/>
<path d="M0 0 C1.88671875 0.2265625 1.88671875 0.2265625 4 1 C5.08203125 2.9609375 5.08203125 2.9609375 5.8125 5.375 C6.06644531 6.16648437 6.32039062 6.95796875 6.58203125 7.7734375 C7 10 7 10 6 13 C4.99491199 11.21118264 3.99607264 9.41885304 3 7.625 C2.1646875 6.12839844 2.1646875 6.12839844 1.3125 4.6015625 C0 2 0 2 0 0 Z " fill="#0C1D31" transform="translate(147,299)"/>
<path d="M0 0 C2 0.875 2 0.875 3.25 3.4375 C3.4975 4.241875 3.745 5.04625 4 5.875 C3.34 5.875 2.68 5.875 2 5.875 C2 5.215 2 4.555 2 3.875 C0.35 3.875 -1.3 3.875 -3 3.875 C-3.33 2.885 -3.66 1.895 -4 0.875 C-2 -0.125 -2 -0.125 0 0 Z " fill="#1E82CF" transform="translate(226,399.125)"/>
<path d="M0 0 C1.98 0.66 3.96 1.32 6 2 C4.35 3.65 2.7 5.3 1 7 C0.34 6.67 -0.32 6.34 -1 6 C-0.67 4.02 -0.34 2.04 0 0 Z " fill="#3285C8" transform="translate(279,395)"/>
<path d="M0 0 C0 0.66 0 1.32 0 2 C-1.24663331 2.50833591 -2.49749387 3.00631145 -3.75 3.5 C-4.44609375 3.7784375 -5.1421875 4.056875 -5.859375 4.34375 C-8 5 -8 5 -12 5 C-12 4.34 -12 3.68 -12 3 C-10.37604003 2.49663233 -8.75079459 1.99741024 -7.125 1.5 C-6.22007812 1.2215625 -5.31515625 0.943125 -4.3828125 0.65625 C-2 0 -2 0 0 0 Z " fill="#D7EAF7" transform="translate(168,134)"/>
<path d="M0 0 C1.9375 0.75 1.9375 0.75 4 2 C4.75 4.125 4.75 4.125 5 6 C3.02 5.34 1.04 4.68 -1 4 C-0.67 2.68 -0.34 1.36 0 0 Z " fill="#E5E3DE" transform="translate(242,347)"/>
<path d="M0 0 C1.32 0.33 2.64 0.66 4 1 C3 4 3 4 -0.0625 5.6875 C-1.031875 6.120625 -2.00125 6.55375 -3 7 C-2.67 5.35 -2.34 3.7 -2 2 C-1.34 2 -0.68 2 0 2 C0 1.34 0 0.68 0 0 Z " fill="#1E1F21" transform="translate(319,274)"/>
<path d="M0 0 C0.33 0 0.66 0 1 0 C1.1953125 6.0546875 1.1953125 6.0546875 1 8 C0.34 8.66 -0.32 9.32 -1 10 C-2 9 -2 9 -2.1875 6.125 C-2 3 -2 3 0 0 Z " fill="#3985C0" transform="translate(376,201)"/>
<path d="M0 0 C6.52307692 1.35384615 6.52307692 1.35384615 8.9375 4.625 C9.288125 5.40875 9.63875 6.1925 10 7 C5.56541027 5.6062718 3.12621626 3.39417765 0 0 Z " fill="#3D86C8" transform="translate(205,390)"/>
<path d="M0 0 C0.33 0 0.66 0 1 0 C0.88637738 1.4800841 0.75877092 2.95910074 0.625 4.4375 C0.52058594 5.67306641 0.52058594 5.67306641 0.4140625 6.93359375 C0.27742188 7.61550781 0.14078125 8.29742187 0 9 C-0.99 9.495 -0.99 9.495 -2 10 C-2.1953125 3.9453125 -2.1953125 3.9453125 -2 2 C-1.34 1.34 -0.68 0.68 0 0 Z " fill="#3075AB" transform="translate(279,378)"/>
<path d="M0 0 C6.57142857 5.14285714 6.57142857 5.14285714 8 9 C6.68 8.34 5.36 7.68 4 7 C4 6.34 4 5.68 4 5 C2.68 4.67 1.36 4.34 0 4 C0 2.68 0 1.36 0 0 Z " fill="#3579B1" transform="translate(171,336)"/>
<path d="M0 0 C2.475 0.495 2.475 0.495 5 1 C5.66666667 3.66666667 6.33333333 6.33333333 7 9 C4.03595495 6.19195732 1.55500981 3.81684226 0 0 Z " fill="#091F35" transform="translate(159,320)"/>
<path d="M0 0 C1.98 0 3.96 0 6 0 C6 0.66 6 1.32 6 2 C6.99 2.33 7.98 2.66 9 3 C5.23375329 4.25541557 3.62811066 3.37061958 0 2 C0 1.34 0 0.68 0 0 Z " fill="#3A81BC" transform="translate(360,141)"/>
<path d="M0 0 C2.31 0.33 4.62 0.66 7 1 C4.53721199 3.46278801 2.29323018 3.99771255 -1 5 C-1.33 4.34 -1.66 3.68 -2 3 C-1.34 3 -0.68 3 0 3 C0 2.01 0 1.02 0 0 Z " fill="#307CBB" transform="translate(184,124)"/>
<path d="M0 0 C3.55780196 0.60990891 6.6828589 1.5783681 10 3 C9.34 3.66 8.68 4.32 8 5 C5.17042171 4.63723355 2.70915709 3.90305236 0 3 C0 2.01 0 1.02 0 0 Z " fill="#E1F0F6" transform="translate(256,106)"/>
<path d="M0 0 C0 0.66 0 1.32 0 2 C-1.75 3.5078125 -1.75 3.5078125 -4 5.125 C-4.7425 5.66382813 -5.485 6.20265625 -6.25 6.7578125 C-6.8275 7.16773438 -7.405 7.57765625 -8 8 C-7.690625 7.401875 -7.38125 6.80375 -7.0625 6.1875 C-5.89790296 3.91043228 -5.89790296 3.91043228 -5 1 C-2 0 -2 0 0 0 Z " fill="#081C2E" transform="translate(315,349)"/>
<path d="M0 0 C0.33 0.66 0.66 1.32 1 2 C2.65 2 4.3 2 6 2 C5.67 2.66 5.34 3.32 5 4 C1.9375 4.625 1.9375 4.625 -1 5 C-0.67 4.01 -0.34 3.02 0 2 C-0.99 1.67 -1.98 1.34 -3 1 C-2.01 0.67 -1.02 0.34 0 0 Z " fill="#307BBB" transform="translate(227,107)"/>
<path d="M0 0 C2.64752004 2.57784846 4.94432065 4.91648098 7 8 C4 8 4 8 1.8125 6.25 C0 4 0 4 0 0 Z " fill="#347DB8" transform="translate(157,319)"/>
<path d="M0 0 C0.99 0.33 1.98 0.66 3 1 C0.6875 3.5 0.6875 3.5 -2 6 C-2.99 6 -3.98 6 -5 6 C-3.35 4.02 -1.7 2.04 0 0 Z " fill="#222222" transform="translate(320,290)"/>
<path d="M0 0 C2.97 0.495 2.97 0.495 6 1 C4.71034824 2.37562854 3.37310707 3.70766393 2 5 C1.34 5 0.68 5 0 5 C0 3.35 0 1.7 0 0 Z " fill="#1E1E1F" transform="translate(306,281)"/>
<path d="M0 0 C0.66 0 1.32 0 2 0 C2.66 2.31 3.32 4.62 4 7 C3.01 7 2.02 7 1 7 C0.34 5.02 -0.32 3.04 -1 1 C-0.67 0.67 -0.34 0.34 0 0 Z " fill="#272727" transform="translate(338,150)"/>
<path d="M0 0 C2.1875 0.3125 2.1875 0.3125 4 1 C3.34 2.32 2.68 3.64 2 5 C-0.475 4.01 -0.475 4.01 -3 3 C-1.75 1.4375 -1.75 1.4375 0 0 Z " fill="#252424" transform="translate(323,137)"/>
<path d="M0 0 C1.33333333 0.66666667 2.66666667 1.33333333 4 2 C5.0828125 2.4640625 5.0828125 2.4640625 6.1875 2.9375 C8 4 8 4 9 7 C5.18315774 5.44499019 2.80804268 2.96404505 0 0 Z " fill="#4087BF" transform="translate(189,378)"/>
<path d="M0 0 C0.33 0.99 0.66 1.98 1 3 C-0.4375 5.6875 -0.4375 5.6875 -2 8 C-2.99 7.34 -3.98 6.68 -5 6 C-3.35 4.02 -1.7 2.04 0 0 Z " fill="#2F7AB7" transform="translate(325,339)"/>
<path d="M0 0 C0.33 0.66 0.66 1.32 1 2 C1.99 2.33 2.98 2.66 4 3 C2.35 4.32 0.7 5.64 -1 7 C-0.67 4.69 -0.34 2.38 0 0 Z " fill="#0C2131" transform="translate(317,342)"/>
<path d="M0 0 C1.32 0 2.64 0 4 0 C2.75023244 3.65316671 2.32901247 4.78065836 -1 7 C-0.67 4.69 -0.34 2.38 0 0 Z " fill="#3A89C9" transform="translate(354,328)"/>
<path d="M0 0 C0.66 0.33 1.32 0.66 2 1 C2 1.99 2 2.98 2 4 C0.02 4.99 0.02 4.99 -2 6 C-1.125 1.125 -1.125 1.125 0 0 Z " fill="#DDDCD9" transform="translate(294,316)"/>
<path d="M0 0 C-1.0975223 2.99324263 -1.67682892 3.84610901 -4.625 5.25 C-5.40875 5.4975 -6.1925 5.745 -7 6 C-7 4 -7 4 -5.1875 1.875 C-3 0 -3 0 0 0 Z " fill="#E2E2DF" transform="translate(292,209)"/>
</svg>
